<?xml version="1.0" encoding="utf-8"?>
<!-- Generator: Adobe Illustrator 16.0.0, SVG Export Plug-In . SVG Version: 6.00 Build 0)  -->
<!DOCTYPE svg PUBLIC "-//W3C//DTD SVG 1.1//EN" "http://www.w3.org/Graphics/SVG/1.1/DTD/svg11.dtd">
<svg version="1.1" id="Layer_1" xmlns="http://www.w3.org/2000/svg" xmlns:xlink="http://www.w3.org/1999/xlink" x="0px" y="0px"
	 width="134.52px" height="78.764px" viewBox="0 0 134.52 78.764" enable-background="new 0 0 134.52 78.764" xml:space="preserve">
<g>
	<g>
		<path fill="#FFFFFF" d="M9.493,69.551c-0.216-0.266-0.467-0.504-0.752-0.715S8.149,68.44,7.82,68.283s-0.669-0.277-1.018-0.361
			s-0.695-0.125-1.039-0.125c-0.697,0-1.351,0.138-1.96,0.412c-0.609,0.275-1.146,0.648-1.607,1.121
			c-0.462,0.471-0.825,1.017-1.091,1.636c-0.265,0.619-0.397,1.268-0.397,1.946c0,0.648,0.13,1.268,0.391,1.857
			c0.26,0.589,0.626,1.115,1.098,1.576c0.472,0.442,1.02,0.809,1.644,1.099s1.266,0.435,1.924,0.435c0.324,0,0.661-0.041,1.01-0.125
			s0.69-0.199,1.024-0.347s0.648-0.324,0.943-0.53c0.295-0.207,0.546-0.438,0.752-0.693v0.973c-0.53,0.443-1.108,0.784-1.732,1.025
			c-0.624,0.24-1.279,0.361-1.968,0.361c-0.776,0-1.513-0.15-2.211-0.45c-0.697-0.3-1.312-0.708-1.842-1.224
			c-0.531-0.516-0.954-1.12-1.269-1.812C0.157,74.363,0,73.629,0,72.853c0-0.786,0.155-1.528,0.465-2.226s0.729-1.305,1.26-1.82
			c0.531-0.516,1.147-0.924,1.851-1.224c0.702-0.3,1.446-0.45,2.233-0.45c0.678,0,1.336,0.126,1.975,0.377
			c0.639,0.25,1.209,0.606,1.71,1.068V69.551z"/>
		<path fill="#FFFFFF" d="M17.056,78.395h-0.811l-3.627-5.262h-0.354v5.262h-0.707V67.281h1.385c0.452,0,0.895,0.023,1.327,0.073
			s0.835,0.212,1.209,0.486c0.402,0.285,0.69,0.636,0.862,1.054s0.258,0.863,0.258,1.334c0,0.482-0.079,0.906-0.236,1.275
			s-0.378,0.674-0.663,0.914s-0.621,0.422-1.01,0.545c-0.388,0.123-0.813,0.18-1.274,0.17L17.056,78.395z M13.164,72.469
			c0.344,0,0.683-0.023,1.017-0.073c0.334-0.049,0.644-0.196,0.929-0.442c0.266-0.216,0.462-0.479,0.59-0.788
			s0.191-0.632,0.191-0.966c0-0.412-0.096-0.806-0.287-1.18c-0.191-0.373-0.489-0.648-0.892-0.824
			c-0.295-0.139-0.619-0.215-0.973-0.229c-0.354-0.016-0.693-0.023-1.018-0.023h-0.457v4.525H13.164z"/>
		<path fill="#FFFFFF" d="M19.457,67.943v4.039h4.481v0.664h-4.481v5.086h4.6v0.662H18.75V67.281h5.307v0.662H19.457z"/>
		<path fill="#FFFFFF" d="M27.314,74.739l-1.489,3.655h-0.723l4.658-11.482l4.644,11.482h-0.723l-1.488-3.655H27.314z
			 M29.761,68.711l-2.182,5.365h4.349L29.761,68.711z"/>
		<path fill="#FFFFFF" d="M36.969,78.395h-0.707V67.943h-2.874v-0.662h6.456v0.662h-2.875V78.395z"/>
		<path fill="#FFFFFF" d="M41.833,78.395h-0.707V67.281h0.707V78.395z"/>
		<path fill="#FFFFFF" d="M47.11,76.773h0.029l3.287-9.492h0.708l-4.039,11.482l-3.995-11.482h0.708L47.11,76.773z"/>
		<path fill="#FFFFFF" d="M53.109,67.943v4.039h4.481v0.664h-4.481v5.086h4.6v0.662h-5.307V67.281h5.307v0.662H53.109z"/>
		<path fill="#FFFFFF" d="M64.445,67.281h2.004c0.403,0,0.789,0.02,1.157,0.059c0.369,0.039,0.723,0.11,1.062,0.213
			c0.339,0.104,0.666,0.246,0.98,0.428c0.314,0.183,0.624,0.416,0.929,0.701c0.59,0.55,1.031,1.184,1.326,1.9
			c0.295,0.718,0.442,1.475,0.442,2.271c0,0.767-0.145,1.501-0.435,2.204c-0.29,0.702-0.715,1.324-1.275,1.864
			c-0.609,0.59-1.253,0.983-1.931,1.179c-0.678,0.197-1.43,0.295-2.256,0.295h-2.004V67.281z M66.435,77.732
			c0.728,0,1.398-0.094,2.013-0.281c0.613-0.186,1.187-0.54,1.717-1.061c0.472-0.473,0.835-1.012,1.091-1.621
			s0.384-1.248,0.384-1.917c0-0.708-0.136-1.38-0.405-2.02c-0.271-0.639-0.671-1.198-1.202-1.681
			c-0.53-0.48-1.088-0.803-1.673-0.965s-1.226-0.244-1.924-0.244h-1.282v9.789H66.435z"/>
		<path fill="#FFFFFF" d="M74.763,67.943v4.039h4.481v0.664h-4.481v5.086h4.6v0.662h-5.307V67.281h5.307v0.662H74.763z"/>
		<path fill="#FFFFFF" d="M84.418,76.773h0.029l3.287-9.492h0.708l-4.039,11.482l-3.995-11.482h0.708L84.418,76.773z"/>
		<path fill="#FFFFFF" d="M90.417,67.943v4.039h4.481v0.664h-4.481v5.086h4.6v0.662H89.71V67.281h5.307v0.662H90.417z"/>
		<path fill="#FFFFFF" d="M97.891,77.732h2.83v0.662h-3.537V67.281h0.707V77.732z"/>
		<path fill="#FFFFFF" d="M107.103,67.133c0.776,0,1.516,0.15,2.219,0.45c0.702,0.3,1.314,0.71,1.835,1.231
			c0.521,0.52,0.937,1.127,1.246,1.82c0.31,0.692,0.464,1.427,0.464,2.203c0,0.786-0.154,1.523-0.464,2.211
			s-0.726,1.293-1.246,1.812c-0.521,0.521-1.133,0.932-1.835,1.231c-0.703,0.3-1.442,0.45-2.219,0.45
			c-0.786,0-1.528-0.15-2.226-0.45c-0.698-0.3-1.307-0.71-1.828-1.231c-0.521-0.52-0.936-1.125-1.245-1.812
			s-0.465-1.425-0.465-2.211c0-0.776,0.152-1.511,0.457-2.203c0.305-0.693,0.72-1.301,1.246-1.82
			c0.525-0.521,1.137-0.932,1.835-1.231C105.574,67.283,106.316,67.133,107.103,67.133z M107.103,67.797
			c-0.697,0-1.351,0.135-1.96,0.405s-1.146,0.634-1.607,1.091s-0.825,0.99-1.091,1.6c-0.265,0.609-0.397,1.258-0.397,1.945
			s0.133,1.336,0.397,1.945c0.266,0.609,0.629,1.143,1.091,1.6s0.998,0.82,1.607,1.091s1.263,0.405,1.96,0.405
			c0.688,0,1.339-0.135,1.953-0.405s1.15-0.634,1.606-1.091c0.457-0.457,0.821-0.992,1.091-1.606
			c0.271-0.614,0.406-1.261,0.406-1.938c0-0.688-0.136-1.336-0.406-1.945c-0.27-0.609-0.634-1.143-1.091-1.6
			c-0.456-0.457-0.992-0.82-1.606-1.091S107.79,67.797,107.103,67.797z"/>
		<path fill="#FFFFFF" d="M115.299,78.395h-0.707V67.281h1.96c0.442,0,0.867,0.034,1.275,0.103c0.407,0.069,0.783,0.251,1.128,0.546
			c0.344,0.285,0.597,0.626,0.759,1.023c0.162,0.398,0.243,0.818,0.243,1.261c0,0.403-0.076,0.806-0.229,1.209
			s-0.386,0.731-0.7,0.987c-0.344,0.295-0.732,0.486-1.164,0.575c-0.433,0.089-0.87,0.133-1.312,0.133h-1.253V78.395z
			 M116.581,72.455c0.364,0,0.708-0.037,1.032-0.111c0.324-0.073,0.629-0.238,0.914-0.494c0.481-0.441,0.722-0.996,0.722-1.665
			c0-0.344-0.068-0.679-0.206-1.003s-0.349-0.589-0.634-0.795c-0.285-0.217-0.595-0.344-0.929-0.384
			c-0.334-0.039-0.673-0.06-1.017-0.06h-1.165v4.512H116.581z"/>
		<path fill="#FFFFFF" d="M122.256,67.943v4.039h4.481v0.664h-4.481v5.086h4.6v0.662h-5.307V67.281h5.307v0.662H122.256z"/>
		<path fill="#FFFFFF" d="M134.52,78.395h-0.811l-3.627-5.262h-0.354v5.262h-0.707V67.281h1.385c0.452,0,0.895,0.023,1.327,0.073
			s0.835,0.212,1.209,0.486c0.402,0.285,0.69,0.636,0.862,1.054s0.258,0.863,0.258,1.334c0,0.482-0.079,0.906-0.236,1.275
			s-0.378,0.674-0.663,0.914s-0.621,0.422-1.01,0.545c-0.388,0.123-0.813,0.18-1.274,0.17L134.52,78.395z M130.628,72.469
			c0.344,0,0.683-0.023,1.017-0.073c0.334-0.049,0.644-0.196,0.929-0.442c0.266-0.216,0.462-0.479,0.59-0.788
			s0.191-0.632,0.191-0.966c0-0.412-0.096-0.806-0.287-1.18c-0.191-0.373-0.489-0.648-0.892-0.824
			c-0.295-0.139-0.619-0.215-0.973-0.229c-0.354-0.016-0.693-0.023-1.018-0.023h-0.457v4.525H130.628z"/>
	</g>
	<path fill="#FFFFFF" d="M47.565,61.094h-3.5V32.89h3.5V61.094z"/>
	<path fill="#FFFFFF" d="M51.065,32.89h15.149v3.217H54.581v7.893h11.297v3.217H54.581v10.661h11.634v3.217H51.065V32.89z"/>
	<path fill="#FFFFFF" d="M83.611,46.5c0.597-0.712,1.062-1.526,1.393-2.441c0.33-0.916,0.495-1.896,0.495-2.94
		c0-1.374-0.323-2.684-0.973-3.931c-0.648-1.246-1.583-2.226-2.806-2.939c-1.145-0.636-2.379-1.017-3.701-1.146
		c-1.324-0.126-2.621-0.19-3.893-0.19h-4.398L69.716,61.09h3.513V49.516h1.622c0,0,0.729-0.039,1.579-0.104l8.164,11.679h4.476
		l-9.038-12.249c0.492-0.144,0.963-0.321,1.404-0.565C82.288,47.805,83.013,47.213,83.611,46.5z M79.68,45.622
		c-0.726,0.382-1.54,0.631-2.443,0.745c-0.903,0.113-1.812,0.172-2.729,0.172h-1.279v-10.42h1.088c0.891,0,1.801,0.058,2.729,0.171
		c0.929,0.114,1.768,0.356,2.52,0.725c0.75,0.37,1.366,0.892,1.851,1.565c0.483,0.674,0.725,1.572,0.725,2.691
		c0,1.145-0.229,2.062-0.687,2.748C80.996,44.707,80.404,45.24,79.68,45.622z"/>
	<path fill="#FFFFFF" d="M39.286,46.537c-1.657-1.537-3.72-2.687-6.13-3.416c-1.334-0.581-2.383-1.218-3.116-1.888
		c-0.706-0.655-1.05-1.417-1.05-2.332c0-0.924,0.343-1.688,1.047-2.338c0.726-0.668,1.579-0.993,2.609-0.993
		c1.032,0,1.887,0.323,2.607,0.982c0.398,0.37,0.686,0.774,0.855,1.201l0.305,0.769l3.023-1.108l-0.271-0.787
		c-0.3-0.875-0.842-1.667-1.604-2.347c-1.362-1.251-3.016-1.886-4.917-1.886c-1.915,0-3.571,0.639-4.922,1.898
		c-1.367,1.275-2.061,2.825-2.061,4.607c0,1.816,0.693,3.381,2.062,4.651c1.283,1.189,3.037,2.135,5.161,2.789
		c1.627,0.619,3.013,1.453,4.121,2.48c1.193,1.107,1.773,2.397,1.773,3.943c0,1.559-0.58,2.854-1.773,3.961
		c-1.211,1.123-2.638,1.67-4.362,1.67c-1.712,0-3.133-0.547-4.344-1.671c-1.026-0.952-1.597-2.026-1.742-3.285l-0.122-1.042
		l-3.213,1.086l0.114,0.709c0.295,1.829,1.193,3.45,2.665,4.816c1.832,1.711,4.066,2.578,6.642,2.578s4.809-0.861,6.64-2.56
		c1.849-1.716,2.786-3.822,2.786-6.263C42.072,50.336,41.135,48.24,39.286,46.537z"/>
	<path fill="#FFFFFF" d="M120.19,32.89h-1.1L107.2,58.853l-7.388-10.012c0.492-0.144,0.963-0.321,1.404-0.565
		c0.853-0.471,1.577-1.062,2.176-1.775c0.597-0.712,1.062-1.526,1.393-2.441c0.33-0.916,0.495-1.896,0.495-2.94
		c0-1.374-0.323-2.684-0.973-3.931c-0.648-1.246-1.583-2.226-2.806-2.939c-1.145-0.636-2.379-1.017-3.701-1.146
		c-1.324-0.126-2.621-0.19-3.893-0.19H89.51L89.497,61.09h3.513V49.516h1.622c0,0,0.729-0.039,1.579-0.104l8.164,11.679h1.8v0.001
		h3.777l3.216-7.069h12.944l3.216,7.069h3.778L120.19,32.89z M97.018,46.367c-0.903,0.113-1.812,0.172-2.729,0.172H93.01v-10.42
		h1.088c0.891,0,1.801,0.058,2.729,0.171c0.929,0.114,1.768,0.356,2.52,0.725c0.75,0.37,1.366,0.892,1.851,1.565
		c0.483,0.674,0.725,1.572,0.725,2.691c0,1.145-0.229,2.062-0.687,2.748c-0.458,0.688-1.05,1.221-1.774,1.603
		C98.735,46.004,97.921,46.253,97.018,46.367z M114.628,50.805l5.013-11.409l5.012,11.409H114.628z"/>
	<path fill="#FFFFFF" d="M13.942,44.767c0,0.405,0.068,0.798,0.201,1.179c0.138,0.378,0.33,0.713,0.581,1.004
		c0.25,0.291,0.551,0.525,0.903,0.701c0.351,0.176,0.743,0.264,1.178,0.264c0.704,0,1.267-0.165,1.686-0.498
		c0.419-0.33,0.805-0.781,1.158-1.351l1.543,0.874c-0.446,0.825-1.058,1.467-1.836,1.92c-0.78,0.453-1.637,0.68-2.571,0.68
		c-0.731,0-1.385-0.129-1.96-0.387c-0.577-0.257-1.063-0.608-1.463-1.056c-0.399-0.446-0.705-0.976-0.925-1.584
		c-0.215-0.61-0.324-1.266-0.324-1.97c0-0.732,0.099-1.408,0.295-2.031s0.486-1.164,0.872-1.625c0.388-0.461,0.867-0.82,1.444-1.076
		c0.575-0.257,1.249-0.387,2.022-0.387c0.756,0,1.414,0.132,1.969,0.396c0.556,0.264,1.014,0.624,1.379,1.076
		c0.367,0.454,0.641,0.989,0.823,1.605c0.185,0.615,0.274,1.275,0.274,1.98v0.284H13.942z M19.365,43.385
		c-0.108-0.717-0.39-1.293-0.843-1.727c-0.453-0.433-1.046-0.649-1.775-0.649c-0.72,0-1.32,0.223-1.809,0.669
		c-0.488,0.447-0.787,1.015-0.896,1.707H19.365z"/>
	<path fill="#FFFFFF" d="M9.942,61.09v-1.724h-6.67l11.922-26.453h-1.92l-3.623,8.038c-0.949-1.105-2.34-1.822-3.907-1.822
		c-2.855,0-5.179,2.323-5.179,5.178c0,2.856,2.323,5.179,5.179,5.179c0.022,0,0.043-0.003,0.063-0.006L0.565,61.09H9.942z
		 M5.744,47.736c-1.891,0-3.429-1.538-3.429-3.429c0-1.89,1.538-3.428,3.429-3.428c1.366,0,2.54,0.809,3.09,1.968l-2.135,4.736
		C6.395,47.674,6.078,47.736,5.744,47.736z"/>
	<path fill="#FFFFFF" d="M19.442,51.471v1.14c-0.917-0.823-2.117-1.339-3.443-1.339c-2.855,0-5.179,2.322-5.179,5.178
		s2.323,5.18,5.179,5.18c1.326,0,2.526-0.517,3.443-1.34v0.805h1.75v-9.623H19.442z M15.999,59.879c-1.891,0-3.429-1.539-3.429-3.43
		s1.538-3.428,3.429-3.428s3.429,1.537,3.429,3.428S17.89,59.879,15.999,59.879z"/>
	<path fill="#FFFFFF" d="M69.716,29.39V0.79h3.5v25.1h28.535c0.129-0.05,0.262-0.09,0.39-0.145c1.387-0.598,2.607-1.418,3.663-2.462
		c1.057-1.043,1.891-2.271,2.501-3.683c0.61-1.412,0.916-2.944,0.916-4.599c0-1.577-0.281-3.073-0.84-4.484
		c-0.561-1.413-1.349-2.646-2.366-3.703c-1.019-1.056-2.232-1.895-3.646-2.519c-1.412-0.623-2.957-0.935-4.637-0.935
		s-3.226,0.312-4.638,0.935c-1.412,0.625-2.628,1.463-3.645,2.519c-1.019,1.056-1.808,2.29-2.366,3.703
		c-0.561,1.412-0.841,2.907-0.841,4.484c0,1.655,0.307,3.188,0.917,4.599c0.444,1.029,1.011,1.958,1.692,2.791h-4.302
		c-0.257-0.461-0.497-0.938-0.711-1.436c-0.789-1.832-1.184-3.816-1.184-5.954c0-2.061,0.4-4.001,1.202-5.82
		c0.801-1.82,1.883-3.41,3.244-4.771c1.36-1.361,2.958-2.437,4.789-3.226C93.725,0.396,95.671,0,97.732,0
		c2.061,0,4.008,0.396,5.839,1.184c1.832,0.789,3.429,1.864,4.791,3.226c1.36,1.361,2.442,2.951,3.244,4.771
		c0.801,1.818,1.202,3.759,1.202,5.82c0,2.138-0.395,4.123-1.184,5.954c-0.789,1.832-1.864,3.416-3.225,4.752
		c-1.361,1.335-2.958,2.385-4.791,3.149c-0.501,0.208-1.013,0.383-1.533,0.534H69.716z"/>
	<path fill="#FFFFFF" d="M126.385,29.39c0.955-0.431,1.844-1.012,2.651-1.762c1.905-1.767,2.87-3.937,2.87-6.45
		c0-2.503-0.966-4.662-2.87-6.416c-1.707-1.584-3.83-2.767-6.312-3.518c-1.374-0.599-2.455-1.255-3.211-1.945
		c-0.727-0.674-1.081-1.459-1.081-2.401c0-0.951,0.354-1.739,1.079-2.408c0.747-0.688,1.626-1.022,2.688-1.022
		c1.063,0,1.942,0.332,2.686,1.011c0.41,0.381,0.706,0.797,0.881,1.237l0.313,0.792l3.114-1.141l-0.278-0.81
		c-0.309-0.901-0.867-1.717-1.651-2.417c-1.403-1.289-3.106-1.942-5.064-1.942c-1.973,0-3.679,0.658-5.069,1.956
		c-1.408,1.313-2.123,2.91-2.123,4.745c0,1.871,0.715,3.482,2.125,4.791c1.321,1.226,3.128,2.199,5.315,2.874
		c1.676,0.637,3.104,1.496,4.245,2.555c1.229,1.14,1.826,2.469,1.826,4.062c0,1.604-0.598,2.938-1.826,4.079
		c-1.248,1.158-2.718,1.72-4.493,1.72c-1.764,0-3.227-0.562-4.475-1.721c-0.886-0.822-2.107-2.698-2.296-4.266
		c-0.143,0.451-0.304,0.894-0.49,1.328c-0.425,0.987-0.94,1.896-1.531,2.739c0.471,0.923,1.118,1.778,1.951,2.551
		c0.812,0.759,1.692,1.377,2.668,1.781C119.956,30.19,122.999,30.718,126.385,29.39z"/>
	<path fill="#FFFFFF" d="M64.948,14.392c0.597-0.712,1.062-1.527,1.393-2.442c0.33-0.916,0.495-1.896,0.495-2.94
		c0-1.374-0.323-2.684-0.973-3.931c-0.648-1.246-1.583-2.226-2.806-2.939c-1.145-0.636-2.379-1.017-3.701-1.146
		c-1.324-0.126-2.621-0.19-3.893-0.19h-4.398l-0.013,28.563h3.513V17.407h1.622c0,0,0.729-0.039,1.579-0.104l8.449,12.087v-6.02
		l-4.848-6.638c0.492-0.144,0.963-0.322,1.404-0.566C63.625,15.696,64.35,15.105,64.948,14.392z M61.017,13.514
		c-0.726,0.382-1.54,0.631-2.443,0.745c-0.903,0.114-1.812,0.172-2.729,0.172h-1.279V4.011h1.088c0.891,0,1.801,0.058,2.729,0.171
		c0.929,0.114,1.768,0.356,2.52,0.725c0.75,0.37,1.366,0.892,1.851,1.565c0.483,0.674,0.725,1.572,0.725,2.691
		c0,1.145-0.229,2.062-0.687,2.748C62.333,12.598,61.741,13.132,61.017,13.514z"/>
	<path fill="#FFFFFF" d="M34.915,0.79h-1.348l-8.977,19.914c-2.65,5.846-8.117,5.718-8.338,5.711l-0.104-0.003
		C9.493,26.412,4.079,21.292,4.079,15c0-6.292,5.414-11.412,12.069-11.412c2.188,0,4.331,0.559,6.195,1.617
		c0.404,0.229,0.783,0.485,1.15,0.75l1.465-3.25c-0.289-0.19-0.585-0.373-0.889-0.545c-2.39-1.355-5.13-2.072-7.922-2.072
		C7.563,0.089,0.579,6.778,0.579,15c0,8.206,6.958,14.885,15.52,14.911c0.132,0.007,0.27,0.01,0.414,0.01
		c3.037,0,8.704-1.595,11.283-7.818h13.048l3.283,7.286h3.856L34.915,0.79z M29.119,18.819l5.117-11.646l5.117,11.646H29.119z"/>
</g>
</svg>
