<?xml version="1.0" encoding="utf-8"?>
<!-- Generator: Adobe Illustrator 16.0.0, SVG Export Plug-In . SVG Version: 6.00 Build 0)  -->
<!DOCTYPE svg PUBLIC "-//W3C//DTD SVG 1.1//EN" "http://www.w3.org/Graphics/SVG/1.1/DTD/svg11.dtd">
<svg version="1.1" id="Layer_1" xmlns="http://www.w3.org/2000/svg" xmlns:xlink="http://www.w3.org/1999/xlink" x="0px" y="0px"
	 width="134.243px" height="77.194px" viewBox="0 0 134.243 77.194" enable-background="new 0 0 134.243 77.194"
	 xml:space="preserve">
<g>
	<path fill="#FFFFFF" d="M0,67.067h1.769c0.354,0,0.695,0.018,1.021,0.052c0.324,0.035,0.637,0.098,0.936,0.188
		s0.587,0.217,0.864,0.377s0.551,0.366,0.819,0.617c0.521,0.486,0.91,1.045,1.17,1.678s0.391,1.3,0.391,2.002
		c0,0.676-0.129,1.323-0.384,1.943c-0.256,0.619-0.631,1.168-1.125,1.645c-0.537,0.52-1.104,0.866-1.703,1.04
		c-0.598,0.173-1.261,0.26-1.988,0.26H0V67.067z M1.755,76.284c0.642,0,1.233-0.082,1.774-0.247
		c0.542-0.164,1.047-0.477,1.515-0.936c0.416-0.416,0.737-0.893,0.962-1.431c0.226-0.537,0.339-1.101,0.339-1.689
		c0-0.624-0.12-1.218-0.358-1.781s-0.591-1.058-1.059-1.482c-0.469-0.424-0.96-0.708-1.476-0.852
		c-0.517-0.143-1.082-0.214-1.697-0.214H0.624v8.632H1.755z"/>
	<path fill="#FFFFFF" d="M9.1,67.652v3.562h3.952v0.585H9.1v4.485h4.057v0.585H8.476v-9.802h4.681v0.585H9.1z"/>
	<path fill="#FFFFFF" d="M17.614,75.439h0.026l2.899-8.372h0.624l-3.562,10.127l-3.522-10.127h0.624L17.614,75.439z"/>
	<path fill="#FFFFFF" d="M22.905,67.652v3.562h3.952v0.585h-3.952v4.485h4.057v0.585h-4.681v-9.802h4.681v0.585H22.905z"/>
	<path fill="#FFFFFF" d="M29.496,76.284h2.496v0.585h-3.12v-9.802h0.624V76.284z"/>
	<path fill="#FFFFFF" d="M37.621,66.937c0.685,0,1.337,0.132,1.957,0.396c0.619,0.264,1.159,0.626,1.618,1.085
		c0.459,0.46,0.825,0.995,1.099,1.605c0.272,0.611,0.409,1.259,0.409,1.943c0,0.693-0.137,1.344-0.409,1.95
		c-0.273,0.606-0.64,1.14-1.099,1.6c-0.459,0.459-0.999,0.82-1.618,1.085c-0.62,0.265-1.272,0.396-1.957,0.396
		c-0.693,0-1.348-0.132-1.963-0.396s-1.152-0.626-1.612-1.085c-0.459-0.46-0.825-0.993-1.098-1.6c-0.273-0.606-0.41-1.257-0.41-1.95
		c0-0.685,0.135-1.332,0.403-1.943c0.269-0.61,0.635-1.146,1.099-1.605c0.463-0.459,1.003-0.821,1.618-1.085
		C36.273,67.069,36.928,66.937,37.621,66.937z M37.621,67.522c-0.615,0-1.191,0.119-1.729,0.357
		c-0.538,0.238-1.01,0.559-1.417,0.962c-0.408,0.403-0.729,0.873-0.962,1.41c-0.234,0.538-0.352,1.109-0.352,1.716
		c0,0.607,0.117,1.179,0.352,1.717c0.233,0.537,0.554,1.007,0.962,1.41c0.407,0.403,0.879,0.724,1.417,0.962
		c0.537,0.238,1.113,0.357,1.729,0.357c0.606,0,1.181-0.119,1.723-0.357s1.014-0.559,1.417-0.962s0.724-0.875,0.962-1.417
		s0.357-1.111,0.357-1.71c0-0.606-0.119-1.178-0.357-1.716c-0.238-0.537-0.559-1.007-0.962-1.41s-0.875-0.724-1.417-0.962
		S38.228,67.522,37.621,67.522z"/>
	<path fill="#FFFFFF" d="M44.85,76.869h-0.624v-9.802h1.729c0.39,0,0.765,0.03,1.124,0.091s0.691,0.221,0.995,0.48
		c0.303,0.252,0.526,0.553,0.669,0.904c0.144,0.351,0.215,0.721,0.215,1.111c0,0.355-0.067,0.711-0.201,1.065
		c-0.135,0.355-0.341,0.646-0.618,0.871c-0.304,0.261-0.646,0.43-1.026,0.507c-0.382,0.078-0.768,0.117-1.157,0.117H44.85V76.869z
		 M45.98,71.629c0.321,0,0.624-0.032,0.91-0.098c0.286-0.064,0.555-0.21,0.807-0.436c0.424-0.39,0.637-0.879,0.637-1.469
		c0-0.303-0.061-0.598-0.183-0.884c-0.121-0.286-0.308-0.52-0.559-0.702c-0.251-0.19-0.524-0.303-0.819-0.338
		c-0.294-0.034-0.594-0.052-0.896-0.052H44.85v3.978H45.98z"/>
	<path fill="#FFFFFF" d="M50.985,67.652v3.562h3.952v0.585h-3.952v4.485h4.057v0.585h-4.681v-9.802h4.681v0.585H50.985z"/>
	<path fill="#FFFFFF" d="M61.802,76.869h-0.716l-3.197-4.641h-0.312v4.641h-0.624v-9.802h1.223c0.398,0,0.788,0.021,1.17,0.064
		c0.381,0.044,0.736,0.187,1.065,0.43c0.355,0.251,0.609,0.561,0.761,0.929c0.151,0.369,0.228,0.761,0.228,1.177
		c0,0.425-0.069,0.8-0.208,1.125c-0.139,0.324-0.334,0.594-0.585,0.806c-0.252,0.213-0.548,0.373-0.891,0.481
		s-0.717,0.158-1.124,0.149L61.802,76.869z M58.369,71.643c0.304,0,0.603-0.021,0.897-0.065c0.294-0.043,0.567-0.173,0.818-0.39
		c0.234-0.19,0.408-0.423,0.521-0.696c0.112-0.272,0.169-0.557,0.169-0.851c0-0.364-0.085-0.711-0.254-1.04
		c-0.169-0.33-0.431-0.572-0.786-0.729c-0.26-0.121-0.546-0.188-0.858-0.201c-0.312-0.014-0.61-0.02-0.896-0.02h-0.403v3.991H58.369
		z"/>
</g>
<g>
	<path fill="#FFFFFF" d="M76.264,67.067h1.769c0.354,0,0.695,0.017,1.021,0.052c0.324,0.035,0.637,0.098,0.936,0.188
		s0.587,0.217,0.864,0.377c0.277,0.161,0.551,0.366,0.819,0.618c0.521,0.484,0.91,1.044,1.17,1.676
		c0.26,0.633,0.391,1.301,0.391,2.002c0,0.677-0.129,1.324-0.384,1.944c-0.256,0.62-0.631,1.168-1.125,1.645
		c-0.537,0.521-1.104,0.866-1.703,1.04c-0.598,0.174-1.261,0.26-1.988,0.26h-1.769V67.067z M78.019,76.284
		c0.642,0,1.233-0.083,1.774-0.247c0.542-0.164,1.047-0.477,1.515-0.936c0.416-0.416,0.737-0.893,0.962-1.431
		c0.226-0.537,0.339-1.101,0.339-1.69c0-0.623-0.12-1.217-0.358-1.78s-0.591-1.058-1.059-1.481c-0.469-0.426-0.96-0.709-1.476-0.852
		c-0.517-0.144-1.082-0.215-1.697-0.215h-1.131v8.632H78.019z"/>
	<path fill="#FFFFFF" d="M85.363,67.652v3.562h3.952v0.584h-3.952v4.485h4.057v0.585h-4.681v-9.802h4.681v0.585H85.363z"/>
	<path fill="#FFFFFF" d="M95.867,68.679c-0.226-0.355-0.496-0.638-0.812-0.846s-0.708-0.312-1.177-0.312
		c-0.26,0-0.502,0.051-0.728,0.15s-0.421,0.234-0.585,0.402c-0.165,0.17-0.295,0.367-0.39,0.592
		c-0.096,0.226-0.144,0.469-0.144,0.729s0.054,0.482,0.163,0.669c0.107,0.187,0.249,0.351,0.422,0.494
		c0.174,0.144,0.364,0.267,0.572,0.37c0.208,0.104,0.411,0.204,0.611,0.299l1.871,0.976c0.373,0.233,0.652,0.507,0.839,0.819
		c0.187,0.312,0.279,0.688,0.279,1.131c0,0.407-0.084,0.784-0.253,1.131s-0.396,0.648-0.683,0.903
		c-0.286,0.256-0.613,0.455-0.981,0.599c-0.369,0.143-0.752,0.214-1.15,0.214c-0.685,0-1.281-0.192-1.788-0.579
		c-0.507-0.385-0.873-0.895-1.099-1.527l0.547-0.246c0.208,0.52,0.504,0.944,0.89,1.273c0.386,0.33,0.878,0.494,1.476,0.494
		c0.321,0,0.629-0.059,0.923-0.176c0.295-0.117,0.553-0.279,0.774-0.487c0.221-0.208,0.396-0.452,0.526-0.734
		c0.13-0.281,0.194-0.587,0.194-0.917c0-0.277-0.062-0.518-0.188-0.721c-0.125-0.203-0.286-0.381-0.48-0.533
		c-0.195-0.151-0.41-0.286-0.644-0.402c-0.234-0.117-0.455-0.229-0.663-0.332l-1.769-0.936c-0.329-0.199-0.58-0.445-0.754-0.735
		c-0.173-0.29-0.26-0.63-0.26-1.021c0-0.363,0.062-0.697,0.188-1.001s0.299-0.565,0.521-0.786c0.221-0.221,0.485-0.393,0.793-0.514
		s0.644-0.182,1.007-0.182c0.494,0,0.958,0.123,1.392,0.37c0.433,0.247,0.767,0.583,1.001,1.007L95.867,68.679z"/>
	<path fill="#FFFFFF" d="M99.026,76.869h-0.624v-9.802h0.624V76.869z"/>
	<path fill="#FFFFFF" d="M110.323,72.15c0.009,0.312,0,0.611-0.026,0.896c-0.025,0.286-0.076,0.566-0.149,0.839
		s-0.18,0.538-0.318,0.793c-0.139,0.256-0.316,0.501-0.533,0.734c-0.468,0.512-1.031,0.903-1.689,1.177
		c-0.659,0.273-1.335,0.409-2.028,0.409c-0.676,0-1.319-0.132-1.931-0.396s-1.146-0.624-1.605-1.079s-0.823-0.985-1.092-1.592
		c-0.269-0.607-0.403-1.248-0.403-1.924c0-0.703,0.135-1.361,0.403-1.977s0.635-1.152,1.099-1.612
		c0.463-0.459,1.005-0.821,1.625-1.085c0.619-0.265,1.28-0.396,1.982-0.396c0.893,0,1.694,0.205,2.405,0.617
		c0.71,0.412,1.325,0.969,1.846,1.67l-0.507,0.403c-0.442-0.649-0.984-1.163-1.625-1.54c-0.642-0.377-1.361-0.566-2.158-0.566
		c-0.598,0-1.166,0.122-1.703,0.365c-0.537,0.242-1.01,0.567-1.417,0.975s-0.73,0.879-0.969,1.417
		c-0.238,0.537-0.357,1.101-0.357,1.69c0,0.605,0.117,1.178,0.352,1.715c0.233,0.538,0.552,1.008,0.955,1.411
		s0.873,0.724,1.41,0.962c0.538,0.238,1.114,0.357,1.729,0.357c0.528,0,1.04-0.098,1.534-0.293c0.494-0.194,0.944-0.457,1.352-0.786
		c0.425-0.364,0.726-0.754,0.903-1.17s0.275-0.893,0.293-1.43h-3.51V72.15H110.323z"/>
	<path fill="#FFFFFF" d="M120.697,77.194l-8.229-8.749v8.424h-0.624v-9.932l8.229,8.684v-8.554h0.624V77.194z"/>
	<path fill="#FFFFFF" d="M123.427,67.652v3.562h3.952v0.584h-3.952v4.485h4.057v0.585h-4.681v-9.802h4.681v0.585H123.427z"/>
	<path fill="#FFFFFF" d="M134.243,76.869h-0.716l-3.197-4.641h-0.312v4.641h-0.624v-9.802h1.223c0.398,0,0.788,0.021,1.17,0.065
		c0.381,0.043,0.736,0.186,1.065,0.428c0.355,0.252,0.609,0.562,0.761,0.93c0.151,0.369,0.228,0.761,0.228,1.177
		c0,0.425-0.069,0.8-0.208,1.124c-0.139,0.326-0.334,0.594-0.585,0.807c-0.252,0.213-0.548,0.373-0.891,0.48
		c-0.343,0.109-0.717,0.158-1.124,0.15L134.243,76.869z M130.811,71.642c0.304,0,0.603-0.021,0.897-0.064
		c0.294-0.043,0.567-0.174,0.818-0.391c0.234-0.189,0.408-0.422,0.521-0.695c0.112-0.272,0.169-0.557,0.169-0.852
		c0-0.363-0.085-0.71-0.254-1.039c-0.169-0.33-0.431-0.572-0.786-0.729c-0.26-0.121-0.546-0.188-0.858-0.201
		c-0.312-0.014-0.61-0.02-0.896-0.02h-0.403v3.99H130.811z"/>
</g>
<path fill="#FFFFFF" d="M48.259,61.093h-3.5V32.89h3.5V61.093z"/>
<path fill="#FFFFFF" d="M51.759,32.89h15.149v3.217H55.274V44h11.297v3.217H55.274v10.66h11.634v3.217H51.759V32.89z"/>
<g id="new_RR_1_">
	<path fill="#FFFFFF" d="M84.305,46.5c0.597-0.712,1.062-1.526,1.393-2.442c0.33-0.916,0.495-1.896,0.495-2.94
		c0-1.374-0.323-2.684-0.973-3.931c-0.648-1.246-1.583-2.226-2.806-2.939c-1.145-0.636-2.379-1.017-3.701-1.146
		c-1.324-0.126-2.621-0.19-3.893-0.19h-4.398l-0.013,28.176h3.513V49.515h1.622c0,0,0.729-0.038,1.579-0.104l8.164,11.678h4.476
		l-9.038-12.248c0.492-0.145,0.963-0.322,1.404-0.566C82.981,47.804,83.706,47.213,84.305,46.5z M80.373,45.623
		c-0.726,0.382-1.54,0.631-2.443,0.744c-0.903,0.114-1.812,0.172-2.729,0.172h-1.279V36.119h1.088c0.891,0,1.801,0.058,2.729,0.171
		c0.929,0.114,1.768,0.356,2.52,0.725c0.75,0.37,1.366,0.892,1.851,1.565c0.483,0.674,0.725,1.572,0.725,2.691
		c0,1.145-0.229,2.062-0.687,2.748C81.689,44.707,81.098,45.241,80.373,45.623z"/>
	<path fill="#FFFFFF" d="M104.086,46.5c0.597-0.712,1.062-1.526,1.393-2.442c0.33-0.916,0.495-1.896,0.495-2.94
		c0-1.374-0.323-2.684-0.973-3.931c-0.648-1.246-1.583-2.226-2.806-2.939c-1.145-0.636-2.379-1.017-3.701-1.146
		c-1.324-0.126-2.621-0.19-3.893-0.19h-4.398L90.19,61.089h3.513V49.515h1.622c0,0,0.729-0.038,1.579-0.104l8.164,11.678h4.476
		l-9.038-12.248c0.492-0.145,0.963-0.322,1.404-0.566C102.763,47.804,103.487,47.213,104.086,46.5z M100.154,45.623
		c-0.726,0.382-1.54,0.631-2.443,0.744c-0.903,0.114-1.812,0.172-2.729,0.172h-1.279V36.119h1.088c0.891,0,1.801,0.058,2.729,0.171
		c0.929,0.114,1.768,0.356,2.52,0.725c0.75,0.37,1.366,0.892,1.851,1.565c0.483,0.674,0.725,1.572,0.725,2.691
		c0,1.145-0.229,2.062-0.687,2.748C101.471,44.707,100.879,45.241,100.154,45.623z"/>
</g>
<path fill="#FFFFFF" d="M39.962,46.56c-1.657-1.537-3.72-2.687-6.13-3.416c-1.334-0.581-2.383-1.218-3.116-1.888
	c-0.706-0.655-1.05-1.417-1.05-2.332c0-0.924,0.343-1.688,1.047-2.338c0.726-0.668,1.579-0.993,2.609-0.993
	c1.032,0,1.887,0.323,2.607,0.982c0.398,0.37,0.686,0.774,0.855,1.201l0.305,0.769l3.023-1.108l-0.271-0.787
	c-0.3-0.875-0.842-1.667-1.604-2.347c-1.362-1.251-3.016-1.886-4.917-1.886c-1.915,0-3.571,0.639-4.922,1.898
	c-1.367,1.275-2.061,2.825-2.061,4.607c0,1.816,0.693,3.382,2.062,4.651c1.283,1.189,3.037,2.135,5.161,2.789
	c1.627,0.619,3.013,1.453,4.121,2.48c1.193,1.107,1.773,2.397,1.773,3.943c0,1.559-0.58,2.854-1.773,3.961
	c-1.211,1.123-2.638,1.67-4.362,1.67c-1.712,0-3.133-0.547-4.344-1.671c-1.026-0.952-1.597-2.026-1.742-3.285l-0.122-1.042
	l-3.213,1.086l0.114,0.709c0.295,1.829,1.193,3.45,2.665,4.816c1.832,1.711,4.066,2.578,6.642,2.578s4.809-0.861,6.64-2.56
	c1.849-1.716,2.786-3.822,2.786-6.263C42.748,50.359,41.811,48.263,39.962,46.56z"/>
<path fill="#FFFFFF" d="M120.884,32.89h-1.1l-12.916,28.202h3.777l3.216-7.07h12.944l3.216,7.07h3.778L120.884,32.89z
	 M115.321,50.804l5.013-11.409l5.012,11.409H115.321z"/>
<path fill="#FFFFFF" d="M13.636,44.767c0,0.405,0.068,0.798,0.201,1.178c0.138,0.379,0.33,0.714,0.581,1.004
	c0.25,0.292,0.551,0.525,0.903,0.701c0.351,0.176,0.743,0.264,1.178,0.264c0.704,0,1.267-0.164,1.686-0.498
	c0.419-0.33,0.805-0.781,1.158-1.35l1.543,0.873c-0.446,0.826-1.058,1.467-1.836,1.92c-0.78,0.453-1.637,0.681-2.571,0.681
	c-0.731,0-1.385-0.13-1.96-0.387c-0.577-0.257-1.063-0.608-1.463-1.056s-0.705-0.976-0.925-1.584
	c-0.215-0.61-0.324-1.266-0.324-1.971c0-0.731,0.099-1.408,0.295-2.031s0.486-1.164,0.872-1.625c0.388-0.461,0.867-0.82,1.444-1.076
	c0.575-0.257,1.249-0.387,2.022-0.387c0.756,0,1.414,0.132,1.969,0.396c0.556,0.264,1.014,0.624,1.379,1.076
	c0.367,0.454,0.641,0.989,0.823,1.605c0.185,0.615,0.274,1.275,0.274,1.98v0.285H13.636z M19.059,43.385
	c-0.108-0.718-0.39-1.294-0.843-1.727c-0.453-0.433-1.046-0.649-1.775-0.649c-0.72,0-1.32,0.223-1.809,0.669
	s-0.787,1.016-0.896,1.707H19.059z"/>
<path fill="#FFFFFF" d="M9.636,61.089v-1.723h-6.67l11.922-26.454h-1.92l-3.623,8.038c-0.949-1.105-2.34-1.822-3.907-1.822
	c-2.855,0-5.179,2.323-5.179,5.179c0,2.855,2.323,5.179,5.179,5.179c0.022,0,0.043-0.003,0.063-0.007L0.259,61.089H9.636z
	 M5.438,47.737c-1.891,0-3.429-1.538-3.429-3.429s1.538-3.429,3.429-3.429c1.366,0,2.54,0.809,3.09,1.969l-2.135,4.736
	C6.088,47.673,5.771,47.737,5.438,47.737z"/>
<path fill="#FFFFFF" d="M19.136,51.47v1.141c-0.917-0.824-2.117-1.34-3.443-1.34c-2.855,0-5.179,2.322-5.179,5.178
	c0,2.856,2.323,5.18,5.179,5.18c1.326,0,2.526-0.516,3.443-1.34v0.805h1.75V51.47H19.136z M15.692,59.878
	c-1.891,0-3.429-1.539-3.429-3.43c0-1.89,1.538-3.428,3.429-3.428s3.429,1.538,3.429,3.428
	C19.121,58.339,17.583,59.878,15.692,59.878z"/>
<g>
	<path fill="#FFFFFF" d="M70.879,75.244c-0.277,0.234-0.562,0.459-0.852,0.676s-0.587,0.41-0.891,0.578
		c-0.303,0.17-0.61,0.307-0.923,0.41c-0.312,0.104-0.628,0.156-0.949,0.156c-0.363,0-0.702-0.07-1.014-0.209
		c-0.312-0.138-0.583-0.324-0.812-0.559s-0.409-0.507-0.539-0.818c-0.131-0.312-0.195-0.646-0.195-1.002
		c0-0.424,0.093-0.81,0.279-1.156s0.423-0.663,0.709-0.949c0.285-0.286,0.604-0.548,0.955-0.787
		c0.351-0.238,0.695-0.461,1.033-0.669c-0.112-0.155-0.229-0.316-0.351-0.481c-0.121-0.164-0.232-0.336-0.332-0.514
		c-0.1-0.177-0.182-0.361-0.246-0.552c-0.065-0.19-0.098-0.39-0.098-0.599c0-0.26,0.052-0.504,0.155-0.734
		c0.104-0.229,0.243-0.429,0.416-0.598c0.174-0.169,0.375-0.303,0.604-0.402s0.475-0.15,0.735-0.15c0.251,0,0.484,0.049,0.701,0.144
		s0.405,0.226,0.565,0.39c0.161,0.165,0.286,0.357,0.377,0.578c0.092,0.222,0.137,0.458,0.137,0.709
		c0,0.277-0.052,0.529-0.155,0.754c-0.104,0.226-0.241,0.436-0.41,0.631s-0.364,0.375-0.585,0.539
		c-0.221,0.165-0.448,0.33-0.683,0.494l2.418,3.303l1.248-1.365l0.481,0.26l-1.365,1.561l1.495,1.988h-0.676L70.879,75.244z
		 M67.421,71.825c-0.234,0.147-0.475,0.308-0.722,0.481c-0.247,0.173-0.473,0.363-0.676,0.571c-0.204,0.208-0.37,0.438-0.5,0.689
		c-0.131,0.251-0.195,0.532-0.195,0.845c0,0.277,0.048,0.542,0.143,0.793c0.096,0.252,0.228,0.471,0.396,0.656
		c0.169,0.188,0.373,0.336,0.611,0.449c0.238,0.112,0.5,0.168,0.786,0.168s0.574-0.053,0.865-0.162
		c0.29-0.107,0.573-0.246,0.852-0.416c0.276-0.169,0.546-0.355,0.806-0.559s0.502-0.4,0.728-0.592l-2.47-3.341L67.421,71.825z
		 M68.526,67.47c-0.183,0-0.35,0.039-0.501,0.116c-0.151,0.078-0.281,0.181-0.39,0.306c-0.108,0.126-0.195,0.271-0.261,0.436
		c-0.064,0.164-0.097,0.334-0.097,0.507c0,0.174,0.027,0.339,0.084,0.494c0.057,0.156,0.128,0.308,0.215,0.455
		c0.086,0.147,0.182,0.29,0.286,0.429c0.104,0.139,0.199,0.282,0.286,0.43c0.173-0.139,0.353-0.271,0.539-0.396
		c0.187-0.126,0.355-0.263,0.507-0.41c0.151-0.146,0.277-0.312,0.377-0.494s0.149-0.398,0.149-0.649c0-0.165-0.03-0.321-0.091-0.468
		c-0.061-0.148-0.146-0.277-0.253-0.391c-0.109-0.112-0.236-0.201-0.384-0.266C68.847,67.501,68.69,67.47,68.526,67.47z"/>
</g>
<path fill="#FFFFFF" d="M70.409,29.39V0.79h3.5v25.1h28.535c0.129-0.05,0.262-0.09,0.39-0.145c1.387-0.598,2.607-1.418,3.663-2.462
	c1.057-1.043,1.891-2.271,2.501-3.683c0.61-1.412,0.916-2.944,0.916-4.599c0-1.577-0.281-3.073-0.84-4.484
	c-0.561-1.413-1.349-2.646-2.366-3.703c-1.019-1.056-2.232-1.895-3.646-2.519c-1.412-0.623-2.957-0.935-4.637-0.935
	S95.2,3.671,93.788,4.294c-1.412,0.625-2.628,1.463-3.645,2.519c-1.019,1.056-1.808,2.29-2.366,3.703
	c-0.561,1.412-0.841,2.907-0.841,4.484c0,1.655,0.307,3.188,0.917,4.599c0.444,1.029,1.011,1.958,1.692,2.791h-4.302
	c-0.257-0.461-0.497-0.938-0.711-1.436C83.744,19.123,83.35,17.138,83.35,15c0-2.061,0.4-4.001,1.202-5.82
	c0.801-1.82,1.883-3.41,3.244-4.771c1.36-1.361,2.958-2.437,4.789-3.226C94.418,0.396,96.364,0,98.426,0
	c2.061,0,4.008,0.396,5.839,1.184c1.832,0.789,3.429,1.864,4.791,3.226c1.36,1.361,2.442,2.951,3.244,4.771
	c0.801,1.818,1.202,3.759,1.202,5.82c0,2.138-0.395,4.123-1.184,5.954c-0.789,1.832-1.864,3.416-3.225,4.752
	c-1.361,1.335-2.958,2.385-4.791,3.149c-0.501,0.208-1.013,0.383-1.533,0.534H70.409z"/>
<path fill="#FFFFFF" d="M127.078,29.39c0.955-0.431,1.844-1.012,2.651-1.762c1.905-1.767,2.87-3.937,2.87-6.45
	c0-2.503-0.966-4.662-2.87-6.416c-1.707-1.584-3.83-2.767-6.312-3.518c-1.374-0.599-2.455-1.255-3.211-1.945
	c-0.727-0.674-1.081-1.459-1.081-2.401c0-0.951,0.354-1.739,1.079-2.408c0.747-0.688,1.626-1.022,2.688-1.022
	c1.063,0,1.942,0.332,2.686,1.011c0.41,0.381,0.706,0.797,0.881,1.237l0.313,0.792l3.114-1.141l-0.278-0.81
	c-0.309-0.901-0.867-1.717-1.651-2.417c-1.403-1.289-3.106-1.942-5.064-1.942c-1.973,0-3.679,0.658-5.069,1.956
	c-1.408,1.313-2.123,2.91-2.123,4.745c0,1.871,0.715,3.482,2.125,4.791c1.321,1.226,3.128,2.199,5.315,2.874
	c1.676,0.637,3.104,1.496,4.245,2.555c1.229,1.14,1.826,2.469,1.826,4.062c0,1.604-0.598,2.938-1.826,4.079
	c-1.248,1.158-2.718,1.72-4.493,1.72c-1.764,0-3.227-0.562-4.475-1.721c-0.886-0.822-2.107-2.698-2.296-4.266
	c-0.143,0.451-0.304,0.894-0.49,1.328c-0.425,0.987-0.94,1.896-1.531,2.739c0.471,0.923,1.118,1.778,1.951,2.551
	c0.812,0.759,1.692,1.377,2.668,1.781C120.649,30.19,123.692,30.718,127.078,29.39z"/>
<path fill="#FFFFFF" d="M65.642,14.392c0.597-0.712,1.062-1.527,1.393-2.442c0.33-0.916,0.495-1.896,0.495-2.94
	c0-1.374-0.323-2.684-0.973-3.931c-0.648-1.246-1.583-2.226-2.806-2.939c-1.145-0.636-2.379-1.017-3.701-1.146
	c-1.324-0.126-2.621-0.19-3.893-0.19h-4.398l-0.013,28.563h3.513V17.407h1.622c0,0,0.729-0.039,1.579-0.104l8.449,12.087v-6.02
	l-4.848-6.638c0.492-0.144,0.963-0.322,1.404-0.566C64.318,15.696,65.043,15.105,65.642,14.392z M61.71,13.514
	c-0.726,0.382-1.54,0.631-2.443,0.745c-0.903,0.114-1.812,0.172-2.729,0.172h-1.279V4.011h1.088c0.891,0,1.801,0.058,2.729,0.171
	c0.929,0.114,1.768,0.356,2.52,0.725c0.75,0.37,1.366,0.892,1.851,1.565c0.483,0.674,0.725,1.572,0.725,2.691
	c0,1.145-0.229,2.062-0.687,2.748C63.026,12.598,62.435,13.132,61.71,13.514z"/>
<path fill="#FFFFFF" d="M35.608,0.79h-1.348l-8.977,19.914c-2.65,5.846-8.117,5.718-8.338,5.711l-0.104-0.003
	c-6.655,0-12.069-5.119-12.069-11.411c0-6.292,5.414-11.412,12.069-11.412c2.188,0,4.331,0.559,6.195,1.617
	c0.404,0.229,0.783,0.485,1.15,0.75l1.465-3.25c-0.289-0.19-0.585-0.373-0.889-0.545c-2.39-1.355-5.13-2.072-7.922-2.072
	C8.257,0.089,1.272,6.778,1.272,15c0,8.206,6.958,14.885,15.52,14.911c0.132,0.007,0.27,0.01,0.414,0.01
	c3.037,0,8.704-1.595,11.283-7.818h13.048l3.283,7.286h3.856L35.608,0.79z M29.812,18.819L34.93,7.172l5.117,11.646H29.812z"/>
</svg>
