<?xml version="1.0" encoding="utf-8"?>
<!-- Generator: Adobe Illustrator 16.0.0, SVG Export Plug-In . SVG Version: 6.00 Build 0)  -->
<!DOCTYPE svg PUBLIC "-//W3C//DTD SVG 1.1//EN" "http://www.w3.org/Graphics/SVG/1.1/DTD/svg11.dtd">
<svg version="1.1" id="Layer_1" xmlns="http://www.w3.org/2000/svg" xmlns:xlink="http://www.w3.org/1999/xlink" x="0px" y="0px"
	 width="132.541px" height="61.629px" viewBox="0 0 132.541 61.629" enable-background="new 0 0 132.541 61.629"
	 xml:space="preserve">
<path fill="#FFFFFF" d="M47,61.094h-3.5V32.89H47V61.094z"/>
<path fill="#FFFFFF" d="M50.5,32.89h15.149v3.217H54.016v7.893h11.297v3.217H54.016v10.661h11.634v3.217H50.5V32.89z"/>
<g id="new_RR">
	<path fill="#FFFFFF" d="M83.046,46.5c0.597-0.712,1.062-1.526,1.393-2.441c0.33-0.916,0.495-1.896,0.495-2.94
		c0-1.374-0.323-2.684-0.973-3.931c-0.648-1.246-1.583-2.227-2.806-2.939c-1.145-0.636-2.379-1.017-3.701-1.145
		c-1.324-0.127-2.621-0.19-3.893-0.19h-4.398L69.15,61.09h3.513V49.516h1.622c0,0,0.729-0.039,1.579-0.104l8.164,11.679h4.476
		l-9.038-12.249c0.492-0.144,0.963-0.321,1.404-0.565C81.723,47.805,82.447,47.213,83.046,46.5z M79.114,45.622
		c-0.726,0.382-1.54,0.631-2.443,0.745c-0.903,0.113-1.812,0.172-2.729,0.172h-1.279v-10.42h1.088c0.891,0,1.801,0.058,2.729,0.172
		c0.929,0.113,1.768,0.355,2.52,0.725c0.75,0.369,1.366,0.891,1.851,1.564c0.483,0.675,0.725,1.572,0.725,2.691
		c0,1.145-0.229,2.062-0.687,2.748C80.431,44.707,79.839,45.24,79.114,45.622z"/>
	<path fill="#FFFFFF" d="M102.827,46.5c0.597-0.712,1.062-1.526,1.393-2.441c0.33-0.916,0.495-1.896,0.495-2.94
		c0-1.374-0.323-2.684-0.973-3.931c-0.648-1.246-1.583-2.227-2.806-2.939c-1.145-0.636-2.379-1.017-3.701-1.145
		c-1.324-0.127-2.621-0.19-3.893-0.19h-4.398L88.932,61.09h3.513V49.516h1.622c0,0,0.729-0.039,1.579-0.104l8.164,11.679h4.476
		l-9.038-12.249c0.492-0.144,0.963-0.321,1.404-0.565C101.504,47.805,102.229,47.213,102.827,46.5z M98.896,45.622
		c-0.726,0.382-1.54,0.631-2.443,0.745c-0.903,0.113-1.812,0.172-2.729,0.172h-1.279v-10.42h1.088c0.891,0,1.801,0.058,2.729,0.172
		c0.929,0.113,1.768,0.355,2.52,0.725c0.75,0.369,1.366,0.891,1.851,1.564c0.483,0.675,0.725,1.572,0.725,2.691
		c0,1.145-0.229,2.062-0.687,2.748C100.212,44.707,99.62,45.24,98.896,45.622z"/>
</g>
<path fill="#FFFFFF" d="M38.721,46.537c-1.657-1.537-3.72-2.687-6.13-3.416c-1.334-0.581-2.383-1.218-3.116-1.889
	c-0.706-0.654-1.05-1.416-1.05-2.331c0-0.924,0.343-1.688,1.047-2.338c0.726-0.668,1.579-0.993,2.609-0.993
	c1.032,0,1.887,0.323,2.607,0.982c0.398,0.37,0.686,0.774,0.855,1.201l0.305,0.77l3.023-1.108l-0.271-0.786
	c-0.3-0.875-0.842-1.668-1.604-2.348c-1.362-1.252-3.016-1.886-4.917-1.886c-1.915,0-3.571,0.64-4.922,1.898
	c-1.367,1.275-2.061,2.825-2.061,4.607c0,1.815,0.693,3.382,2.062,4.651c1.283,1.189,3.037,2.135,5.161,2.789
	c1.627,0.619,3.013,1.453,4.121,2.48c1.193,1.107,1.773,2.397,1.773,3.943c0,1.559-0.58,2.854-1.773,3.961
	c-1.211,1.123-2.638,1.67-4.362,1.67c-1.712,0-3.133-0.547-4.344-1.671c-1.026-0.952-1.597-2.026-1.742-3.285l-0.122-1.042
	l-3.213,1.086l0.114,0.709c0.295,1.829,1.193,3.45,2.665,4.816c1.832,1.711,4.066,2.578,6.642,2.578s4.809-0.861,6.64-2.56
	c1.849-1.716,2.786-3.822,2.786-6.263C41.507,50.336,40.569,48.24,38.721,46.537z"/>
<path fill="#FFFFFF" d="M119.625,32.89h-1.1l-12.916,28.201h3.777l3.216-7.069h12.944l3.216,7.069h3.778L119.625,32.89z
	 M114.062,50.805l5.013-11.409l5.012,11.409H114.062z"/>
<path fill="#FFFFFF" d="M13.377,44.767c0,0.405,0.068,0.798,0.201,1.179c0.138,0.378,0.33,0.713,0.581,1.004
	c0.25,0.291,0.551,0.525,0.903,0.701c0.351,0.176,0.743,0.264,1.178,0.264c0.704,0,1.267-0.165,1.686-0.498
	c0.419-0.33,0.805-0.781,1.158-1.351l1.543,0.874c-0.446,0.825-1.058,1.467-1.836,1.92c-0.78,0.453-1.637,0.68-2.571,0.68
	c-0.731,0-1.385-0.129-1.96-0.387c-0.577-0.257-1.063-0.608-1.463-1.056c-0.399-0.446-0.705-0.976-0.925-1.584
	c-0.215-0.61-0.324-1.266-0.324-1.97c0-0.732,0.099-1.408,0.295-2.031s0.486-1.164,0.872-1.625c0.388-0.461,0.867-0.82,1.444-1.076
	c0.575-0.257,1.249-0.387,2.022-0.387c0.756,0,1.414,0.133,1.969,0.396c0.556,0.264,1.014,0.623,1.379,1.076
	c0.367,0.454,0.641,0.988,0.823,1.605c0.185,0.615,0.274,1.275,0.274,1.98v0.284H13.377z M18.8,43.385
	c-0.108-0.717-0.39-1.293-0.843-1.727c-0.453-0.433-1.046-0.649-1.775-0.649c-0.72,0-1.32,0.224-1.809,0.669
	c-0.488,0.447-0.787,1.016-0.896,1.707H18.8z"/>
<path fill="#FFFFFF" d="M9.377,61.09v-1.724h-6.67l11.922-26.453h-1.92l-3.623,8.038c-0.949-1.105-2.34-1.822-3.907-1.822
	C2.323,39.129,0,41.452,0,44.308c0,2.856,2.323,5.179,5.179,5.179c0.022,0,0.043-0.003,0.063-0.006L0,61.09H9.377z M5.179,47.736
	c-1.891,0-3.429-1.538-3.429-3.429c0-1.89,1.538-3.429,3.429-3.429c1.366,0,2.54,0.81,3.09,1.969l-2.135,4.736
	C5.829,47.674,5.513,47.736,5.179,47.736z"/>
<path fill="#FFFFFF" d="M18.877,51.471v1.14c-0.917-0.823-2.117-1.339-3.443-1.339c-2.855,0-5.179,2.322-5.179,5.178
	s2.323,5.18,5.179,5.18c1.326,0,2.526-0.517,3.443-1.34v0.805h1.75v-9.623H18.877z M15.434,59.879c-1.891,0-3.429-1.539-3.429-3.43
	s1.538-3.428,3.429-3.428s3.429,1.537,3.429,3.428S17.324,59.879,15.434,59.879z"/>
<path fill="#FFFFFF" d="M69.15,29.39V0.79h3.5v25.1h28.535c0.129-0.05,0.262-0.09,0.39-0.145c1.387-0.598,2.607-1.418,3.663-2.462
	c1.057-1.043,1.891-2.271,2.501-3.683c0.61-1.412,0.916-2.944,0.916-4.599c0-1.577-0.281-3.073-0.84-4.484
	c-0.561-1.413-1.349-2.646-2.366-3.703c-1.019-1.056-2.232-1.895-3.646-2.519c-1.412-0.623-2.957-0.935-4.637-0.935
	s-3.226,0.312-4.638,0.935c-1.412,0.625-2.628,1.463-3.645,2.519c-1.019,1.056-1.808,2.29-2.366,3.703
	c-0.561,1.412-0.841,2.907-0.841,4.484c0,1.655,0.307,3.188,0.917,4.599c0.444,1.029,1.011,1.958,1.692,2.791h-4.302
	c-0.257-0.461-0.497-0.938-0.711-1.436c-0.789-1.832-1.184-3.816-1.184-5.954c0-2.061,0.4-4.001,1.202-5.82
	c0.801-1.82,1.883-3.41,3.244-4.771c1.36-1.361,2.958-2.437,4.789-3.226C93.159,0.396,95.105,0,97.167,0
	c2.061,0,4.008,0.396,5.839,1.184c1.832,0.789,3.429,1.864,4.791,3.226c1.36,1.361,2.442,2.951,3.244,4.771
	c0.801,1.818,1.202,3.759,1.202,5.82c0,2.138-0.395,4.123-1.184,5.954c-0.789,1.832-1.864,3.416-3.225,4.752
	c-1.361,1.335-2.958,2.385-4.791,3.149c-0.501,0.208-1.013,0.383-1.533,0.534H69.15z"/>
<path fill="#FFFFFF" d="M125.819,29.39c0.955-0.431,1.844-1.012,2.651-1.762c1.905-1.767,2.87-3.937,2.87-6.45
	c0-2.503-0.966-4.662-2.87-6.416c-1.707-1.584-3.83-2.767-6.312-3.518c-1.374-0.599-2.455-1.255-3.211-1.945
	c-0.727-0.674-1.081-1.459-1.081-2.401c0-0.951,0.354-1.739,1.079-2.408c0.747-0.688,1.626-1.022,2.688-1.022
	c1.063,0,1.942,0.332,2.686,1.011c0.41,0.381,0.706,0.797,0.881,1.237l0.313,0.792l3.114-1.141l-0.278-0.81
	c-0.309-0.901-0.867-1.717-1.651-2.417c-1.403-1.289-3.106-1.942-5.064-1.942c-1.973,0-3.679,0.658-5.069,1.956
	c-1.408,1.313-2.123,2.91-2.123,4.745c0,1.871,0.715,3.482,2.125,4.791c1.321,1.226,3.128,2.199,5.315,2.874
	c1.676,0.637,3.104,1.496,4.245,2.555c1.229,1.14,1.826,2.469,1.826,4.062c0,1.604-0.598,2.938-1.826,4.079
	c-1.248,1.158-2.718,1.72-4.493,1.72c-1.764,0-3.227-0.562-4.475-1.721c-0.886-0.822-2.107-2.698-2.296-4.266
	c-0.143,0.451-0.304,0.894-0.49,1.328c-0.425,0.987-0.94,1.896-1.531,2.739c0.471,0.923,1.118,1.778,1.951,2.551
	c0.812,0.759,1.692,1.377,2.668,1.781C119.391,30.19,122.434,30.718,125.819,29.39z"/>
<path fill="#FFFFFF" d="M64.383,14.392c0.597-0.712,1.062-1.527,1.393-2.442c0.33-0.916,0.495-1.896,0.495-2.94
	c0-1.374-0.323-2.684-0.973-3.931c-0.648-1.246-1.583-2.226-2.806-2.939c-1.145-0.636-2.379-1.017-3.701-1.146
	c-1.324-0.126-2.621-0.19-3.893-0.19H50.5l-0.013,28.563H54V17.407h1.622c0,0,0.729-0.039,1.579-0.104L65.65,29.39v-6.02
	l-4.848-6.638c0.492-0.144,0.963-0.322,1.404-0.566C63.06,15.696,63.784,15.105,64.383,14.392z M60.451,13.514
	c-0.726,0.382-1.54,0.631-2.443,0.745c-0.903,0.114-1.812,0.172-2.729,0.172H54V4.011h1.088c0.891,0,1.801,0.058,2.729,0.171
	c0.929,0.114,1.768,0.356,2.52,0.725c0.75,0.37,1.366,0.892,1.851,1.565c0.483,0.674,0.725,1.572,0.725,2.691
	c0,1.145-0.229,2.062-0.687,2.748C61.768,12.598,61.176,13.132,60.451,13.514z"/>
<path fill="#FFFFFF" d="M34.35,0.79h-1.348l-8.977,19.914c-2.65,5.846-8.117,5.718-8.338,5.711l-0.104-0.003
	C8.928,26.412,3.514,21.292,3.514,15c0-6.292,5.414-11.412,12.069-11.412c2.188,0,4.331,0.559,6.195,1.617
	c0.404,0.229,0.783,0.485,1.15,0.75l1.465-3.25c-0.289-0.19-0.585-0.373-0.889-0.545c-2.39-1.355-5.13-2.072-7.922-2.072
	C6.998,0.089,0.014,6.778,0.014,15c0,8.206,6.958,14.885,15.52,14.911c0.132,0.007,0.27,0.01,0.414,0.01
	c3.037,0,8.704-1.595,11.283-7.818h13.048l3.283,7.286h3.856L34.35,0.79z M28.554,18.819l5.117-11.646l5.117,11.646H28.554z"/>
</svg>
