<?xml version="1.0" encoding="utf-8"?>
<!DOCTYPE svg PUBLIC "-//W3C//DTD SVG 1.1//EN" "http://www.w3.org/Graphics/SVG/1.1/DTD/svg11.dtd">
<svg version="1.1" id="Layer_1" xmlns="http://www.w3.org/2000/svg" xmlns:xlink="http://www.w3.org/1999/xlink" x="0px" y="0px"
	 width="60px" height="60px" viewBox="0 0 60 60" enable-background="new 0 0 60 60" xml:space="preserve">
<g>
	<path fill="#FFFFFF" d="M30,0C13.467,0,0,13.467,0,30s13.467,30,30,30s30-13.467,30-30S46.533,0,30,0L30,0z"/>
	<path fill="#878787" d="M57.6,30C57.6,45.334,45.2,57.733,30,57.733C14.667,57.733,2.267,45.334,2.267,30
		c0-15.333,12.4-27.733,27.733-27.733C45.2,2.267,57.6,14.667,57.6,30z"/>
	<g opacity="0.5">
		<path fill="#FFFFFF" d="M40,40.934c-0.133,0-0.4-0.133-0.533-0.267L19.333,20.534c-0.4-0.267-0.4-0.934,0-1.2
			c0.267-0.4,0.934-0.4,1.2,0l20.133,20.133c0.399,0.267,0.399,0.934,0,1.2C40.533,40.801,40.268,40.934,40,40.934z"/>
		<path fill="#FFFFFF" d="M20,40.934c-0.267,0-0.533-0.133-0.667-0.267c-0.4-0.267-0.4-0.934,0-1.2l20.133-20.133
			c0.267-0.4,0.934-0.4,1.2,0c0.399,0.267,0.399,0.934,0,1.2L20.534,40.667C20.4,40.801,20.133,40.934,20,40.934z"/>
	</g>
</g>
</svg>
