<?xml version="1.0" encoding="utf-8"?>
<!-- Generator: Adobe Illustrator 16.0.0, SVG Export Plug-In . SVG Version: 6.00 Build 0)  -->
<!DOCTYPE svg PUBLIC "-//W3C//DTD SVG 1.1//EN" "http://www.w3.org/Graphics/SVG/1.1/DTD/svg11.dtd">
<svg version="1.1" id="Layer_1" xmlns="http://www.w3.org/2000/svg" xmlns:xlink="http://www.w3.org/1999/xlink" x="0px" y="0px"
	 width="28.875px" height="26.639px" viewBox="0 0 28.875 26.639" enable-background="new 0 0 28.875 26.639" xml:space="preserve">
<g id="brain_2_">
	<g>
		<g>
			<path fill="#FFFFFF" d="M26.809,11.558c-0.177-0.077-0.305-0.237-0.341-0.426c-0.036-0.191,0.023-0.386,0.16-0.523
				c0.469-0.468,0.735-1.11,0.735-1.763c0-1.36-1.093-2.469-2.447-2.496c-0.122,0.218-0.305,0.521-0.538,0.84
				c-0.628,0.856-1.302,1.398-2.002,1.612c-0.294,0.089-0.594,0.126-0.888,0.126c-1.335,0-2.555-0.756-2.616-0.795
				c-0.274-0.172-0.356-0.533-0.184-0.807c0.171-0.273,0.532-0.355,0.806-0.184c0.021,0.013,1.432,0.878,2.541,0.54
				c0.931-0.283,1.749-1.642,1.993-2.157c0.165-0.387,0.252-0.785,0.252-1.152c0-1.377-1.12-2.498-2.497-2.498
				c-0.445,0-0.825,0.094-1.161,0.286c-0.151,0.085-0.332,0.101-0.495,0.04s-0.29-0.19-0.348-0.355C19.459,0.928,18.549,0,17.431,0
				c-1.379,0-2.444,1.316-2.499,2.212v20.884c0.038,0.078,0.061,0.166,0.061,0.259c0,1.842,1.47,3.284,3.345,3.284
				c1.593,0,2.979-1.149,3.295-2.734c0.033-0.164,0.135-0.307,0.28-0.391s0.319-0.102,0.479-0.049
				c0.293,0.098,0.656,0.152,1.024,0.152c1.843,0,3.345-1.502,3.345-3.346c0-0.428-0.092-0.877-0.266-1.318
				c-0.331,0.032-0.666,0.047-1,0.047c-0.593,0-1.18-0.049-1.723-0.147c-0.525-0.097-1.003-0.235-1.425-0.413
				c-3.074,0.021-3.777,2.537-3.807,2.645c-0.069,0.262-0.307,0.436-0.566,0.436c-0.048,0-0.098-0.006-0.146-0.019
				c-0.312-0.081-0.499-0.397-0.421-0.708c0.011-0.037,0.239-0.912,0.967-1.774c0.495-0.588,1.301-1.259,2.527-1.571
				c-2.162-2.221-1.467-4.89-1.435-5.007c0.084-0.312,0.405-0.496,0.717-0.411s0.495,0.405,0.411,0.716
				c-0.025,0.099-0.587,2.353,1.397,4.128c0.858,0.764,2.781,1.128,4.674,0.884c0.031-0.005,0.062-0.005,0.092-0.003
				c1.252-0.459,2.118-1.722,2.118-3.105C28.875,13.317,28.064,12.104,26.809,11.558z"/>
		</g>
		<g>
			<path fill="#FFFFFF" d="M13.943,23.096V2.212C13.89,1.316,12.824,0,11.445,0c-1.118,0-2.029,0.928-2.35,1.845
				C9.038,2.009,8.911,2.139,8.748,2.2C8.586,2.261,8.404,2.246,8.253,2.16c-0.336-0.192-0.715-0.286-1.16-0.286
				c-1.377,0-2.497,1.121-2.497,2.498c0,0.309,0.061,0.639,0.178,0.966c0.08,0.075,0.14,0.172,0.168,0.286
				C4.96,5.698,5.454,7.52,7.764,8.033c2.291,0.508,3.596-1.532,3.609-1.553c0.171-0.273,0.531-0.357,0.806-0.185
				c0.273,0.171,0.356,0.532,0.186,0.806c-0.048,0.077-0.866,1.354-2.377,1.921c1.066,0.7,1.887,1.688,2.381,2.896
				c0.006,0.013,0.01,0.024,0.014,0.033c0.122,0.222,0.088,0.506-0.1,0.693c-0.114,0.114-0.265,0.171-0.414,0.171
				s-0.299-0.057-0.413-0.17c-0.09-0.09-0.124-0.175-0.169-0.284c-0.626-1.53-1.841-2.593-3.51-3.075
				C7.705,9.267,7.642,9.233,7.587,9.19C7.561,9.186,7.536,9.181,7.51,9.175c-2.294-0.51-3.221-2.053-3.549-2.827
				c-1.354,0.027-2.45,1.136-2.45,2.497c0,0.653,0.269,1.295,0.736,1.763c0.137,0.137,0.197,0.332,0.161,0.523
				c-0.036,0.189-0.164,0.35-0.342,0.426C0.811,12.104,0,13.317,0,14.648c0,1.414,0.904,2.701,2.2,3.133
				c0.161,0.055,0.29,0.176,0.354,0.332c0.065,0.156,0.06,0.334-0.017,0.485c-0.276,0.552-0.422,1.13-0.422,1.673
				c0,1.844,1.5,3.346,3.344,3.346c0.368,0,0.731-0.055,1.024-0.152c0.047-0.016,0.094-0.025,0.143-0.028
				c1.314-0.446,2.279-1.234,2.725-2.228c0.405-0.906,0.359-1.936-0.134-3.06c-1.017-2.283-3.344-1.958-3.367-1.954
				c-0.319,0.049-0.618-0.172-0.666-0.491c-0.049-0.318,0.171-0.617,0.49-0.665c0.033-0.006,0.829-0.123,1.786,0.143
				c0.894,0.248,2.109,0.881,2.826,2.494c0.625,1.422,0.671,2.808,0.132,4.012c-0.533,1.191-1.601,2.143-3.035,2.717
				c0.48,1.32,1.735,2.234,3.155,2.234c1.875,0,3.344-1.442,3.344-3.284C13.883,23.262,13.905,23.174,13.943,23.096z"/>
		</g>
	</g>
</g>
</svg>
