<?xml version="1.0" encoding="utf-8"?>
<!-- Generator: Adobe Illustrator 16.0.0, SVG Export Plug-In . SVG Version: 6.00 Build 0)  -->
<!DOCTYPE svg PUBLIC "-//W3C//DTD SVG 1.1//EN" "http://www.w3.org/Graphics/SVG/1.1/DTD/svg11.dtd">
<svg version="1.1" id="Layer_1" xmlns="http://www.w3.org/2000/svg" xmlns:xlink="http://www.w3.org/1999/xlink" x="0px" y="0px"
	 width="30.73px" height="30.73px" viewBox="0 0 30.73 30.73" enable-background="new 0 0 30.73 30.73" xml:space="preserve">
<linearGradient id="SVGID_1_" gradientUnits="userSpaceOnUse" x1="15.3647" y1="0.2871" x2="15.3647" y2="31.1801">
	<stop  offset="0" style="stop-color:#8D2C5D"/>
	<stop  offset="1" style="stop-color:#78286C"/>
</linearGradient>
<path fill="url(#SVGID_1_)" d="M15.365,0C6.879,0,0,6.879,0,15.365S6.879,30.73,15.365,30.73c8.485,0,15.365-6.88,15.365-15.365
	S23.85,0,15.365,0z M22.622,11.211c2.896,9.316-5.287,12.527-10.042,11.867c-4.755-0.658-6.116-2.541-6.116-2.541
	c0.289,0.035,0.583,0.053,0.881,0.053c1.73,0,3.323-0.591,4.587-1.582c-1.617-0.029-2.98-1.098-3.45-2.564
	c0.225,0.043,0.456,0.066,0.694,0.066c0.337,0,0.663-0.045,0.974-0.131c-1.69-0.338-2.963-1.831-2.963-3.62c0-0.015,0-0.032,0-0.047
	c0.498,0.277,1.068,0.443,1.672,0.462c-0.99-0.663-1.643-1.793-1.643-3.074c0-0.677,0.182-1.312,0.5-1.857
	c1.821,2.235,4.543,3.705,7.612,3.859c-0.063-0.271-0.096-0.552-0.096-0.842c0-2.04,1.654-3.693,3.694-3.693
	c1.062,0,2.021,0.448,2.695,1.166c0.842-0.166,1.633-0.473,2.346-0.896c-0.276,0.863-0.861,1.586-1.624,2.043
	c0.747-0.088,1.262-0.204,1.924-0.498C23.772,10.124,23.344,10.691,22.622,11.211z"/>
</svg>
