<?xml version="1.0" encoding="utf-8"?>
<!-- Generator: Adobe Illustrator 16.0.0, SVG Export Plug-In . SVG Version: 6.00 Build 0)  -->
<!DOCTYPE svg PUBLIC "-//W3C//DTD SVG 1.1//EN" "http://www.w3.org/Graphics/SVG/1.1/DTD/svg11.dtd">
<svg version="1.1" id="Layer_1" xmlns="http://www.w3.org/2000/svg" xmlns:xlink="http://www.w3.org/1999/xlink" x="0px" y="0px"
	 width="30.729px" height="30.73px" viewBox="0 0 30.729 30.73" enable-background="new 0 0 30.729 30.73" xml:space="preserve">
<g>
	<linearGradient id="SVGID_1_" gradientUnits="userSpaceOnUse" x1="15.6001" y1="1.312" x2="15.6001" y2="32.2045">
		<stop  offset="0" style="stop-color:#8D2C5D"/>
		<stop  offset="1" style="stop-color:#78286C"/>
	</linearGradient>
	<path fill="url(#SVGID_1_)" d="M15.6,1C7.115,1,0.235,7.88,0.235,16.365c0,8.486,6.879,15.365,15.365,15.365
		c8.487,0,15.366-6.879,15.366-15.365C30.966,7.88,24.087,1,15.6,1z M19.956,25.517c-0.959,0-1.854-0.274-2.617-0.742
		c-0.508,0.096-1.031,0.15-1.567,0.15c-4.707,0-8.521-3.814-8.521-8.521c0-0.505,0.052-0.999,0.137-1.48
		c-0.584-0.821-0.932-1.823-0.932-2.908c0-2.776,2.25-5.027,5.026-5.027c1.127,0,2.164,0.375,3.002,1.002
		c0.421-0.063,0.849-0.107,1.288-0.107c4.706,0,8.521,3.815,8.521,8.521c0,0.464-0.048,0.914-0.118,1.357
		c0.51,0.787,0.809,1.723,0.809,2.729C24.983,23.266,22.733,25.517,19.956,25.517z"/>
	<linearGradient id="SVGID_2_" gradientUnits="userSpaceOnUse" x1="15.7715" y1="1.3115" x2="15.7715" y2="32.2064">
		<stop  offset="0" style="stop-color:#8D2C5D"/>
		<stop  offset="1" style="stop-color:#78286C"/>
	</linearGradient>
	<path fill="url(#SVGID_2_)" d="M19.487,16.095c-0.402-0.28-0.896-0.522-1.469-0.717c-0.564-0.195-1.203-0.372-1.898-0.532
		c-0.548-0.136-0.949-0.241-1.188-0.312c-0.233-0.069-0.466-0.165-0.691-0.286c-0.218-0.117-0.39-0.257-0.512-0.416
		c-0.115-0.151-0.171-0.327-0.171-0.536c0-0.341,0.174-0.628,0.532-0.881c0.372-0.26,0.872-0.392,1.488-0.392
		c0.663,0,1.198,0.144,1.526,0.32c0.398,0.215,0.645,0.459,0.859,0.895c0.184,0.342,0.312,0.672,0.472,0.823
		c0.173,0.164,0.433,0.302,0.751,0.302c0.35,0,0.589-0.133,0.824-0.396c0.233-0.259,0.258-0.546,0.258-0.875
		c0-0.341-0.091-0.694-0.27-1.048c-0.176-0.351-0.457-0.688-0.834-1.004c-0.375-0.314-0.853-0.568-1.418-0.757
		c-0.562-0.187-1.237-0.282-2.003-0.282c-0.959,0-1.807,0.143-2.52,0.425c-0.722,0.286-1.283,0.703-1.667,1.238
		c-0.387,0.54-0.582,1.166-0.582,1.859c0,0.729,0.186,1.348,0.555,1.841c0.364,0.487,0.859,0.875,1.476,1.156
		c0.602,0.273,1.359,0.516,2.25,0.721c0.654,0.146,1.186,0.286,1.576,0.416c0.373,0.125,0.682,0.309,0.916,0.541
		c0.223,0.225,0.33,0.509,0.33,0.873c0,0.458-0.207,0.833-0.634,1.145c-0.438,0.32-1.021,0.482-1.73,0.482
		c-0.517,0-0.937-0.08-1.248-0.238c-0.31-0.156-0.881-0.484-1.411-1.525c-0.167-0.328-0.389-1.059-1.062-1.074
		c-0.359-0.008-0.661,0.119-0.896,0.357c-0.238,0.238-0.358,0.531-0.358,0.867c0,0.539,0.186,1.097,0.549,1.66
		c0.361,0.558,0.837,1.01,1.415,1.343c0.807,0.458,1.84,0.69,3.074,0.69c1.027,0,1.93-0.17,2.684-0.506
		c0.76-0.336,1.347-0.813,1.744-1.415c0.398-0.604,0.6-1.294,0.6-2.051c0-0.633-0.116-1.178-0.348-1.618
		C20.225,16.75,19.899,16.38,19.487,16.095z"/>
</g>
</svg>
