<?xml version="1.0" encoding="utf-8"?>
<!-- Generator: Adobe Illustrator 16.0.0, SVG Export Plug-In . SVG Version: 6.00 Build 0)  -->
<!DOCTYPE svg PUBLIC "-//W3C//DTD SVG 1.1//EN" "http://www.w3.org/Graphics/SVG/1.1/DTD/svg11.dtd">
<svg version="1.1" id="Layer_1" xmlns="http://www.w3.org/2000/svg" xmlns:xlink="http://www.w3.org/1999/xlink" x="0px" y="0px"
	 width="30.864px" height="30.104px" viewBox="0 0 30.864 30.104" enable-background="new 0 0 30.864 30.104" xml:space="preserve">
<linearGradient id="SVGID_1_" gradientUnits="userSpaceOnUse" x1="15.4316" y1="0.3118" x2="15.4316" y2="31.2053">
	<stop  offset="0" style="stop-color:#8D2C5D"/>
	<stop  offset="1" style="stop-color:#78286C"/>
</linearGradient>
<path fill-rule="evenodd" clip-rule="evenodd" fill="url(#SVGID_1_)" d="M15.431,0C6.91,0,0,6.91,0,15.433
	c0,6.817,4.421,12.602,10.554,14.644c0.772,0.141,1.053-0.336,1.053-0.744c0-0.367-0.014-1.338-0.021-2.625
	c-4.293,0.933-5.199-2.068-5.199-2.068c-0.702-1.783-1.713-2.258-1.713-2.258c-1.401-0.957,0.106-0.938,0.106-0.938
	c1.549,0.109,2.364,1.591,2.364,1.591c1.376,2.357,3.611,1.678,4.491,1.282c0.14-0.997,0.54-1.677,0.98-2.063
	c-3.427-0.389-7.029-1.713-7.029-7.626c0-1.685,0.602-3.062,1.589-4.141c-0.159-0.391-0.689-1.959,0.151-4.083
	c0,0,1.296-0.416,4.244,1.582c1.23-0.342,2.551-0.514,3.863-0.52c1.31,0.005,2.631,0.178,3.864,0.52
	c2.946-1.997,4.239-1.582,4.239-1.582c0.842,2.124,0.312,3.693,0.154,4.083c0.988,1.079,1.586,2.456,1.586,4.141
	c0,5.928-3.608,7.233-7.046,7.615c0.554,0.477,1.048,1.418,1.048,2.857c0,2.063-0.02,3.729-0.02,4.234
	c0,0.412,0.278,0.893,1.061,0.742c6.127-2.045,10.545-7.826,10.545-14.642C30.864,6.91,23.954,0,15.431,0z"/>
</svg>
