<?xml version="1.0" encoding="utf-8"?>
<!-- Generator: Adobe Illustrator 16.0.0, SVG Export Plug-In . SVG Version: 6.00 Build 0)  -->
<!DOCTYPE svg PUBLIC "-//W3C//DTD SVG 1.1//EN" "http://www.w3.org/Graphics/SVG/1.1/DTD/svg11.dtd">
<svg version="1.1" id="content" xmlns="http://www.w3.org/2000/svg" xmlns:xlink="http://www.w3.org/1999/xlink" x="0px" y="0px"
	 width="113.324px" height="92.223px" viewBox="0 0 113.324 92.223" enable-background="new 0 0 113.324 92.223"
	 xml:space="preserve">
<g>
	<path fill-rule="evenodd" clip-rule="evenodd" fill="#FFFFFF" d="M28.28,62.728c0-1.274,1.072-2.345,2.346-2.345
		c1.272,0,2.347,1.071,2.347,2.345c0,1.274-1.074,2.28-2.347,2.28C29.353,65.008,28.28,64.002,28.28,62.728L28.28,62.728
		L28.28,62.728z M28.817,70.503c0,6.03,0,12.131,0,18.161c0,1.071-0.537,1.941-1.811,1.941c-0.066,0-0.335,0.069-0.335,0.203
		c0,0.2,0,0.468,0,0.67c0,0.133,0.067,0.201,0.201,0.201c2.413,0,4.893,0,7.305,0c0.066,0,0.201-0.068,0.201-0.201
		c0-0.202,0-0.47,0-0.67c0-0.134-0.135-0.203-0.201-0.203c-0.67,0-1.475-0.601-1.475-1.941c0-6.904,0-13.806,0-20.775
		c0-0.066-0.066-0.135-0.2-0.135c-1.811,0-3.619,0-5.43,0c-0.133,0-0.2,0.068-0.2,0.135c0,0.267,0,0.469,0,0.67
		c0,0.135,0.067,0.2,0.2,0.2h0.069c-0.136,0-0.202,0,0,0C27.946,68.759,28.817,71.843,28.817,70.503L28.817,70.503L28.817,70.503z
		 M94.627,79.885c0-9.249-3.553-12.332-6.903-12.332c-3.283,0-6.836,3.083-6.836,12.332c0,9.181,3.553,12.264,6.836,12.264
		C91.074,92.148,94.627,89.065,94.627,79.885L94.627,79.885L94.627,79.885z M87.724,90.941c-0.668,0-2.747,0.269-2.747-11.057
		c0-11.326,2.079-11.126,2.747-11.126c0.737,0,2.815-0.2,2.815,11.126C90.539,91.21,88.461,90.941,87.724,90.941L87.724,90.941
		L87.724,90.941z M25.533,58.908c-1.14,0-1.943,1.206-2.011,2.211l0,0l-3.887,30.427c0,0.065-0.067,0.134-0.202,0.134
		c-1.205,0-2.479,0-3.686,0c-0.2,0-0.2-0.134-0.268-0.335c-0.804-7.239-1.609-14.477-2.479-21.715c0-0.133-0.134-0.2-0.134,0l0,0
		L9.852,91.345c-0.135,0.335-0.135,0.335-0.47,0.335c-1.14,0-2.211,0-3.284,0c-0.335,0-0.335-0.335-0.401-0.738l0,0L2.011,60.717
		c-0.068-1.074-0.47-1.81-1.676-1.81c-0.134,0-0.335,0-0.335-0.201c0-0.269,0-0.536,0-0.805c0-0.134,0.066-0.2,0.133-0.2
		c2.815,0,5.629,0,8.378,0c0.134,0,0.201,0.066,0.201,0.2c0,0.269,0,0.536,0,0.805c0,0.269-0.268,0.201-0.401,0.201
		c-1.073,0-1.744,0.604-1.609,1.743l0,0l2.346,21.914c0.067,0.67,0.335,0.471,0.402,0.201l0,0l3.148-24.863
		c0.068-0.2,0.335-0.2,0.47-0.2c0.871,0,1.743,0,2.546,0c0.202,0,0.402,0,0.469,0.2l0,0l2.681,24.662
		c0,0.403,0.335,0.471,0.403,0.135l0,0l2.612-22.183c0.135-0.939-0.603-1.609-1.473-1.609c-0.135,0-0.471,0.068-0.471-0.201
		c0-0.269,0-0.536,0-0.805c0-0.134,0.067-0.2,0.201-0.2c1.943,0,3.887,0,5.898,0c0.067,0,0.133,0.066,0.133,0.2
		c0,0.269,0,0.536,0,0.805c0,0.134-0.065,0.201-0.133,0.201C25.801,58.908,25.667,58.908,25.533,58.908L25.533,58.908L25.533,58.908
		z M75.93,69.094c1.138,0,2.277,0,3.417,0c0.135,0,0.2-0.065,0.2-0.134c0-0.401,0-0.736,0-1.071c0-0.066-0.065-0.135-0.2-0.135
		c-1.14,0-2.279,0-3.417,0c0-2.346,0-4.69,0-7.037c0-0.066-0.068-0.134-0.202-0.134c-0.335,0-0.671,0-1.006,0
		c-0.065,0-0.132,0.068-0.132,0.134c0,4.021-1.743,7.037-4.155,7.037c-0.135,0-0.537-0.135-0.537,0.135c0,0.335,0,0.67,0,1.071
		c0,0.068,0.068,0.134,0.202,0.134c0.671,0,1.271,0,1.942,0l0,0c0,6.501,0,12.936,0,19.436c0,3.886,4.759,4.355,7.439,3.017
		c0.065,0,0.065-0.067,0.065-0.136c0-0.334,0-0.669,0-1.004c0-0.135,0-0.201-0.065-0.201c-2.279,0.736-3.552-0.135-3.552-1.676
		C75.93,82.029,75.93,75.595,75.93,69.094L75.93,69.094z M65.406,74.188c0-3.352-1.07-5.43-3.282-5.43s-2.68,2.011-2.68,2.815
		c0,0.87,0.267,2.279,1.675,3.619l0,0c1.34,1.271,2.612,2.479,3.953,3.686c1.273,1.206,2.682,3.485,2.682,6.3
		c0,6.098-3.954,6.901-5.362,6.901c-1.407,0-2.212-0.267-2.412-0.469c-0.335-0.335-1.408-0.401-1.408,0.068
		c0,0.134-0.066,0.2-0.133,0.2c-0.403,0-0.738,0-1.073,0c-0.134,0-0.2-0.066-0.2-0.2c0-2.279,0-4.624,0-6.97
		c0-0.066,0.066-0.135,0.2-0.135c0.335,0,0.67,0,1.073,0c0.133,0,0.133,0.135,0.133,0.269c0,5.696,2.548,5.965,3.419,5.965
		c0.938,0,2.68-0.537,2.68-3.753c0-3.217-2.479-4.825-3.284-5.63c-1.137-1.206-2.211-2.412-3.351-3.618l0,0
		c-1.14-1.408-1.405-2.883-1.405-4.625c0-1.809,0.334-2.613,1.405-4.089c1.006-1.475,3.219-1.541,3.821-1.541
		c0.669,0,1.809-0.065,2.479,0.537c0.736,0.604,1.34,0.134,1.34-0.201c0-0.066,0.066-0.135,0.134-0.135c0.268,0,0.536,0,0.736,0
		c0.136,0,0.201,0.068,0.201,0.135c0,2.145,0,4.222,0,6.366c0,0.134-0.065,0.2-0.201,0.2c-0.267,0-0.602,0-0.937,0
		C65.406,74.455,65.406,74.188,65.406,74.188L65.406,74.188z M42.957,67.754c-1.81,0-3.686,0-5.495,0
		c-0.134,0-0.201,0.068-0.201,0.135c0,0.267,0,0.469,0,0.67c0,0.269,0.335,0.2,0.469,0.2c0.805,0,1.743,0.403,1.743,1.744
		c0,6.098,0,12.196,0,18.228c0,1.743-1.005,1.875-1.743,1.875c-0.134,0-0.268,0-0.268,0.203c0,0.2,0,0.468,0,0.67
		c0,0.133,0.066,0.201,0.134,0.201c2.479,0,4.894,0,7.372,0c0.066,0,0.134-0.068,0.134-0.201c0-0.202,0-0.47,0-0.67
		c0-0.203-0.201-0.203-0.334-0.203c-0.938,0-1.475-0.535-1.475-1.875c0-5.695,0-11.393,0-17.089c0-0.335,0.134-0.604,0.267-0.737
		c2.011-2.681,4.692-1.676,4.692,1.206c0,5.562,0,11.124,0,16.62c0,1.743-1.007,1.875-1.677,1.875c-0.065,0-0.201,0.136-0.201,0.203
		c0,0.2,0,0.468,0,0.67c0,0.133,0.136,0.201,0.201,0.201c2.547,0,5.027,0,7.507,0c0.134,0,0.202-0.068,0.202-0.201
		c0-0.202,0-0.47,0-0.67c0-0.067-0.068-0.203-0.202-0.203s-0.336,0-0.537,0c-0.938,0-1.474-0.535-1.474-1.875
		c0-5.496,0-11.058,0-16.62c0-4.222-3.149-4.758-4.757-4.758c-1.542,0-2.414,0.47-2.682,0.67c-0.604,0.401-1.34,1.407-1.34,0
		c0-0.134,0-0.269-0.203-0.269c-1.139,0-2.277,0-3.484,0H42.957L42.957,67.754z M102.066,67.754c-1.878,0-3.686,0-5.563,0
		c-0.066,0-0.2,0.068-0.2,0.135c0,0.267,0,0.469,0,0.67c0,0.269,0.335,0.2,0.535,0.2c0.738,0,1.675,0.403,1.675,1.744
		c0,6.098,0,12.196,0,18.228c0,1.743-1.004,1.875-1.675,1.875c-0.134,0-0.335,0-0.335,0.203c0,0.2,0,0.468,0,0.67
		c0,0.133,0.067,0.201,0.201,0.201c2.413,0,4.893,0,7.305,0c0.134,0,0.202-0.068,0.202-0.201c0-0.202,0-0.47,0-0.67
		c0-0.203-0.202-0.203-0.334-0.203c-0.939,0-1.543-0.535-1.543-1.875c0-5.695,0-11.393,0-17.089c0-0.335,0.134-0.604,0.268-0.737
		c2.011-2.681,4.691-1.676,4.691,1.206c0,5.562,0,11.124,0,16.62c0,1.743-1.005,1.875-1.675,1.875c-0.066,0-0.135,0.136-0.135,0.203
		c0,0.2,0,0.468,0,0.67c0,0.133,0.068,0.201,0.135,0.201c2.546,0,5.025,0,7.572,0c0.067,0,0.134-0.068,0.134-0.201
		c0-0.202,0-0.47,0-0.67c0-0.067-0.066-0.203-0.134-0.203c-0.201,0-0.401,0-0.537,0c-0.938,0-1.541-0.535-1.541-1.875
		c0-5.496,0-11.058,0-16.62c0-4.222-3.083-4.758-4.689-4.758c-1.609,0-2.48,0.47-2.749,0.67c-0.535,0.401-1.34,1.407-1.34,0
		c0-0.134,0.067-0.269-0.136-0.269c-1.205,0-2.344,0-3.484,0H102.066L102.066,67.754z"/>
	<path fill-rule="evenodd" clip-rule="evenodd" fill="#FFFFFF" d="M40.545,57.836c-0.066,0-2.949-2.614-3.821-5.16l0,0l10.724-3.352
		c0,0-9.985-3.619-18.295-13.336c-3.954-4.758-4.491-6.099-5.362-9.249c0,0,2.748,1.877,6.971,2.078c0,0-5.764-2.95-7.104-4.893
		c0,0-0.537-3.686,0-5.831c0,0,2.813,2.614,5.763,3.016c0,0-3.687-3.149-5.496-5.964c0,0,0.135-4.691,1.877-7.372
		c2.212,3.149,5.161,4.423,5.161,4.423c-3.016-3.686-3.151-7.64-3.151-7.64C28.749,3.15,30.29,0.938,31.632,0
		c0.134-0.066,6.366,25.935,28.951,36.39c16.018,7.439,29.487,8.511,52.406,6.367c0,0-1.406,1.34-2.747,2.278
		c-1.943,0.939-4.894,1.273-7.305,1.474c0,0,1.341,0.872,4.087,0.872c-1.676,1.139-15.883,10.722-44.029,6.635
		c0,0-0.536,4.087-4.624,6.768c-1.407,0.738-2.815,1.542-5.294,1.609c0,0,1.407-1.742,0.669-4.759c0,0-0.401,3.018-2.746,4.759
		c-5.63-0.401-6.836-1.406-9.25-3.083c0,0,3.083-0.737,4.224-3.148C45.974,56.161,43.158,57.768,40.545,57.836L40.545,57.836
		L40.545,57.836z M69.562,42.757c1.139,0.268,2.479,0.402,3.484,0.469c1.609,0.067,2.279,0,3.15,0.201
		c0.938,0.134,1.543,0.67,1.543,0.871c0,0,1.405,0,2.076,0.604c0.335,0.268,0.736,1.14,0.469,1.809c0,0-0.067-0.469-0.535-0.536
		c-0.335-0.067-0.872-0.067-1.273-0.067c0,0-2.615,1.34-4.424,1.608c0,0-0.268,0.067-1.407,0.537
		c-1.34,0.536-2.748,1.809-2.748,1.809s-0.736-0.871-0.938-1.474c0.603-0.938,1.741-1.341,1.741-1.341
		c-0.937-0.201-1.675,0.134-2.145,0.269c-0.268-0.938-0.468-2.078-0.2-2.748C68.826,43.226,69.562,42.757,69.562,42.757
		L69.562,42.757L69.562,42.757z M74.187,45.169c0,0,1.34-0.537,2.749-0.335c0,0-0.068,0.537-0.805,0.805
		C76.131,45.639,75.861,45.303,74.187,45.169L74.187,45.169L74.187,45.169z"/>
</g>
</svg>
