<?xml version="1.0" encoding="utf-8"?>
<!-- Generator: Adobe Illustrator 16.0.0, SVG Export Plug-In . SVG Version: 6.00 Build 0)  -->
<!DOCTYPE svg PUBLIC "-//W3C//DTD SVG 1.1//EN" "http://www.w3.org/Graphics/SVG/1.1/DTD/svg11.dtd">
<svg version="1.1" id="content" xmlns="http://www.w3.org/2000/svg" xmlns:xlink="http://www.w3.org/1999/xlink" x="0px" y="0px"
	 width="90.709px" height="93.296px" viewBox="0 0 90.709 93.296" enable-background="new 0 0 90.709 93.296" xml:space="preserve">
<g id="UNED">
	<path fill="#FFFFFF" d="M73.938,39.391h-3.392v14.512h3.362c2.935,0.004,2.596-3.238,2.596-3.238v-7.309
		C76.507,42.596,76.853,39.389,73.938,39.391z"/>
	<path fill="#FFFFFF" d="M0,0v93.296h90.709V0H0z M24.514,52.908c-0.008,3.223-3.065,5.484-6.2,5.484H9.839v-23.49h4.359l-0.021,19
		l3.135,0.004c2.265,0,2.836-1.754,2.836-3.773l0.001-15.23h4.363V52.908z M44.403,58.393h-4.362V39.391H36.94
		c-2.281-0.002-2.861,1.786-2.861,3.822v15.18h-4.364V40.437c0.007-3.247,3.09-5.534,6.248-5.534h8.44V58.393z M60.802,39.386
		l-4.396,0.007c0,0-1.051,0.102-1.711,0.926c-0.66,0.822-0.69,1.576-0.69,1.576v2.489l5.646,0.001l0.006,4.491l-5.647-0.001
		l-0.004,3.094c0,0-0.062,0.831,0.397,1.367c0.322,0.377,0.632,0.573,1.122,0.573h5.278v4.483h-6.293
		c-1.362,0-2.45-0.454-3.416-1.439c-1.006-1.029-1.445-1.878-1.445-3.52V40.759c-0.006-2.12,1.218-3.442,1.92-4.2
		c0.61-0.652,1.954-1.656,3.438-1.656h5.797V39.386z M80.871,53.182c-0.033,5.434-4.773,5.211-6.111,5.211h-8.576v-23.49h8.609
		c1.188,0,6.066-0.075,6.078,5.419V53.182z"/>
</g>
</svg>
