<?xml version="1.0" encoding="utf-8"?>
<!-- Generator: Adobe Illustrator 16.0.0, SVG Export Plug-In . SVG Version: 6.00 Build 0)  -->
<!DOCTYPE svg PUBLIC "-//W3C//DTD SVG 1.1//EN" "http://www.w3.org/Graphics/SVG/1.1/DTD/svg11.dtd">
<svg version="1.1" id="Layer_2" xmlns="http://www.w3.org/2000/svg" xmlns:xlink="http://www.w3.org/1999/xlink" x="0px" y="0px"
	 width="147.566px" height="82.068px" viewBox="0 0 147.566 82.068" enable-background="new 0 0 147.566 82.068"
	 xml:space="preserve">
<g>
	<g>
		<path fill="#FFFFFF" d="M24.869,35.863c0,0-5.756-12.991-9.797-18.633c-0.729-0.855-4.096-0.826-6.129,1.353
			c-2.034,2.182-2.483,5.637-3.65,6.405c-1.167,0.766-4.079,1.852-5.143-1.755c-1.064-3.608,3.864-6.301,5.169-7.167
			c1.304-0.867,6.424-3.047,14.884-2.848c8.46,0.199,16.853-2.723,18.836-5.347c1.985-2.623,3.024-6.205,2.867-7.87
			c0.933,3.877,0.139,10.756-6.873,13.015c-7.012,2.261-12.335,2.503-12.335,2.503s2.469,7.966,3.561,9.166
			c0,0,7.583-1.98,10.57-5.033c2.986-3.054,4.901-1.37,5.651,0.166c0.604-3.046,2.966-8.073,6.76-6.809
			c3.795,1.266,0.633,4.316,0.633,4.316s-1.553,0.83-2.217-1.247C46.99,14,45.61,15.748,44.985,17.03
			c-0.625,1.283-1.597,2.73-0.263,5.968c1.333,3.238,2.838,9.565,4.559,9.652c1.723,0.088,4.375-0.289,4.775-0.93
			c0.4-0.64,2.052,0.499-1.387,1.578c-3.438,1.079-8.722,2.511-8.722,2.511s-2.271,0.314,0.519-1.248
			c0.33-0.675-1.359-6.257-3.588-12.185c-0.603-1.296-2.549-2.912-6.238,1.218c-3.688,4.13-7.318,3.612-7.318,3.612
			s2.084,6.946,4.208,8.563c2.122,1.618,4.801-0.082,5.98-0.507c1.179-0.428-0.312,1.184-2.674,1.87
			c-2.364,0.684-8.074,1.908-9.878,3.616c-1.803,1.709-1.063-0.351-0.192-1.597C25.638,37.906,24.869,35.863,24.869,35.863z"/>
		<path fill="#FFFFFF" d="M55.812,15.627c0,0-3.284-0.681-4.526,3.138c-0.083,0.711,0.454,1.056,1.059,0.18
			c0.602-0.875,2.137-3.299,2.631,1.115c0.495,4.417,1.704,12.436,5.107,13.594c3.406,1.159,5.938-4.037,5.938-4.037
			s2.578,5.933,5.363,4.2c2.786-1.731,5.408-5.128,4.055-5.788c-1.354-0.66-4.383,8.634-6.35-1.091
			c-1.965-9.722-0.726-11.54-0.354-11.942c0.373-0.402,3.191-1.117,2.084-1.742c-1.108-0.621-4.468,1.747-6.64,1.859
			c-0.899,0.397-0.113,4.035,0.062,6.209c0.176,2.173,2.431,6.778-0.906,9.825c-1.931,1.065-2.43,0.819-3.614-2.177
			c-1.186-2.999-1.436-7.377-1.177-9.173C58.801,18.004,57.967,16.095,55.812,15.627z"/>
		<path fill="#FFFFFF" d="M110.34,24.83c-3.805-6.046-3.045-5.876-0.131-6.518c0,0,2.588-0.402,2.057,2.132
			c-0.535,2.536,1.012,6.151,3.219,2.633c2.205-3.517-2.359-5.407-3.762-5.559c-1.404-0.152-5.857-0.393-7.027,3.164
			c-1.172,3.556,1.963,6.215,3.389,8.773c1.426,2.56,4.326,7.433-0.58,5.375c-1.109-0.466-1.918-0.949-2.502-1.416
			c1.83-2.073,0.666-1.487-0.619-0.575c-1.234-1.345-0.77-2.436-0.77-2.436s-1.561,0.819,0.189,2.841
			c-0.727,0.472-2.096,1.197-3.289,0.863c-1.438-0.401-2.314-1.626-1.537-7.327c0.777-5.702,0.865-8.152,0.758-8.903
			c-0.109-0.75-0.99-4.668-5.861-5.05c-4.871-0.379-6.91,1.967-8.152,3.653c-1.242,1.687,0.221,3.549,2.654,3.737
			c2.438,0.19,1.578-2.372,1.578-2.372s0.645-3.374,3.441-3.604c2.799-0.231,2.215,4.318,2.215,4.318
			c-0.111,0.908-0.197,1.765-0.264,2.582c-3.723,1.388-10.711,3.748-9.729,9.252c0.098,0.545,0.238,1.021,0.416,1.44
			c-0.662,0.233-1.396,0.493-1.998,0.639c-1.6,0.387-3.936-0.25-3.854-3.133c0.052-1.791,0.056-8.322,0.263-13.563
			c2.131-0.278,3.873-0.533,3.873-0.533s0.756-1.551-0.094-1.8c-0.299-0.087-1.816-0.136-3.657-0.165
			c0.122-2.041,0.293-3.641,0.531-4.28c-2.192-0.567-5.642-0.913-6.425-1.295c-0.784-0.383-0.488,1.183,1.945,1.617
			c0.292,0.187,0.311,2.159,0.268,3.924c-2.281-0.01-4.209,0-4.209,0s-0.58,2.638,0.067,3.121c0.244,0.182,1.964,0.064,4.005-0.151
			c-0.193,1.477-1.762,14.228,1.652,16.6c1.377,0.894,3.971,2.013,7.979-0.324c1.984,3.185,6.668,1.785,8.51,1.11
			c0.818-0.3,1.312-0.798,1.609-1.303c2.389,4.852,7.262,2.464,7.85,1.837c0.059-0.061,0.107-0.117,0.162-0.175
			c0.172,0.159,0.365,0.323,0.578,0.492c3.643,2.907,6.406,1.858,8.152,0.444C114.982,33.483,114.143,30.878,110.34,24.83z
			 M94.598,32.598c-2.332,0.873-4.4-0.752-4.637-4.803c-0.188-3.233,3.711-4.963,5.303-5.533c-0.266,4.458,0.168,7.458,0.969,9.442
			C95.885,31.995,95.373,32.307,94.598,32.598z"/>
	</g>
	<path fill="#FFFFFF" d="M140.654,14.482c0,0,3.512,0.125,6.293-0.626c1.258-0.188,0.396,0.626-0.795,1.379
		c-1.193,0.751-0.93,1.693-0.797,3.824c0.135,2.13,1.656,24.132,0.596,29.213c-1.057,5.077-4.701,6.58-8.014,6.079
		c-3.312-0.501-7.814-4.2-8.213-7.774c-0.396-3.571,0.596-4.763,1.986-4.951c1.391-0.189,0.332,2.632,0.729,5.516
		c0.4,2.884-0.396,5.454,5.697,5.642c2.053,0.062,4.705-1.003,4.438-6.207c-0.264-5.203-0.133-12.725-0.729-18.805
		c-1.723,1.192-5.1,3.761-7.42-0.125c-2.314-3.888,0.467-11.786-2.781-11.848c-3.246-0.062-1.92,4.262-1.721,4.639
		c0.199,0.376-1.193,1.566-1.525-2.07c-0.33-3.636,4.838-4.888,6.426-3.259c1.592,1.629,2.121,7.398,2.385,9.342
		c0.266,1.942,1.59,3.197,3.445,2.443c1.854-0.751,0.662-4.137,0.662-4.137S139.857,14.67,140.654,14.482z"/>
	<g>
		<path fill="#FFFFFF" d="M0.022,64.125c0,0,0.209,2.223,1.022,0.047c0.815-2.175,3.064-6.238,5.931-6.08
			c1.973,0.941,13.56,11.656,20.935,23.112c0,0,0.443,2.263,2.43-0.538c1.988-2.803,5.709-9.183,6.355-18.965
			c0.649-9.784-1.711-17.834-11.768-17.502c-10.054,0.331-7.367,12.253-1.611,6.449c5.757-5.805,10.39,1.499,11.051,4.62
			c0.659,3.123,2.808,12.21-5.013,21.324c-1.444-4.832-11.231-24.114-18.774-23.609C3.039,53.488,0.022,64.125,0.022,64.125z"/>
		<path fill="#FFFFFF" d="M43.979,69.323c2.763-0.951,8.277-4.072,7.695-7.701c-0.584-3.629-4.158-4.104-8.023-2.014
			c-3.862,2.091-10.021,13.297-1.27,19.626c3.324,1.938,10.399-1.224,12.859-5.99c0,0,0.482-1.765-0.758-0.092
			c-1.238,1.674-8.4,7.727-11.32,2.628c-0.966-1.686-1.354-3.817-1.391-5.957C42.282,69.813,43.016,69.655,43.979,69.323z
			 M44.136,60.426c1.566-1.065,3.995-1.264,3.677,1.926c-0.301,3.049-2.037,5.822-6.017,6.055
			C41.998,64.584,43.201,61.059,44.136,60.426z"/>
		<path fill="#FFFFFF" d="M53.574,58.754c0,0-1.547,1.547,0.445,0.715c1.994-0.834,6.213-1.768,6.241,4.246
			c-0.719,5.635-1.396,10.487-2.109,11.064c-0.709,0.572-0.874,1.055,1.354,0.608c2.229-0.445,4.192-0.299,5.125,0.004
			c0.932,0.306,3.908-0.803,1.197-0.985c-2.713-0.183-2.802,0.827-2.594-1.479c0.208-2.303-0.081-11.045,2.163-12.676
			c0,0,3.556-3.574,3.642-0.786c0.086,2.79,5.461,0.301,3.492-1.82c-1.966-2.124-3.622-3.054-6.775-0.413
			c-3.154,2.641-3.154,2.641-3.154,2.641S61.994,54.548,53.574,58.754z"/>
		<path fill="#FFFFFF" d="M90.531,37.523c0,0-8.309-1.161-9.01-0.379c-0.706,0.782,1.94,0.735,4.189,0.769
			c0.941,1.641-0.547,8.77-1.672,16.155c-0.156,1.026-0.301,2.07-0.437,3.104c-1.048-0.937-3.097-2.067-6.304-0.938
			c-4.942,1.743-7.945,11.213-5.812,14.877c1.996,3.433,7.533,2.884,10.943-1.008c1.088,3.774,5.771,3.003,7.25,2.733
			c1.533-0.284-0.256-0.916-0.256-0.916s-1.744,0.308-2.268-0.122c-0.523-0.431-0.334-7.996,1.592-18.804
			C90.674,42.183,90.531,37.523,90.531,37.523z M82.39,68.782c-1.38,1.531-3.966,3.666-6.446,1.686
			c-3.613-2.883,0.144-11.367,1.803-12.548c1.456-1.039,3.987-1.895,5.741,0.149C82.904,62.688,82.533,66.994,82.39,68.782z"/>
		<path fill="#FFFFFF" d="M90.936,58.018c0,0-2.938,0.17-0.348-0.832c2.592-1.001,6.639-1.799,6.012,1.635
			c-0.627,3.436-3.904,12.045-1.828,12.072c2.074,0.026,3.428-2.084,3.592-2.722c0.16-0.637,0.33-3.312,1.922-6.905
			c1.592-3.594,0.527-3.475-0.617-2.914c-1.139,0.557-1.588-0.719,0.576-1.297c2.164-0.581,6.02,0.003,4.236,3.758
			c-1.783,3.756-4.889,9.69-2.453,11.195c0.904,0.107,4.104,0.562,5.105-1.974c1.004-2.534,3.668-11.782,3.686-12.767
			c0.02-0.985,0.699-6.147-6.301-2.733c0,0-1.602-0.55,2.758-2.048c4.359-1.498,6.074,3.643,6.043,4.792
			c-0.033,1.154,0.688-0.205,0.875-0.365c0.193-0.162,6.479-4.661,8.83-1.496c2.355,3.164-2.893,3.975-3.748,2.544
			c-0.857-1.433-1.902-3.111-5.086,0.58c-3.184,3.689-3.992,12.652-3.992,12.652s0.096,1.262,2.201,0.947
			c2.107-0.311,1.08,0.935-1.873,0.867c-2.949-0.069-13.402,1.048-12.5-1.935c0.904-2.979-5.627,5.444-7.037-0.39
			C89.578,64.848,96.141,56.491,90.936,58.018z"/>
		<path fill="#FFFFFF" d="M140.232,59.481c-1.537-0.139-6.418-0.322-7.871,3.516c-1.449,3.836,1.875,6.632,3.326,9.355
			c1.449,2.721,4.414,7.901-0.885,5.776c-2.008-0.803-3.078-1.671-3.635-2.438c0.023-0.111-0.041-0.192-0.162-0.248
			c-0.686-1.135-0.279-1.995-0.279-1.995s-1.154,0.597-0.611,1.964c-0.322,0.058-0.666,0.181-0.941,0.37
			c-0.432,0.296-2.059,1.029-3.053,0.464c-0.994-0.564-1.35-1.653,0.713-5.831c2.062-4.179,2.76-6.02,2.871-6.609
			c0.111-0.587,0.447-3.715-3.178-4.891c-3.619-1.174-5.779,0.232-7.164,1.284c-1.383,1.054-0.742,2.728,1.068,3.313
			c1.809,0.588,1.812-1.509,1.812-1.509s1.361-2.44,3.559-2.106c2.197,0.335,0.578,3.676,0.578,3.676
			c-0.318,0.668-0.607,1.301-0.869,1.908c-3.197,0.373-9.141,0.891-9.807,5.241c-0.703,4.576,4.398,4.319,6.254,4.112
			c0.693-0.074,1.193-0.357,1.551-0.683c0.584,4.015,4.865,3.062,5.529,2.808c0.723-0.273,1.225-0.512,1.561-0.719
			c0.34,0.447,0.842,0.955,1.564,1.521c3.873,3.059,6.957,1.885,8.939,0.34c1.982-1.549,1.176-4.327-2.729-10.75
			c-3.902-6.424-3.076-6.253,0.162-6.995c0,0,2.861-0.476,2.16,2.253c-0.703,2.73,0.826,6.584,3.416,2.771
			C146.697,61.569,141.77,59.618,140.232,59.481z M123.459,73.652c-0.34,0.154-0.811,0.294-1.467,0.37
			c-2.002,0.238-3.166-1.367-2.303-4.48c0.691-2.482,4.109-3.084,5.473-3.227C123.797,69.667,123.355,72.013,123.459,73.652z"/>
	</g>
</g>
</svg>
