<?xml version="1.0" encoding="utf-8"?>
<!-- Generator: Adobe Illustrator 16.0.0, SVG Export Plug-In . SVG Version: 6.00 Build 0)  -->
<!DOCTYPE svg PUBLIC "-//W3C//DTD SVG 1.1//EN" "http://www.w3.org/Graphics/SVG/1.1/DTD/svg11.dtd">
<svg version="1.1" id="Layer_5" xmlns="http://www.w3.org/2000/svg" xmlns:xlink="http://www.w3.org/1999/xlink" x="0px" y="0px"
	 width="600px" height="600px" viewBox="0 0 600 600" enable-background="new 0 0 600 600" xml:space="preserve">
<g>
	<g>
		<path fill="#A067AB" d="M209.559,324.555c-8.052,0.018-14.567,3.977-14.559,8.844c0.011,4.867,6.54,8.803,14.59,8.784
			c6.336-0.013,11.707-2.474,13.712-5.888l-0.013-5.901C221.275,326.987,215.895,324.542,209.559,324.555z"/>
	</g>
	<g>
		<path fill="#4764AE" d="M390.411,324.555c-6.333,0.014-11.708,2.475-13.709,5.891l0.012,5.896c2.015,3.41,7.394,5.852,13.731,5.84
			c8.045-0.014,14.565-3.971,14.555-8.842C404.994,328.473,398.46,324.54,390.411,324.555z"/>
	</g>
	<path fill="#A067AB" d="M209.559,324.555c-8.052,0.018-14.567,3.977-14.559,8.844c0.011,4.867,6.54,8.803,14.59,8.784
		c6.336-0.013,11.707-2.474,13.712-5.888l-0.013-5.901C221.275,326.987,215.895,324.542,209.559,324.555z"/>
	<path fill="#4764AE" d="M390.411,324.555c-6.333,0.014-11.708,2.475-13.709,5.891l0.012,5.896c2.015,3.41,7.394,5.852,13.731,5.84
		c8.045-0.014,14.565-3.971,14.555-8.842C404.994,328.473,398.46,324.54,390.411,324.555z"/>
	<g>
		<path fill="#33477B" d="M271.626,343.271v23.163h-9.251v-21.312c0-10.349,5.209-15.486,15.559-15.486
			c4.655,0,8.217,1.029,10.823,3.084c2.604-1.987,6.166-2.948,10.827-2.948c10.35,0,15.484,5.14,15.416,15.485v21.312h-4.727
			c-3.017-0.207-4.521-1.645-4.521-4.525v-18.637c-0.207-3.769-2.264-5.617-6.302-5.617c-4.044,0-6.101,1.849-6.168,5.617v23.026
			h-9.185V343.27c-0.205-3.77-2.26-5.619-6.306-5.619C273.752,337.651,271.695,339.502,271.626,343.271z"/>
		<path fill="#33477B" d="M242.713,329.633c-8.359,0-13.086,3.289-14.186,10.005h9.115c0.479-1.712,2.262-2.535,5.481-2.535
			c3.769,0,5.687,1.03,5.894,3.086c0,1.983-1.985,3.149-5.894,3.629c-9.181,0.896-15.483,3.224-15.69,11.925
			c0,8.021,6.031,12.061,14.732,11.373c9.801-0.681,15.83-5.14,15.83-15.142v-12.335
			C257.788,332.922,252.719,329.633,242.713,329.633z M249.157,351.561c0,5.141-3.083,8.154-8.155,8.154
			c-2.879,0-4.387-1.37-4.591-4.248c0-2.674,1.85-4.389,5.483-5.068c2.67-0.55,5.14-1.305,7.264-2.195L249.157,351.561
			L249.157,351.561z"/>
		<path fill="#33477B" d="M355.014,329.633c-11.027,0.068-16.58,6.236-16.58,18.568c0,12.334,5.48,18.709,16.446,19.051
			c8.908,0,13.843-4.25,15.826-11.922h-6.715c-1.231,0-2.259,0.408-3.085,1.299c-1.78,1.713-3.766,2.604-5.895,2.604
			c-4.449,0-6.85-2.812-7.191-8.36h23.436C371.941,336.692,366.525,329.633,355.014,329.633z M347.958,344.368
			c0.683-4.799,3.015-7.266,6.92-7.266c3.903,0,6.166,2.467,6.716,7.266H347.958z"/>
		<g>
			<path fill="#33477B" d="M330.348,336.692c2.537,0,4.523-1.919,4.523-4.521v-1.99h-5.484v-5.754c0-2.401-1.988-4.59-4.381-4.59
				h-4.73v10.304h-3.215v1.987c0,2.127,1.342,3.783,3.213,4.32v22.992c-0.067,4.04,1.576,6.167,5,6.506
				c3.43,0.348,6.647,0.348,9.597,0.07v-6.919h-2.808c-1.785,0-2.678-0.821-2.678-2.33v-20.076L330.348,336.692L330.348,336.692z"/>
			<g>
				<g>
					<path fill="#4764AE" d="M338.475,326.575v3.606v1.987c0,0.736-0.096,1.447-0.273,2.123c3.312-5.344,8.99-8.215,16.791-8.266
						h0.013h0.009c6.168,0,11.021,1.809,14.42,5.383c1.727,1.809,3.043,4.059,3.955,6.73c-0.175-8.674-1.884-17.197-4.983-25.172
						l-32.847,13.605h2.916V326.575L338.475,326.575z"/>
				</g>
			</g>
		</g>
	</g>
	<g>
		<path fill="#34B06E" d="M306.65,327.084c2.694,0.769,4.979,2.008,6.803,3.736v-0.68v-3.607h3.212v-6.697v-3.608h3.606h4.729
			c3.873,0,7.201,3.006,7.862,6.817l33.861-14.024c-2.988-6.532-6.949-12.62-11.75-18.062l0.719,0.713
			c-0.065-0.092-0.146-0.19-0.217-0.282c0.724-1.101,0.778-2.513,0.056-3.61l1.86-1.891c3.84,0.986,9.368-1.092,13.836-5.581
			c5.688-5.702,7.496-13.108,4.047-16.544c-3.453-3.432-10.849-1.6-16.53,4.104c-4.474,4.489-6.529,10.028-5.528,13.862
			l-1.859,1.888c-1.125-0.732-2.566-0.672-3.672,0.098l0.012,0.01c-0.006,0.001-0.012,0.004-0.018,0.009l0.422,0.417
			c-5.49-4.761-11.766-8.794-18.766-11.844L306.65,327.084z"/>
	</g>
	<g>
		<path fill="#FFDE17" d="M296.236,326.336c1.062-0.112,2.174-0.172,3.348-0.172c0.952,0,1.857,0.055,2.742,0.137l23.027-55.594
			c-6.652-2.455-13.457-3.877-20.225-4.351h0.169c-0.239-1.325-1.219-2.394-2.532-2.669l-0.021-2.652
			c3.408-2.012,5.85-7.396,5.836-13.729c-0.016-8.053-3.971-14.566-8.836-14.559c-4.868,0.01-8.801,6.543-8.79,14.592
			c0.014,6.34,2.473,11.709,5.892,13.707l0.019,2.66c-1.312,0.271-2.289,1.344-2.524,2.67l0.389-0.002
			c-7.349,0.533-14.543,2.158-21.338,4.807L296.236,326.336z"/>
	</g>
	<g>
		<path fill="#ED1652" d="M242.35,286.179l1.896,1.866c-0.736,1.123-0.671,2.57,0.103,3.674l0.01-0.01c0,0.002,0,0.002,0.004,0.002
			c-4.512,5.242-8.354,11.199-11.32,17.81l40.59,16.815c1.35-0.201,2.779-0.309,4.303-0.309c4.347,0,7.928,0.791,10.865,2.404
			c0.969-0.51,2.018-0.926,3.139-1.26l-22.498-54.316c-6.272,2.871-12.135,6.637-17.412,11.186l0.074-0.074
			c-0.552-0.383-1.195-0.592-1.838-0.61c-0.646-0.024-1.298,0.14-1.859,0.513l-1.889-1.865c0.987-3.836-1.09-9.365-5.58-13.838
			c-5.703-5.68-13.111-7.49-16.547-4.041c-3.435,3.447-1.597,10.85,4.104,16.529C232.982,285.124,238.518,287.181,242.35,286.179z"
			/>
	</g>
	<g>
		<path fill="#A067AB" d="M242.713,326.028c11.667,0,16.417,4.284,18.096,9.057c1.432-2.949,3.604-5.207,6.467-6.736l-35.873-14.861
			c-2.51,6.59-4,13.329-4.561,20.043C229.146,329.448,233.747,326.028,242.713,326.028z"/>
	</g>
</g>
</svg>
