<?xml version="1.0" encoding="utf-8"?>
<!-- Generator: Adobe Illustrator 16.0.0, SVG Export Plug-In . SVG Version: 6.00 Build 0)  -->
<!DOCTYPE svg PUBLIC "-//W3C//DTD SVG 1.1//EN" "http://www.w3.org/Graphics/SVG/1.1/DTD/svg11.dtd">
<svg version="1.1" id="Layer_1" xmlns="http://www.w3.org/2000/svg" xmlns:xlink="http://www.w3.org/1999/xlink" x="0px" y="0px"
	 width="187.086px" height="76.629px" viewBox="0 0 187.086 76.629" enable-background="new 0 0 187.086 76.629"
	 xml:space="preserve">
<path fill-rule="evenodd" clip-rule="evenodd" fill="#FFFFFF" d="M148.691,52.871c8.051,0,14.577-6.537,14.577-14.6
	c0-8.063-6.526-14.599-14.577-14.599s-14.577,6.536-14.577,14.599C134.114,46.333,140.641,52.871,148.691,52.871L148.691,52.871z"/>
<path fill-rule="evenodd" clip-rule="evenodd" fill="#FFFFFF" d="M148.867,0c-16.711,0-30.915,10.741-36.108,25.703
	c0.198-1.468,0.289-3.07,0.289-4.829c0-5.54-3.177-11.555-7.722-14.819c-4.249-3.068-8.542-4.94-13.681-4.94H58.544V76.5h31.025
	c6.128,0,11.379-2.253,16.615-6.014c4.843-3.464,7.937-9.626,7.937-15.464c0-0.272-0.003-0.543-0.008-0.811
	c6.038,13.177,19.328,22.329,34.754,22.329c21.107,0,38.219-17.135,38.219-38.271S169.975,0,148.867,0L148.867,0z M77.875,17.455
	h8.092c3.946,0,8.092,0.692,8.092,5.731c0.289,4.549-2.431,7.245-7.883,7.245l-8.301,0.03V17.455L77.875,17.455z M92.889,57.996
	c-1.683,1.389-3.957,1.29-6.036,1.29h-9.007V45.445h8.215c4.974,0,9.23,1.291,9.445,7.102C95.506,54.43,94.374,56.906,92.889,57.996
	L92.889,57.996z M111.104,43.466c-1.482-1.963-3.637-3.816-6.757-5.614c3.525-1.823,5.786-4.056,7.135-7.036
	c-0.475,2.416-0.727,4.911-0.727,7.467C110.756,40.042,110.876,41.771,111.104,43.466L111.104,43.466z M148.691,58.183
	c-10.979,0-19.878-8.915-19.878-19.912c0-10.997,8.899-19.911,19.878-19.911c10.978,0,19.877,8.915,19.877,19.911
	C168.568,49.268,159.669,58.183,148.691,58.183L148.691,58.183z"/>
<polygon fill-rule="evenodd" clip-rule="evenodd" fill="#FFFFFF" points="34.886,28.781 19.266,28.781 19.266,0.978 0,0.978 
	0,76.629 19.171,76.629 19.171,47.101 34.791,47.101 34.791,76.629 54.309,76.629 54.309,0.978 34.886,0.978 34.886,28.781 "/>
</svg>
