<?xml version="1.0" encoding="utf-8"?>
<!-- Generator: Adobe Illustrator 16.0.0, SVG Export Plug-In . SVG Version: 6.00 Build 0)  -->
<!DOCTYPE svg PUBLIC "-//W3C//DTD SVG 1.1//EN" "http://www.w3.org/Graphics/SVG/1.1/DTD/svg11.dtd">
<svg version="1.1" id="content" xmlns="http://www.w3.org/2000/svg" xmlns:xlink="http://www.w3.org/1999/xlink" x="0px" y="0px"
	 width="138.776px" height="92.117px" viewBox="0 0 138.776 92.117" enable-background="new 0 0 138.776 92.117"
	 xml:space="preserve">
<g>
	<path fill-rule="evenodd" clip-rule="evenodd" fill="#FFFFFF" d="M32.054,38.103c0.382,0.505,1.413,0.698,2.377,1.009
		c0.964,0.311,1.86,0.742,2.824,1.394c0.964,0.653,1.995,1.526,2.646,2.882c0.65,1.355,0.921,3.192,1.078,4.747
		s0.204,2.828,0.601,4.11c0.396,1.282,1.144,2.572,2.086,3.909c0.942,1.336,2.08,2.717,3.409,3.328
		c1.329,0.609,2.849,0.447,4.171,0.502s2.446,0.327,3.094,0.854c0.646,0.526,0.817,1.309,1.253,1.837
		c0.437,0.528,1.138,0.804,1.733,1.111c0.597,0.308,1.088,0.647,1.556,1.018c0.062,1.469,0.137,2.937,0.253,4.5
		c0.114,1.562,0.27,3.221,0.278,4.426c0.009,1.206-0.129,1.959-0.352,2.788c-0.222,0.828-0.53,1.729-0.533,2.517
		c-0.004,0.788,0.295,1.462,0.383,2.101c0.089,0.64-0.033,1.245-0.111,1.965c-0.078,0.722-0.113,1.56-0.279,2.31
		c-0.165,0.75-0.461,1.414-0.718,2.033c-0.258,0.62-0.477,1.194-0.882,1.415c-0.407,0.221-1,0.088-1.568,0.2
		c-0.568,0.113-1.111,0.472-1.367,0.885c-0.255,0.413-0.222,0.88,0.165,1.241c0.388,0.359,1.128,0.612,1.797,0.706
		c0.669,0.096,1.265,0.03,1.811,0.021c0.546-0.01,1.043,0.037,1.416-0.064c0.374-0.103,0.625-0.353,0.809-0.658
		c0.371-0.625,0.482-1.445,0.382-2.204c0.777,0.076,1.554,0.157,2.259,0.251c0.704,0.094,1.335,0.201,1.847,0.192
		c0.512-0.008,0.902-0.132,1.256-0.315c0.355-0.185,0.675-0.429,0.713-1.063c0.039-0.635-0.204-1.662-0.254-3.041
		c-0.05-1.382,0.093-3.115,0.253-4.455c0.159-1.34,0.337-2.285,0.291-3.017c-0.046-0.73-0.315-1.246-0.459-1.867
		s-0.16-1.35-0.275-2.538c-0.113-1.189-0.323-2.84-0.559-4.488c0.297-0.312,0.655-0.561,1.302-0.849
		c0.647-0.289,1.581-0.62,2.824-0.682c1.244-0.062,2.796,0.146,4.178,0.275s2.594,0.18,4.087-0.355
		c1.492-0.534,3.269-1.654,4.968-2.149c1.699-0.494,3.322-0.361,4.06,0.06s0.59,1.132,0.823,1.845
		c0.234,0.714,0.854,1.429,1.424,2.349c0.571,0.922,1.098,2.049,1.484,3.681c0.389,1.631,0.639,3.767,0.793,5.271
		c0.153,1.504,0.212,2.377,0.224,3.252c-0.61,0.762-1.233,1.513-1.915,2.33c-0.681,0.817-1.418,1.7-1.904,2.143
		c-0.488,0.441-0.724,0.441-1.083,0.482c-0.359,0.042-0.841,0.124-1.185,0.289c-0.344,0.164-0.551,0.41-0.674,0.835
		c-0.123,0.424-0.165,1.025,0.074,1.355c0.24,0.33,0.76,0.387,1.271,0.421c0.512,0.033,1.015,0.043,1.512,0.002
		c0.199-0.007,0.404,0.147,0.36,0.405s-0.336,0.62-0.334,1.014c0.002,0.392,0.299,0.814,0.852,1.066
		c0.553,0.251,1.362,0.331,2.129,0.395c0.768,0.063,1.492,0.111,1.751-0.338c0.258-0.447,0.049-1.392,0.099-2.275
		c0.05-0.883,0.357-1.707,0.722-2.717s0.783-2.207,1.154-3.189c0.37-0.982,0.691-1.751,1.009-2.358
		c0.317-0.608,0.631-1.055,0.984-1.452c0.355-0.398,0.751-0.75,0.802-1.439c0.05-0.688-0.248-1.719-0.44-2.73
		s-0.281-2.008-0.454-2.949c-0.172-0.944-0.429-1.836-0.44-2.617c-0.013-0.782,0.22-1.456,0.262-2.59
		c0.041-1.135-0.108-2.732-0.022-3.938c0.086-1.207,0.407-2.023,0.571-2.938c0.164-0.914,0.173-1.925,0.061-2.922
		c0.273-0.163,0.635-0.135,1.005,0.258c0.367,0.394,0.743,1.155,0.984,1.938c0.242,0.782,0.349,1.587,0.448,2.217
		c0.099,0.63,0.19,1.084,0.382,1.483c0.193,0.398,0.486,0.74,0.8,0.957c0.314,0.217,0.648,0.31,1.095,0.381s1.003,0.123,1.561,0.126
		c-0.032-0.464-0.179-0.924-0.418-1.272c-0.24-0.35-0.574-0.589-1.003-0.934c-0.431-0.346-0.958-0.797-1.486-1.248
		c-0.181-0.738-0.378-1.473-0.561-2.163c-0.182-0.69-0.348-1.335-0.634-1.877c-0.287-0.542-0.692-0.98-1.519-1.503
		c-0.824-0.524-2.067-1.134-2.977-1.917c-0.911-0.784-1.488-1.742-2.35-2.587c-0.86-0.846-2.006-1.58-2.875-1.967
		c-0.869-0.388-1.464-0.431-2.065-0.807c-0.604-0.375-1.215-1.084-1.813-1.604c-0.597-0.52-1.181-0.85-1.829-1.626
		C82.855,44.7,82.141,43.478,81,42.62c-1.143-0.857-2.71-1.348-4.113-1.661s-2.643-0.445-3.342-0.293
		c-0.7,0.151-0.861,0.587-1.19,0.775c-0.329,0.189-0.826,0.133-1.29,0.284c-0.462,0.151-0.891,0.509-1.255,0.987
		c-0.362,0.479-0.663,1.079-0.842,1.708c-0.494-0.06-0.992-0.06-1.598,0.006c-0.604,0.065-1.315,0.196-2.235,0.565
		s-2.048,0.975-3.181,1.424c-1.132,0.449-2.27,0.739-3.429,1.473c-1.16,0.735-2.346,1.913-3.483,2.48
		c-1.138,0.566-2.229,0.52-3.211,0.135c-0.982-0.384-1.854-1.108-2.626-2.804c-0.772-1.697-1.443-4.367-1.735-6.288
		c-0.291-1.919-0.204-3.09,0.046-3.902c0.25-0.812,0.663-1.267,1.194-1.503c-0.391-0.266-0.809-0.493-1.307-0.683
		c-0.499-0.19-1.081-0.343-1.57-0.591c-0.488-0.249-0.884-0.594-1.501-0.811c-0.615-0.218-1.451-0.308-2.999-0.259
		c-1.549,0.049-3.81,0.238-5.268,0.308c-1.457,0.069-2.11,0.021-2.62,0.333c-0.509,0.311-0.874,0.984-1.19,1.729
		C31.939,36.779,31.672,37.598,32.054,38.103L32.054,38.103z M63.071,79.49c0.175,1.833,0.506,3.781,0.377,4.851
		c-0.128,1.068-0.717,1.257-1.275,1.541c-0.558,0.283-1.086,0.659-1.598,1.058c0.521-2.16,0.937-4.351,1.104-5.846
		s0.085-2.297,0.242-3.328c0.156-1.029,0.552-2.289,0.758-2.059C62.884,75.937,62.899,77.656,63.071,79.49L63.071,79.49z
		 M89.916,86.482c0.838-1.213,1.819-2.496,2.867-3.722c-0.353,0.861-0.691,1.727-1.056,2.835c-0.364,1.107-0.755,2.457-1.151,3.019
		c-0.396,0.561-0.801,0.333-1.281,0.43c-0.483,0.097-1.044,0.519-0.978,0.157S89.079,87.696,89.916,86.482L89.916,86.482z"/>
	<path fill-rule="evenodd" clip-rule="evenodd" fill="#FFFFFF" d="M17.655,24.629c0.317-1.664,2.164-2.646,3.737-2.646
		c2.224,0,3.751,2.042,3.751,4.146c0,5.748-9.682,10.877-14.705,10.877C4.766,37.005,0,31.12,0,25.644
		c0-3.888,2.844-7.368,6.233-9.002l2.314-1.12c2.103-1.014,4.811-2.3,5.688-4.629l0.152,0.211c1.21,1.694,2.617,3.313,4.176,4.72
		l1.513,1.361l0.453,0.439c-1.043-0.227-2.087-0.5-3.146-0.5c-3.828,0-10.167,2.979-10.167,7.398c0,2.92,2.83,6.248,5.87,6.248
		c2.36,0,6.218-1.664,6.218-4.463c0-0.696-0.484-1.709-1.316-1.694L17.655,24.629L17.655,24.629z"/>
	<path fill-rule="evenodd" clip-rule="evenodd" fill="#FFFFFF" d="M58.488,21.347c1.271-1.255,1.483-2.799,1.483-4.523
		c0-2.678-0.183-5.34-0.455-8.003c-0.272-2.542-0.242-6.203-2.572-7.897c1.998-0.348,4.04-0.56,6.082-0.636l3.313-0.136
		c0.544-0.015,1.074-0.031,1.618-0.031c0.363,0,0.728,0.031,1.09,0.046c-0.182,0.257-0.303,0.544-0.303,0.877
		c0,0.802,0.5,1.422,1.014,2.012l3.359,3.812l2.313-2.904c0.666-0.833,1.635-1.801,1.635-2.951c0-0.363-0.091-0.741-0.317-1.013
		c1.938,0,3.872,0.091,5.81,0.227c2.103,0.136,4.25,0.272,6.323,0.756c-1.104,0.333-1.709,1.529-2.026,2.557
		c-1,3.238-0.909,7.686-0.909,11.029c0,2.375,0.076,4.508,1.12,6.641c-2.633-0.362-5.325-0.558-7.988-0.665l-1.149-0.046l-0.5-0.014
		c2.013-2.664,1.71-6.416,1.71-9.577c0-0.893-0.061-1.801-0.121-2.708l-7.08,8.305L64.69,8.563v0.303
		c0,2.405,0.167,6.611,0.695,8.835c0.273,1.104,0.728,2.087,1.469,2.951C64.07,20.727,61.24,20.907,58.488,21.347L58.488,21.347z"/>
	<path fill-rule="evenodd" clip-rule="evenodd" fill="#FFFFFF" d="M114.298,23.616c-2.466,1.226-5.295,1.739-8.034,1.739
		c-7.185,0-14.221-3.737-14.221-11.679c0-6.43,5.099-11.089,11.513-11.089c2.815,0,5.734,0.877,8.171,2.269l2.798,1.604
		c1.195,0.681,2.513,1.346,3.919,1.346c0.136,0,0.273-0.015,0.424-0.03c-1.755,1.618-3.314,3.767-4.267,5.96
		c-0.756-3.585-5.824-5.884-9.152-5.884c-1.726,0-3.874,0.756-4.661,2.42l9.381,2.209l-0.982,4.311l-9.396-1.997
		c0,0.121,0,0.242,0,0.348c0,3.192,3.615,5.128,6.43,5.128c1.938,0,4.388-0.333,6.052-1.407l0.362-0.227L114.298,23.616
		L114.298,23.616z"/>
	<path fill-rule="evenodd" clip-rule="evenodd" fill="#FFFFFF" d="M135.176,15.613c-0.136-0.015-0.272-0.03-0.407-0.03
		c-1.953,0-3.133,1.952-3.98,3.404l-5.295,9l5.492,3.253c0.424,0.257,0.908,0.544,1.406,0.62c-0.045-0.136-0.076-0.271-0.076-0.438
		c0-1.498,1.181-2.799,2.725-2.799c2.088,0,3.736,1.771,3.736,3.827c0,2.603-2.451,4.555-4.932,4.555
		c-3.192,0-7.475-3.011-10.045-4.599c-2.845-1.771-5.734-3.434-8.745-4.932c1.951,0.029,3.373-2.073,4.388-3.466
		c1.467-2.057,6.808-10.167,6.808-12.481c0-0.514-0.166-0.998-0.363-1.482C129.095,11.649,132.256,13.541,135.176,15.613
		L135.176,15.613z"/>
	<path fill-rule="evenodd" clip-rule="evenodd" fill="#FFFFFF" d="M54.494,21.891c-1.951-1.724-2.299-4.463-2.724-6.928
		c-0.483-2.678-0.817-5.432-0.817-8.155c0-1.815,0.152-4.039,1.573-5.34c-5.598,0.484-11.18,1.634-16.596,3.102
		c-2.345,0.62-4.72,1.24-6.959,2.179l2.013,4.553c1.921-0.801,3.843-1.633,5.839-2.194l-1.77,4.539
		c-1.361-0.03-2.708-0.272-4.024-0.575l-2.633,6.172c0.438,0.031,0.894,0.046,1.332,0.046c0.832,0,1.663-0.062,2.48-0.122
		c-0.771,1.771-3.237,2.24-4.932,2.602c-0.045,0.833-0.105,1.651-0.105,2.482c0,1.015,0.136,3.963,1.634,4.07
		c0.136,0.016,0.317-0.06,0.438-0.106l2.27-0.651c2.329-0.665,4.796-3.055,6.006-5.097c0.787-1.333,1.438-2.739,1.906-4.207
		l5.521-0.908l0.106,0.696c0.136,0.847,0.258,1.695,0.258,2.572c0,1.225-0.272,2.224-0.999,3.207
		C47.217,22.874,51.454,22.073,54.494,21.891z M41.045,13.252l0.333-0.787c0.681-1.634,1.346-3.328,2.359-4.795l0.681,4.947
		L41.045,13.252z"/>
</g>
</svg>
