<?xml version="1.0" encoding="utf-8"?>
<!-- Generator: Adobe Illustrator 16.0.0, SVG Export Plug-In . SVG Version: 6.00 Build 0)  -->
<!DOCTYPE svg PUBLIC "-//W3C//DTD SVG 1.1//EN" "http://www.w3.org/Graphics/SVG/1.1/DTD/svg11.dtd">
<svg version="1.1" xmlns="http://www.w3.org/2000/svg" xmlns:xlink="http://www.w3.org/1999/xlink" x="0px" y="0px"
	 width="93.415px" height="93.415px" viewBox="0 0 93.415 93.415" enable-background="new 0 0 93.415 93.415" xml:space="preserve">
<g id="Layer_1" display="none">
	<g id="tR7WoN_1_" display="inline">
		
			<image overflow="visible" width="225" height="225" id="tR7WoN_2_" xlink:href="41E8D867A77BF7C9.jpg"  transform="matrix(0.4152 0 0 0.4152 0 0)">
		</image>
	</g>
</g>
<g id="desktop" display="none">
	<path display="inline" fill="#333333" d="M89.362,65.142c0,1.376-1.116,2.491-2.491,2.491H5.66c-1.376,0-2.491-1.115-2.491-2.491
		V12.524c0-1.376,1.115-2.491,2.491-2.491h81.211c1.375,0,2.491,1.115,2.491,2.491V65.142z"/>
	<path display="inline" fill="#FFFFFF" d="M85.771,55.615H6.76V15.007c0-0.688,0.558-1.246,1.245-1.246h76.52
		c0.688,0,1.246,0.558,1.246,1.246V55.615z"/>
</g>
<g id="tablet" display="none">
	<path display="inline" fill="#333333" d="M64.913,79.782c0,1.376-1.116,2.491-2.491,2.491H27.07c-1.376,0-2.492-1.115-2.492-2.491
		V31.723c0-1.375,1.116-2.491,2.492-2.491h35.352c1.375,0,2.491,1.115,2.491,2.491V79.782z"/>
	<path display="inline" fill="#FFFFFF" d="M61.459,73.155c0,0.688-0.558,1.246-1.246,1.246h-30.66c-0.688,0-1.246-0.558-1.246-1.246
		V34.483c0-0.688,0.558-1.245,1.246-1.245h30.66c0.688,0,1.246,0.558,1.246,1.245V73.155z"/>
	<circle display="inline" fill="#FFFFFF" cx="44.962" cy="77.444" r="1.842"/>
</g>
<g id="phne" display="none">
	<path display="inline" fill="#333333" d="M35.835,79.782c0,1.376-1.114,2.491-2.49,2.491H13.878c-1.376,0-2.491-1.115-2.491-2.491
		V43.877c0-1.375,1.115-2.491,2.491-2.491h19.467c1.376,0,2.49,1.116,2.49,2.491V79.782z"/>
	<path display="inline" fill="#FFFFFF" d="M32.314,72.24c0,0.688-0.558,1.246-1.246,1.246H16.846c-0.688,0-1.245-0.558-1.245-1.246
		V46.828c0-0.688,0.558-1.246,1.245-1.246h14.223c0.688,0,1.246,0.558,1.246,1.246V72.24z"/>
	<circle display="inline" fill="#FFFFFF" cx="23.845" cy="77.444" r="1.842"/>
</g>
<g id="final_icon">
	<path fill="#FFFFFF" d="M62.421,82.273c1.375,0,2.491-1.115,2.491-2.491V67.633h21.958c1.375,0,2.491-1.115,2.491-2.491V12.524
		c0-1.376-1.116-2.491-2.491-2.491H5.66c-1.376,0-2.491,1.115-2.491,2.491v52.618c0,1.376,1.115,2.491,2.491,2.491h5.727v12.149
		c0,1.376,1.115,2.491,2.491,2.491H62.421z M22.003,77.444c0-1.017,0.825-1.842,1.842-1.842c0.262,0,0.51,0.057,0.735,0.155
		c0.146,0.064,0.279,0.151,0.403,0.249c0.026,0.02,0.051,0.041,0.075,0.062c0.12,0.105,0.23,0.222,0.319,0.354
		c0,0,0.001,0.001,0.001,0.001c0.086,0.129,0.15,0.273,0.201,0.422c0.013,0.037,0.025,0.074,0.035,0.111
		c0.043,0.156,0.073,0.317,0.073,0.486c0,0.169-0.03,0.33-0.073,0.486c-0.01,0.038-0.022,0.075-0.035,0.112
		c-0.051,0.149-0.115,0.293-0.201,0.422c0,0.001,0,0.001-0.001,0.002c-0.089,0.132-0.199,0.249-0.319,0.354
		c-0.024,0.021-0.05,0.042-0.075,0.062c-0.124,0.098-0.256,0.186-0.403,0.25c-0.226,0.098-0.473,0.154-0.735,0.154
		C22.828,79.287,22.003,78.462,22.003,77.444z M24.578,73.485h-7.732c-0.688,0-1.245-0.558-1.245-1.246v-4.607V55.615v-8.787
		c0-0.688,0.558-1.246,1.245-1.246h7.732h3.73h2.76c0.688,0,1.246,0.558,1.246,1.246V72.24c0,0.688-0.558,1.246-1.246,1.246h-2.71
		H24.578z M44.962,79.287c-1.018,0-1.842-0.825-1.842-1.842c0-1.017,0.825-1.842,1.842-1.842s1.842,0.825,1.842,1.842
		C46.804,78.462,45.98,79.287,44.962,79.287z M61.459,73.155c0,0.688-0.558,1.246-1.246,1.246H35.835V43.877
		c0-1.375-1.114-2.491-2.49-2.491h-5.037v-6.903c0-0.688,0.558-1.245,1.246-1.245h30.66c0.688,0,1.246,0.558,1.246,1.245v21.131
		v12.018V73.155z M85.771,55.615H64.913V31.723c0-1.375-1.116-2.491-2.491-2.491H27.07c-1.376,0-2.492,1.115-2.492,2.491v9.663
		h-10.7c-1.376,0-2.491,1.116-2.491,2.491v11.737H6.76V15.007c0-0.688,0.558-1.246,1.245-1.246h76.52
		c0.688,0,1.246,0.558,1.246,1.246V55.615z"/>
</g>
</svg>
