<?xml version="1.0" encoding="utf-8"?>
<!-- Generator: Adobe Illustrator 16.0.0, SVG Export Plug-In . SVG Version: 6.00 Build 0)  -->
<!DOCTYPE svg PUBLIC "-//W3C//DTD SVG 1.1//EN" "http://www.w3.org/Graphics/SVG/1.1/DTD/svg11.dtd">
<svg version="1.1" id="Layer_3" xmlns="http://www.w3.org/2000/svg" xmlns:xlink="http://www.w3.org/1999/xlink" x="0px" y="0px"
	 width="285.385px" height="300.129px" viewBox="0 0 285.385 300.129" enable-background="new 0 0 285.385 300.129"
	 xml:space="preserve">
<g>
	<path fill="#FFFFFF" d="M67.512,53.903c0,6.24-5.059,11.299-11.299,11.299l0,0c-6.24,0-11.299-5.059-11.299-11.299V11.299
		C44.914,5.059,49.973,0,56.213,0l0,0c6.24,0,11.299,5.059,11.299,11.299V53.903z"/>
	<path fill="#FFFFFF" d="M238.512,53.903c0,6.24-5.059,11.299-11.299,11.299l0,0c-6.24,0-11.299-5.059-11.299-11.299V11.299
		c0-6.24,5.059-11.299,11.299-11.299l0,0c6.24,0,11.299,5.059,11.299,11.299V53.903z"/>
</g>
<path fill="#FFFFFF" d="M235.385,16.964H50c-27.615,0-50,22.386-50,50v183.165c0,27.615,22.385,50,50,50h185.385
	c27.613,0,50-22.385,50-50V66.964C285.385,39.35,262.998,16.964,235.385,16.964z M227.213,40.381
	c10.436,0,18.895,8.459,18.895,18.894s-8.459,18.894-18.895,18.894s-18.895-8.459-18.895-18.894S216.777,40.381,227.213,40.381z
	 M56.213,40.381c10.436,0,18.895,8.459,18.895,18.894s-8.459,18.894-18.895,18.894S37.318,69.71,37.318,59.275
	S45.777,40.381,56.213,40.381z M265.983,252.179c0,16.568-13.432,30-30,30H49.4c-16.568,0-30-13.432-30-30V120.537
	c0-16.568,13.432-30,30-30h186.583c16.568,0,30,13.432,30,30V252.179z"/>
</svg>
