<?xml version="1.0" encoding="utf-8"?>
<!-- Generator: Adobe Illustrator 16.0.0, SVG Export Plug-In . SVG Version: 6.00 Build 0)  -->
<!DOCTYPE svg PUBLIC "-//W3C//DTD SVG 1.1//EN" "http://www.w3.org/Graphics/SVG/1.1/DTD/svg11.dtd">
<svg version="1.1" id="Layer_1" xmlns="http://www.w3.org/2000/svg" xmlns:xlink="http://www.w3.org/1999/xlink" x="0px" y="0px"
	 width="705.1px" height="705.1px" viewBox="0 0 705.1 705.1" enable-background="new 0 0 705.1 705.1" xml:space="preserve">
<polygon fill="#FFFFFF" points="386.699,390.4 322.399,279.2 275.5,279.2 275.5,458.3 318.399,458.3 318.899,353.7 381.6,458.3 
	428.1,458.3 428.1,279.2 385,279.2 "/>
<polygon fill="#FFFFFF" points="603,279.2 450,279.2 450.3,320.1 503.199,320.1 502.899,458.3 548.199,458.3 548.399,320.1 
	603.199,320.1 "/>
<polygon fill="#FFFFFF" points="102.3,279.2 102.6,320.1 155.399,320.1 155.199,458.3 200.399,458.3 200.6,320.1 255.5,320.1 
	255.199,279.2 "/>
<path fill="#FFFFFF" d="M352.6,0C157.899,0,0,157.9,0,352.5C0,547.2,157.899,705,352.6,705.1c194.7,0,352.5-157.899,352.5-352.6
	C705.1,157.9,547.3,0.1,352.6,0z M564.5,564.5c-54.301,54.3-129.101,87.7-211.9,87.7c-82.9,0-157.6-33.4-211.9-87.7
	C86.5,510.2,53,435.4,53,352.6c0-82.8,33.5-157.5,87.699-211.899C195,86.4,269.8,52.9,352.6,52.9s157.5,33.5,211.9,87.8
	c54.199,54.3,87.699,129,87.699,211.899C652.199,435.4,618.699,510.2,564.5,564.5z"/>
</svg>
