<?xml version="1.0" encoding="utf-8"?>
<!-- Generator: Adobe Illustrator 16.0.0, SVG Export Plug-In . SVG Version: 6.00 Build 0)  -->
<!DOCTYPE svg PUBLIC "-//W3C//DTD SVG 1.1//EN" "http://www.w3.org/Graphics/SVG/1.1/DTD/svg11.dtd">
<svg version="1.1" xmlns="http://www.w3.org/2000/svg" xmlns:xlink="http://www.w3.org/1999/xlink" x="0px" y="0px" width="816px"
	 height="472.938px" viewBox="0 0 816 472.938" enable-background="new 0 0 816 472.938" xml:space="preserve">
<g id="artboard2">
	<rect fill-rule="evenodd" clip-rule="evenodd" fill="#C8E7DF" width="816" height="305.256"/>
	<g id="Layer_4">
		<path fill="#2FA5CC" d="M0,294.948v122.834c13.096,1.838,26.029,3.275,38.78,4.218c271.343,20.048,609.358-94.057,777.22-92.767
			v-34.285H0z"/>
		<path fill="#1694C4" d="M533.896,257.112c-7.814-1.402-54.588-17.094-66.909-22.15c-12.323-5.055-11.765-7.077-27.447-23.001
			c-15.685-15.925-11.482-34.377-6.161-44.993c5.321-10.617,35.287-20.98,48.451-21.232c13.163-0.254,22.687,2.779,35.29,12.132
			c12.603,9.353,32.767,14.408,37.809,8.595c5.04-5.813-53.213-72.546-65.816-78.612c-12.604-6.067-43.411-11.121-52.373-10.363
			c-8.962,0.759-19.046,2.274-34.449,3.286c-15.404,1.012-23.525,6.319-33.048,9.353c-9.523,3.033-27.729,12.891-33.608,19.716
			c-5.882,6.825-20.521,18.017-28.288,26.542c-7.766,8.524-14.826,40.072-22.404,71.028c-8.262,33.737-57.943,49.053-97.024,52.758
			C143.342,264.395,75.831,268.729,0,272.84v52.484h816v-44.539C808.159,281.796,625.992,273.642,533.896,257.112z"/>
		<g>
			<path opacity="0.05" d="M533.896,257.112c-7.814-1.402-54.588-17.094-66.909-22.15c-9.791-4.016-11.457-6.125-19.591-14.806
				c0.979,1.25,2.054,2.49,3.262,3.715c15.681,15.924,15.122,17.946,27.444,23.001c12.323,5.057,59.097,20.748,66.911,22.15
				c83.755,15.032,205.49,23.138,270.986,23.722v-11.959C808.159,281.796,625.992,273.642,533.896,257.112z"/>
			<path opacity="0.05" d="M500.229,99.76c3.533,1.701,10.656,8.172,18.966,16.73c-12.684-14.066-25.038-26.213-30.083-28.641
				c-12.604-6.067-43.411-11.121-52.373-10.363c-8.962,0.759-19.046,2.274-34.449,3.286c-15.404,1.012-23.525,6.319-33.048,9.353
				c-9.523,3.033-27.729,12.891-33.608,19.716c-5.882,6.825-20.521,18.017-28.288,26.542c-7.766,8.524-14.826,40.072-22.404,71.028
				c-8.262,33.737-58.196,47.302-97.024,52.758c0,0-76.015,5.951-187.917,12.967v14.022c72.46-4.23,138.851-9.317,187.917-15.378
				c44.479-5.647,100.028-19.323,108.141-52.459c7.579-30.956,14.64-62.504,22.404-71.028c7.767-8.525,22.407-19.717,28.288-26.542
				s24.086-16.683,33.608-19.716c9.521-3.033,23.433-15.775,38.476-18.935c16.048-3.37,19.448-0.926,28.41-1.685
				C456.206,80.658,487.626,93.692,500.229,99.76z"/>
		</g>
		<path fill="#27B0EC" d="M373.633,240.621c0,0-16.492-7.564-25.686-24.402c-9.192-16.838-11.086-19.522-11.086-17.082
			s5.868,39.011,48.245,51.246L373.633,240.621z"/>
		<path fill="#27B0EC" d="M421.913,263.088c0,0-24.757-0.657-45.036-16.443c-20.277-15.784-27.309-41.963-15.41-63.402
			c11.896-21.44,39.205-39.011,49.209-31.446s-0.271,23.471-1.353,30.403c-1.082,6.933-9.308,40.12,29.551,56.47
			c38.856,16.35-5.216,23.427-5.216,23.427L421.913,263.088z"/>
		<path fill="#FFFFFF" d="M514.092,155.705c0,0,7.51,1.909,11.43,4.437c3.921,2.528,13.162,3.034,14.284,2.022
			c1.122-1.011,0.562-3.565-3.642-6.459c-4.201-2.894-10.084-6.685-11.762-14.269c-1.68-7.582-2.521-10.11-7.844-13.396
			c-5.319-3.286-15.685-10.87-21.287-17.188c-5.599-6.319-24.644-13.145-33.605-16.43c-8.963-3.287-25.643-16.899-28.311-16.622
			c0,0,11.506-4.106,17.106-2.843c5.604,1.264,12.325,1.113,17.087,2.452c4.76,1.34,30.807-0.075,41.17,0
			c10.361,0.076,23.244,8.418,25.766,18.275c2.521,9.858,2.8,20.468,11.482,22.999c8.682,2.531,15.686,7.586,15.686,10.873
			c0,3.286-1.964,12.133,2.52,15.671c4.481,3.539,6.441,10.869,4.481,15.167c-1.961,4.297-1.12,8.847-1.401,10.616
			c-0.279,1.77-12.323,4.045-24.086,1.517C531.402,170.001,526.187,166.435,514.092,155.705z"/>
		<g>
			<path opacity="0.05" d="M433.576,77.725c-0.14,0.047-0.221,0.076-0.221,0.076c0.143-0.015,0.33,0.018,0.547,0.077
				C433.792,77.826,433.686,77.776,433.576,77.725z"/>
			<path opacity="0.05" d="M524.402,141.437c1.678,7.584,7.561,11.375,11.762,14.269c4.203,2.894,4.764,5.448,3.642,6.459
				c-1.122,1.012-10.363,0.506-14.284-2.022c-3.92-2.527-11.43-4.437-11.43-4.437c4.696,4.166,8.353,7.243,11.76,9.607
				c5.781,1.217,20.885-2.234,21.898-3.149c1.12-1.011,0.56-3.565-3.642-6.459c-4.198-2.894-10.083-6.685-11.763-14.269
				c-1.681-7.582-2.521-10.11-7.842-13.396c-5.321-3.286-15.686-10.87-21.285-17.188c-5.601-6.319-24.646-13.145-33.61-16.43
				c-5.028-1.845-20.378-9.297-33.35-15.433c5.841,3.348,18.153,12.772,25.407,15.434c8.962,3.285,28.007,10.11,33.605,16.43
				c5.603,6.318,15.968,13.902,21.287,17.188C521.881,131.326,522.723,133.854,524.402,141.437z"/>
		</g>
		<path fill="#70D4FF" d="M397.527,143.713c0,0,10.644-6.319,18.205-7.33c7.563-1.012,16.525-3.792,21.287-3.792
			s18.764-4.803,26.326-5.056c0,0-11.201-1.263-21.284,0c-10.084,1.264-18.486,4.044-23.525,4.802
			C413.492,133.097,405.093,136.129,397.527,143.713z"/>
		<path fill="#2FA5CC" d="M0,451V313.422c76.277,3.576,155.141,6.217,187.917-1.04c24.327-2.763,48.313-7.567,72.432-11.543
			c14.313-2.357,28.707-4.5,43.212-5.639c12.555-0.985,25.59-1.911,38.154-0.611c10.517,1.089,20.31,4.164,29.765,8.411
			c13.893,6.237,27.991,12.008,43.316,14.741c14.987,2.672,30.077,2.82,44.913-0.697c13.451-3.187,26.391-8.113,40.012-10.731
			c26.964-5.187,55.196-1.646,81.418,5.025c14.885,3.786,29.456,7.206,44.928,8.413c14.877,1.162,29.813,1.179,44.735,0.814
			c29.525-0.718,58.582-1.562,88.052,0.814c9.626,0.776,47.707,1.656,57.146,3.944V451H0z"/>
	</g>
	<g>
		<path fill="#51C6DB" d="M816,472.938V329.233C648.139,327.943,310.123,442.048,38.78,422c-12.751-0.942-25.685-2.38-38.78-4.218
			v55.155H816z"/>
	</g>
</g>
<g id="Layer_5">
</g>
</svg>
