<?xml version="1.0" encoding="utf-8"?>
<!-- Generator: Adobe Illustrator 16.0.0, SVG Export Plug-In . SVG Version: 6.00 Build 0)  -->
<!DOCTYPE svg PUBLIC "-//W3C//DTD SVG 1.1//EN" "http://www.w3.org/Graphics/SVG/1.1/DTD/svg11.dtd">
<svg version="1.1" id="Layer_5" xmlns="http://www.w3.org/2000/svg" xmlns:xlink="http://www.w3.org/1999/xlink" x="0px" y="0px"
	 width="210px" height="134.505px" viewBox="0 0 210 134.505" enable-background="new 0 0 210 134.505" xml:space="preserve">
<g>
	<g>
		<path fill="#A067AB" d="M14.558,91.807C6.507,91.825-0.009,95.783,0,100.651c0.011,4.867,6.54,8.802,14.59,8.784
			c6.336-0.012,11.707-2.473,13.712-5.888l-0.013-5.901C26.275,94.238,20.894,91.794,14.558,91.807z"/>
	</g>
	<g>
		<path fill="#4764AE" d="M195.411,91.807c-6.333,0.014-11.708,2.475-13.709,5.891l0.012,5.896c2.015,3.411,7.393,5.852,13.732,5.84
			c8.044-0.013,14.565-3.97,14.554-8.841C209.994,95.725,203.46,91.792,195.411,91.807z"/>
	</g>
	<path fill="#A067AB" d="M14.558,91.807C6.507,91.825-0.009,95.783,0,100.651c0.011,4.867,6.54,8.802,14.59,8.784
		c6.336-0.012,11.707-2.473,13.712-5.888l-0.013-5.901C26.275,94.238,20.894,91.794,14.558,91.807z"/>
	<path fill="#4764AE" d="M195.411,91.807c-6.333,0.014-11.708,2.475-13.709,5.891l0.012,5.896c2.015,3.411,7.393,5.852,13.732,5.84
		c8.044-0.013,14.565-3.97,14.554-8.841C209.994,95.725,203.46,91.792,195.411,91.807z"/>
	<g>
		<path fill="#33477B" d="M76.626,110.523v23.163h-9.251v-21.313c0-10.348,5.209-15.485,15.558-15.485
			c4.656,0,8.218,1.029,10.824,3.083c2.605-1.987,6.166-2.948,10.827-2.948c10.349,0,15.485,5.14,15.416,15.485v21.313h-4.726
			c-3.017-0.207-4.522-1.644-4.522-4.525v-18.638c-0.207-3.768-2.264-5.617-6.302-5.617c-4.044,0-6.1,1.849-6.168,5.617v23.027
			h-9.184v-23.163c-0.205-3.769-2.26-5.619-6.306-5.619C78.752,104.903,76.696,106.754,76.626,110.523z"/>
		<path fill="#33477B" d="M47.713,96.886c-8.36,0-13.086,3.289-14.185,10.004h9.114c0.48-1.712,2.262-2.535,5.482-2.535
			c3.769,0,5.687,1.03,5.893,3.086c0,1.983-1.985,3.15-5.893,3.629c-9.181,0.895-15.484,3.224-15.69,11.924
			c0,8.021,6.031,12.061,14.732,11.374c9.801-0.681,15.83-5.14,15.83-15.142v-12.335C62.788,100.175,57.719,96.886,47.713,96.886z
			 M54.157,118.813c0,5.14-3.083,8.155-8.155,8.155c-2.879,0-4.387-1.371-4.591-4.249c0-2.674,1.85-4.388,5.483-5.068
			c2.67-0.55,5.14-1.305,7.264-2.195v3.357H54.157z"/>
		<path fill="#33477B" d="M160.014,96.886c-11.028,0.068-16.581,6.236-16.581,18.568c0,12.333,5.481,18.708,16.447,19.051
			c8.908,0,13.843-4.251,15.826-11.923h-6.715c-1.231,0-2.259,0.409-3.085,1.3c-1.78,1.713-3.766,2.604-5.894,2.604
			c-4.449,0-6.85-2.812-7.192-8.36h23.436C176.941,103.944,171.526,96.886,160.014,96.886z M152.958,111.619
			c0.683-4.798,3.015-7.265,6.92-7.265c3.903,0,6.166,2.467,6.716,7.265H152.958z"/>
		<g>
			<path fill="#33477B" d="M135.347,103.944c2.538,0,4.524-1.919,4.524-4.522v-1.99h-5.484v-5.753c0-2.402-1.988-4.591-4.381-4.591
				h-4.731v10.304h-3.215v1.987c0,2.128,1.342,3.784,3.214,4.321v22.992c-0.068,4.04,1.575,6.167,5,6.506
				c3.429,0.348,6.647,0.348,9.596,0.07v-6.919h-2.808c-1.784,0-2.677-0.821-2.677-2.33v-20.076H135.347z"/>
			<g>
				<g>
					<path fill="#4764AE" d="M143.474,93.827v3.606v1.988c0,0.736-0.095,1.447-0.273,2.123c3.312-5.345,8.99-8.215,16.791-8.266
						h0.013h0.009c6.167,0,11.02,1.809,14.42,5.383c1.726,1.808,3.043,4.058,3.955,6.73c-0.175-8.674-1.884-17.197-4.984-25.171
						l-32.847,13.604h2.917V93.827z"/>
				</g>
			</g>
		</g>
	</g>
	<g>
		<path fill="#34B06E" d="M111.65,94.337c2.695,0.768,4.98,2.008,6.803,3.736v-0.68v-3.607h3.212v-6.697v-3.609h3.606h4.73
			c3.873,0,7.201,3.006,7.862,6.817l33.861-14.024c-2.988-6.532-6.949-12.62-11.75-18.061l0.72,0.713
			c-0.066-0.092-0.146-0.191-0.217-0.283c0.723-1.1,0.778-2.513,0.055-3.611l1.861-1.89c3.839,0.987,9.368-1.091,13.836-5.581
			c5.687-5.702,7.495-13.108,4.046-16.544c-3.453-3.432-10.848-1.599-16.53,4.104c-4.473,4.489-6.529,10.028-5.528,13.862
			l-1.859,1.887c-1.125-0.732-2.567-0.672-3.672,0.098l0.011,0.01c-0.005,0.001-0.011,0.004-0.017,0.009l0.421,0.417
			c-5.489-4.761-11.765-8.794-18.765-11.844L111.65,94.337z"/>
	</g>
	<g>
		<path fill="#FFDE17" d="M101.236,93.589c1.063-0.113,2.174-0.173,3.348-0.173c0.952,0,1.857,0.055,2.742,0.138l23.028-55.595
			c-6.653-2.455-13.457-3.877-20.225-4.35h0.169c-0.239-1.325-1.219-2.394-2.532-2.669l-0.022-2.652
			c3.408-2.012,5.85-7.396,5.836-13.729C113.565,6.507,109.61-0.007,104.744,0c-4.868,0.011-8.8,6.543-8.79,14.593
			c0.014,6.339,2.473,11.708,5.892,13.707l0.018,2.659c-1.312,0.272-2.289,1.344-2.524,2.67l0.389-0.002
			c-7.349,0.534-14.544,2.158-21.339,4.807L101.236,93.589z"/>
	</g>
	<g>
		<path fill="#ED1652" d="M47.35,53.431l1.895,1.866c-0.736,1.123-0.671,2.571,0.102,3.674l0.011-0.01c0,0.003,0,0.003,0.003,0.003
			c-4.511,5.242-8.354,11.199-11.32,17.809l40.59,16.815c1.349-0.201,2.779-0.308,4.302-0.308c4.347,0,7.929,0.79,10.866,2.404
			c0.968-0.509,2.018-0.926,3.139-1.26L74.439,40.108c-6.272,2.871-12.135,6.637-17.412,11.185l0.074-0.073
			c-0.551-0.384-1.195-0.592-1.837-0.611c-0.646-0.025-1.298,0.139-1.859,0.512l-1.889-1.864c0.987-3.836-1.09-9.366-5.581-13.839
			c-5.703-5.68-13.111-7.489-16.546-4.041c-3.435,3.448-1.597,10.85,4.104,16.53C37.982,52.375,43.518,54.433,47.35,53.431z"/>
	</g>
	<g>
		<path fill="#A067AB" d="M47.713,93.279c11.667,0,16.417,4.285,18.095,9.058c1.432-2.95,3.604-5.208,6.468-6.737L36.403,80.739
			c-2.51,6.59-4,13.329-4.561,20.042C34.146,96.7,38.747,93.279,47.713,93.279z"/>
	</g>
</g>
</svg>
