<?xml version="1.0" encoding="utf-8"?>
<!-- Generator: Adobe Illustrator 16.0.0, SVG Export Plug-In . SVG Version: 6.00 Build 0)  -->
<!DOCTYPE svg PUBLIC "-//W3C//DTD SVG 1.1//EN" "http://www.w3.org/Graphics/SVG/1.1/DTD/svg11.dtd">
<svg version="1.1" id="Layer_1" xmlns="http://www.w3.org/2000/svg" xmlns:xlink="http://www.w3.org/1999/xlink" x="0px" y="0px"
	 width="311.161px" height="136.936px" viewBox="-96.162 -42.318 311.161 136.936"
	 enable-background="new -96.162 -42.318 311.161 136.936" xml:space="preserve">
<g>
	<path fill="#FFFFFF" d="M-6.8,82.699c-0.027,0.044-0.075,0.096-0.075,0.142c-0.037,1.245-0.116,2.479-0.566,3.66
		c-0.06,0.145,0.052,0.351-0.216,0.328c-0.375-0.038-0.622,0.252-0.943,0.349c-0.968,0.29-1.929,0.829-3.06,0.215
		c0.474-0.231,0.911,0.128,1.302-0.138c-0.922-0.716-1.703-1.634-3.079-1.488c0.574-0.417,1-0.985,1.719-0.947
		c0.26,0.012,0.276-0.019,0.26-0.231c-0.026-0.514,0.237-0.483,0.595-0.328c0.519,0.229,1.046,0.452,1.574,0.645
		c0.44,0.164,0.916,0.216,1.29-0.132c0.402-0.376,0.36-0.905,0.206-1.36c-0.53-1.541-1.08-3.078-1.686-4.594
		c-0.415-1.036-0.778-2.096-1.567-2.968c-0.374-0.414-0.643-0.594-1.023-0.177c-0.277,0.298-0.294,1.266-0.876,0.756
		c-0.529-0.463,0.354-0.816,0.662-1.126c0.55-0.542,0.595-0.976,0.242-1.688c-0.797-1.613-2.137-2.383-3.303-3.698l0.001-0.009
		c-0.343-0.199-0.675-0.428-1.009-0.654c-0.45-0.309-0.936-0.45-1.48-0.396c-0.272,0.025-0.487-0.044-0.648-0.292
		c-0.623-0.972-1.591-1.451-2.627-1.831c-0.468-0.178-0.907-0.188-1.294,0.191c-0.076,0.075-0.184,0.112-0.387,0.234
		c0.033-0.455,0.078-0.812,0.083-1.167c0.018-1.856,0.04-3.718,0.043-5.574l0.417,0.127l0.808-0.521
		c0.435-0.083,0.201-0.405,0.074-0.67c-0.594-1.245-0.62-1.957-0.77-3.379c-0.169-1.693-0.989-3.229-0.94-4.85
		c0.023-0.712-0.104-1.399-0.354-2.073c-0.453-1.185-0.503-1.998-0.799-3.002c-0.175-0.606-0.036-1.29-0.316-1.884
		c-0.303-0.663-0.211-1.364-0.392-2.071c-0.28-1.08-0.234-1.891-0.463-2.866c-0.075-0.318-0.075-0.589-0.025-0.9
		c0.351-2.163-0.106-4.346-1.279-5.804c-0.284-0.35,1.058-0.636,0.989-1.103c-0.227-1.592-1.475-8.115-1.192-10.425
		c0.32-2.652,0.464-5.364,0.726-7.093c0.158-1.048,0.102-2.084,0.022-3.137c-0.158-2.066-0.79-4.153,0.434-6.147
		c0.69-1.127,0.663-2.375,0.271-3.628c-0.713-2.307-1.444-4.593-1.421-7.062c0.01-1.506-0.152-2.987,0.535-4.428
		c0.495-1.03,0.691-2.164,0.636-3.327c-0.054-1.135,0.087-2.258,0.261-3.39c0.246-1.604,0.084-3.174-0.669-4.648
		c-0.227-0.44-0.502-0.821-1.022-0.958c-0.78-0.212-1.481-0.594-2.119-1.083c-2.184-1.669-4.73-2.615-7.261-3.562
		c-0.116,0.037-0.229,0.08-0.333,0.138c-0.596,0.322-1.347,1.22-1.644,1.849c-0.3,0.625-0.427,1.955-0.482,2.199
		c-0.06,0.246-0.086,0.478-0.26,0.526c-0.178,0.044-0.445-0.029-0.595-0.166c-0.149-0.135-3.913-2.443-4.314-2.503
		c-0.401-0.058-0.804-0.115-0.804-0.115s-0.467-0.294-0.863-0.396c-0.397-0.096-0.407,0.427-0.527,0.074
		c-0.116-0.355,0.204-2.287,0.426-3.11c0.228-0.825,0.55-0.924,1.021-1.117c0.047-0.018,0.089-0.033,0.129-0.047
		c-0.189-0.049-0.379-0.077-0.566,0.001c-0.494,0.21-0.877-0.001-1.264-0.262c-1.181-0.794-2.368-1.577-3.55-2.37
		c-0.502-0.346-1.087-0.527-1.584-0.155c-0.496,0.373-1.047,0.544-1.591,0.78c-1.753,0.75-1.753,0.755-2.974-0.695
		c-0.073-0.087-0.143-0.182-0.213-0.269c-1.822-2.262-3.217-4.821-4.945-7.152c-0.668-0.897-1.502-1.547-2.545-1.924
		c-1.312-0.469-2.563,0.277-2.751,1.645c-0.069,0.478-0.114,0.948-0.069,1.438c0.401,4.068,1.616,7.903,3.367,11.569
		c0.903,1.896,1.821,3.803,3.246,5.39c1.133,1.257,2.522,1.294,3.827,0.224c0.718-0.59,0.91-1.345,0.937-2.192
		c0.032-1.189,0.032-2.386,0.045-3.581c0.003-0.289,0.091-0.508,0.423-0.517c0.21-0.008,0.403,0.006,0.488,0.242
		c0.103,0.283-0.104,0.39-0.28,0.55c-0.555,0.487-0.167,0.945,0.127,1.335c0.165,0.225,0.553,0.203,0.805,0.262
		c1.04,0.245,2.09,0.131,3.143,0.173c1.174,0.048,1.706,0.852,1.289,2.044c-0.216-0.316-0.399-0.585-0.302-0.966
		c0.055-0.24,0.075-0.49-0.251-0.514c-0.323-0.024-0.625,0.144-0.569,0.477c0.094,0.525-0.127,0.918-0.337,1.355
		c-0.363,0.75-0.141,1.378,0.495,1.88c0.053,0.042,0.108,0.088,0.16,0.13c0.002-0.194,0.007-0.379,0.018-0.539
		c0.039-0.55,1.92-1.104,1.92-1.104l-0.416-0.178c0,0,2.088,0.034,3.077,0c0.99-0.037,2.414-0.037,2.816,0
		c0.402,0.039,0.733-0.399,1.465,0c0.732,0.402,1.173,1.318,1.173,1.318l0.332,0.186c0,0,0.837,0.732,0.876,0.987
		c0.039,0.256,0.306,0.983,0.306,0.983s0.28,0.339,0.023,0.486c-0.259,0.142-4.173,0.179-4.687,0.215
		c-0.514,0.039-0.074,0.293-0.074,0.293l-2.195-0.033l0.124-0.185c0,0-2.32,0.145-3.056-0.035c-0.662-0.17-1.297-0.305-1.515-0.795
		c-0.009,0.165-0.013,0.321-0.027,0.476c-0.008,0.219,0.018,0.525-0.26,0.561c-0.664,0.076-1.312,0.113-1.105,1.071
		c0.002,0.026-0.089,0.109-0.123,0.104c-0.796-0.212-0.737,0.568-1.069,0.903c-0.5,0.503-0.219,0.956,0.215,1.08
		c1.011,0.278,1.345,1.344,2.082,1.733c1.374,0.731,1.3,1.874,1.408,3.049c0.036,0.397,0.056,0.798,0.134,1.182
		c0.075,0.399-0.047,0.699-0.382,0.864c-0.258,0.131-0.508,0.276-0.748,0.431c0.008,0.342,0.03,1.262-0.005,1.75
		c-0.05,0.611-0.286,0.891,0.517,1.601c0.798,0.707,2.575,1.306,2.575,1.306s-0.179,0.529,0.059,0.575
		c0.239,0.05,1.036-0.092,1.036-0.092l0.516,0.469l-1.833,2.028l0.176,0.341l3.117-2.649l1.697-2.162l0.291,0.138l-2.845,5.466
		l0.474-0.054l3.128-4.802c0,0,0.832,0.005,1.54-0.047c0.704-0.043,0.657-0.94,0.704-1.927c0.048-0.989-0.327-1.739-0.327-1.739
		l1.981-2.327c-0.194,0.092-0.36,0.166-0.67-0.012c0.097-0.267-0.015-0.37,0.103-0.641c0.378-0.696,0.065-1.434,0.174-2.146
		c-0.042-0.724,0.114-1.374,0.591-1.99c0.449-0.583,0.566-1.276,0.066-1.898c-0.408-0.507-0.591-2.961-0.833-3.463
		c0.055-0.12,0.154-0.179,0.298-0.17c0.349,0.03,1.104,2.199,1.368,2.347c1.922,1.061,1.926,1.204,0.578,2.848
		c-0.401,0.338-1.446,1.787-1.33,4.043c-0.229,0.536-0.245,0.651-0.229,0.947l0.068-0.079l0.363,0.001v3.333l0.213-1.502
		c0,0,0.648,1.321,0.742,1.794c0.092,0.467,0.846,2.444,1.176,2.681c0.328,0.241,1.046,2.9,1.046,2.9l0.073,0.89l-1.401-1.91
		l-0.47,0.236l-1.718-2.104l-0.277,0.186c0,0,0.298,3.004,0.298,3.853c0,0.847-0.469,1.693-0.613,2.261
		c-0.143,0.565,0.175,1.148,0.175,1.148s-2.201,5.745-2.838,7.475c-0.069,0.216-0.126,0.376-0.164,0.455
		c-0.037,0.095,0.03-0.095,0.164-0.455c0.359-1.163,1.06-3.872,1.06-3.872s-0.185,0.144-0.559,0.424
		c-0.382,0.284-0.333,0.798-0.283,1.368c0.045,0.561-0.693,0.705-0.693,0.705l-0.202-0.378l1.995-5.747l-0.587-0.136l-3.627,11.437
		c0,0-0.324-0.424-0.426-0.833c-0.101-0.413,1.206-4.015,1.206-4.015l0.114-1.032l3.612-10.777l-0.236-0.085l-7.092,20.507
		c0,0-0.145,1.217-0.379-1.23c-0.232-2.444,5.795-17.789,5.795-17.789s-3.344,7.294-3.909,8.896
		c-0.565,1.604-3.106,9.082-3.106,9.082l-0.522,0.283l-0.168-0.736l3.703-11.335l-0.245-0.098c0,0-2.958,8.028-3.854,8.403
		s-1.08,0.062-1.08,0.062l-1.698,2.245l0.897-2.306l-0.145-0.186l-0.962,0.93l0.45-2.053c0,0-0.757,0.695-0.757,0.371
		c0-0.333,0.377-0.85,0.468-1.083c0.097-0.236-0.013-0.498-0.013-0.498l-1.967,1.419l1.253-1.796l-0.205-0.202l-1.944,1.084
		l-0.155-0.212l3.691-3.572l-0.154-0.168l-1.726,1.776l-1.885,0.613l-0.265-0.266l4.691-4.533l-0.235-0.233l-4.396,3.859
		c0,0-1.252-2.402-1.581-2.828c-0.33-0.425-1.319-0.989-1.319-0.989s-0.092-0.846-0.14-1.269c-0.045-0.42-1.044-5.697-1.044-5.697
		v-0.604c-0.104,0.737-0.368,1.411-0.586,2.108c-0.194,0.597-0.354,1.199-0.448,1.817c-0.31,2.031-0.606,4.067-1.103,6.058
		l0.019,0.064c-0.078,0.277-0.141,0.466-0.141,0.466l-0.518,0.342v1.364c0,0-0.43,0.325-0.511,0.343
		c-0.076,0.014-0.169,0.851-0.169,0.851l0.169,0.514v0.679c0,0-0.247,0.27-0.511,0.346c-0.265,0.076-0.706,1.05-0.855,1.361
		c-0.145,0.314-0.414,0.843-0.51,0.854c-0.095,0.011-0.313,0.226-0.851,0.168c-0.539-0.053-0.682-0.339-0.682-0.339
		s-0.392-0.251-0.515-0.514c-0.125-0.263-0.511-0.511-0.511-0.511s-0.327-0.203-0.515-0.51c-0.188-0.317-0.84-0.877-1.021-1.025
		c-0.186-0.152-0.963-0.882-1.196-1.027c-0.234-0.143-0.513,0-0.513,0l-0.172,0.342c0,0-0.058,0.314,0,0.511
		c0.06,0.2,0.284,0.765,0.513,1.023c0.229,0.264,0.433,0.161,0.513,0.512c0.082,0.355,0.501,0.65,0.683,0.854
		c0.186,0.203,0.127,0.091,0.34,0.512c0.215,0.417,0.342,0.682,0.342,0.682s-0.441,0.648-0.682,0.684
		c-0.242,0.034-1.34-0.416-1.534-0.512c-0.199-0.093-1.086-0.115-1.537-0.173c-0.45-0.054-0.642,0.141-0.683,0.173
		c-0.043,0.032-0.582,0.178-0.684,0.34c-0.065,0.109,0,0.511,0,0.511h-0.341c0,0-0.525,0.106-0.681,0.174
		c-0.154,0.068-0.028,0.581,0.169,0.85c0.199,0.273,0.86,0.577,1.197,0.685c0.332,0.107,1.23,0.19,1.533,0.344
		c0.305,0.151,1.446,0.311,1.538,0.341c0.09,0.026,0.34,0.508,0.34,0.508v0.684c0,0-1.771,0.004-2.049,0
		c-0.276-0.003-0.799,0.259-1.024,0.34c-0.225,0.085-0.563,0.244-0.682,0.345c-0.117,0.099-0.048,0.477,0,0.679
		c0.052,0.204,0.586,0.319,0.682,0.343c0.097,0.017,0.682,0,0.682,0s0.646-0.092,0.856-0.172c0.209-0.077,0.945-0.235,1.191-0.171
		c0.247,0.061,0.882,0.119,1.026,0.171c0.142,0.049,2.061,0.504,2.386,0.509c0.329,0.012,1.279-0.145,1.537-0.167
		c0.258-0.018,0.507,0,0.507,0s0.287,0.04,0.558,0.08c0.267-0.101,0.597-0.243,0.814-0.386c0.399-0.266,1.246-0.936,1.376-1.203
		c0.135-0.267,0.07-1.179,0.093-1.735c0.023-0.561-0.111-2.049-0.154-2.433c-0.043-0.373-0.666-1.043-0.804-1.043
		c-0.132,0-0.799-0.113-0.799-0.113l1.047-0.09c0,0,0.38-0.243,1.069,0c0.688,0.245,1.533,1.143,1.915,1.65
		c0.415,0.559,0.772,1.565,0.822,1.938c0.068,0.491-0.144,1.967-0.531,2.485v0.016c0.18-0.127,0.356-0.244,0.555-0.338
		c1.672-0.8,2.553-2.164,2.877-3.956c0.187-1.034,0.43-2.059,0.648-3.082c0.061-0.287,0.092-0.636,0.465-0.616
		c0.47,0.027,0.331,0.442,0.36,0.731c0.011,0.141,0.005,0.286-0.008,0.428c-0.076,0.976,0.068,1.872,0.91,2.529
		c0.116,0.091,0.242,0.293,0.222,0.429c-0.182,1.203,0.156,2.366,0.24,3.543c0.157,2.309-0.799,2.818-0.395,3.932
		c0.315,0.862,1.535,3.108,1.644,3.998c0.088,0.701-0.804,0.587-1.141,0.981c-1.57,1.847-4.619,2.859-5.836,5.019
		c-0.675,1.203,0.168,3.15-0.322,4.031c-0.389,0.707-0.281,0.544-0.884,0.992c-0.323,0.239-0.563,0.659-0.824,1.162
		c-0.358,0.692-0.651,1.3-1.141,1.863c-0.77,0.874-1.536,1.76-2.303,2.629c-0.191,0.222-0.402,0.471-0.295,0.762
		c0.214,0.57-0.125,0.915-0.437,1.282c-0.479,0.56-0.979,1.109-1.461,1.669c-0.147,0.167-0.371,0.356-0.213,0.593
		c0.294,0.433,0.036,0.695-0.241,0.944c-1.989,1.761-3.063,4.061-3.865,6.518c-0.243,0.736-0.563,1.428-1.069,2.021
		c-1.039,1.248-2.075,2.49-3.123,3.727c-0.466,0.558-1.048,0.944-1.75,1.162c-2.455,0.761-4.376,2.227-5.803,4.37
		c-1.552,2.331-2.792,4.857-4.685,6.972c-1.312,1.461-1.829,3.481-3.733,4.607c-1.02,0.603-1.88,1.627-2.994,2.232
		c-0.631,0.345-0.621,0.886-0.015,1.289c0.422,0.281,0.071,0.455-0.096,0.648c-0.723,0.906-1.492,1.781-1.906,2.893
		c0.55-0.209,1.13-0.348,1.494-0.764c0.161-0.45-0.73-0.018-0.343-0.501c0.217-0.278,0.439-0.828,1.007-0.493
		c0.303,0.183,0.403,0.322,0.204,0.73c-0.313,0.645-0.774,1.263-0.746,2.041c0.006,0.168-0.037,0.365,0.034,0.495
		c0.281,0.521,2.306,0.505,2.686,0.066c0.49-0.564,0.575-1.517,1.534-1.657c0.038-0.005,0.099-0.149,0.081-0.204
		c-0.197-0.608,0.297-0.917,0.651-1.014c0.327-0.091,0.494,0.442,0.814,0.85c-0.691-0.218-1.118-0.218-0.627,0.515
		c0.032,0.052,0.044,0.105,0.064,0.16c-0.944,0.166-0.146,0.997-0.535,1.402c-0.507,0.53-0.472,1.124-0.032,1.695
		c0.378,0.5,0.309,0.772-0.358,0.781c-0.327,0.006-0.599,0.113-0.833,0.359c-0.357,0.375-0.721,0.428-1.042-0.072
		c-0.209-0.312-0.509-0.299-0.728-0.061c-0.545,0.607-1.303,0.46-1.979,0.602c-0.158,0.032-0.449,0.017-0.485-0.062
		c-0.287-0.664-0.649-0.548-1.091-0.178c-0.038,0.038-0.229-0.035-0.287-0.104c-0.134-0.174-0.021-0.312,0.123-0.431
		c0.594-0.476,1.155-1.006,1.878-1.31c0.238-0.104,0.57-0.112,0.661-0.455c-2.069-0.116-2.069-0.116-2.15-2.386
		c-0.718,0.713-1.033,1.59-1.074,2.59c-0.017,0.569,0.137,1.146-0.113,1.689v1.367c0.339,1.096,1.059,1.75,2.217,1.88h3.414
		c1.127-0.426,2.384-0.509,3.335-1.413c0.551-0.52,1.081-1.025,1.267-1.767c0.218-0.862,0.729-1.509,1.484-1.886
		c1.188-0.59,1.382-1.58,1.058-2.648c-0.38-1.261,0.498-2.381,0.238-3.594c1.093-2.213,1.908-4.604,4.499-5.67
		c1.257-0.514,2.391-1.306,3.621-1.896c1.202-0.582,2.119-1.396,2.726-2.589c0.307-0.606,0.684-1.176,1.014-1.775
		c0.263-0.475,0.637-0.781,1.16-0.932c0.518-0.151,1.073-0.261,1.474-0.645c2.402-2.289,5.356-3.932,7.576-6.438
		c1.446-1.637,3.168-2.998,4.594-4.633c0.529-0.612,1.063-0.792,1.751-1.044c2.385-0.87,4.694-1.866,6.423-3.897
		c1.081-1.268,2.401-2.336,3.591-3.518c0.379-0.382,0.677-0.448,1.178-0.204c1.148,0.562,2.334,1.048,3.511,1.544
		c0.481,0.209,0.684,0.522,0.669,1.059c-0.041,1.508,0.147,2.996,0.333,4.491c0.062,0.465,0.15,0.993,0.171,1.435
		c0.004,0.088-0.003,0.171-0.003,0.259c-0.019,0.576,0.105,0.983,0.356,1.22l1.803-0.795c0.653,1.174,1.309,2.35,1.568,3.614
		c0.267,1.315,0.71,2.587,1.094,3.874c0.218,0.729,0.448,1.463,0.716,2.172c0.899,2.34,1.966,2.371,2.332,3.631
		c0.101,0.354,0.307,0.713,0.562,0.973c0.741,0.756,1.515,1.484,2.307,2.189c0.356,0.311,0.764,0.689,1.195,0.775
		c0.858,0.166,1.769,0.293,2.623,0.174c1.211-0.16,2.391-0.103,3.587-0.002c0.609,0.047,1.434,0.959,1.358,1.576
		c-0.135,1.148,0.461,1.948,1.159,2.735c0.292,0.338,0.581,0.688,0.827,1.055c0,0,0.597,1.226,0.746,1.632
		c0.642,1.777,2.058,2.987,3.257,4.312c1.724,1.922,5.539,1.665,6.391-1.366c0.226-0.802,0.058-1.633,0.354-2.403
		C-6.686,83.712-6.743,83.203-6.8,82.699 M-60.885-37.134c0.473,0.381,0.672,0.923,0.999,1.364c0.339,0.442,0.651,0.898,1.086,1.502
		c0.186-0.867-0.4-1.178-0.635-1.63c-0.261-0.501-0.589-0.962-0.889-1.442c1.13,0.503,1.565,1.539,2.037,2.525
		c0.199,0.405-0.036,0.687-0.563,0.649C-60.144-34.255-61.212-35.755-60.885-37.134 M-58.609-22.508
		c-1.16,0-3.143-2.883-4.828-6.834c-0.764-0.362-1.041-1.048-1.219-1.823c-0.035-0.148-0.047-0.287,0.094-0.374
		c0.084-0.047,0.164-0.065,0.24-0.053c-0.054-0.156-0.113-0.317-0.163-0.476c-1.834-5.28-2.166-9.559-0.747-9.559
		c0.51,0,1.185,0.563,1.92,1.526c0.038-0.017,0.083-0.024,0.128-0.024c0.254-0.012,0.396,0.153,0.443,0.406
		c-0.03,0.09-0.071,0.177-0.123,0.246c0.333,0.497,0.681,1.062,1.021,1.692c0.115,0.144,0.232,0.283,0.347,0.433
		c0.063,0.077,0.092,0.242,0.076,0.375c0.729,1.436,1.445,3.112,2.063,4.908C-57.525-26.786-57.19-22.508-58.609-22.508
		 M-55.954-30.892c-0.269,0.178-0.269-0.185-0.402-0.297c-0.87-0.729-1.591-1.599-2.366-2.434c0.903-0.559,1.229,0.146,1.656,0.688
		c0.371,0.471,0.515,1.092,1.06,1.453C-55.856-31.385-55.709-31.053-55.954-30.892 M-54.185-28.699
		c-0.364-0.167-0.728-0.33-1.087-0.509c-0.055-0.03-0.116-0.148-0.133-0.237c-0.011-0.031-0.015-0.055-0.018-0.081
		c-0.178-0.02-0.325-0.256-0.279-0.476c0.024-0.119,0.049-0.243,0.092-0.355c-0.007-0.173,0.019-0.354,0.111-0.547
		c0.038-0.076,0.007-0.219,0.007-0.289c0.293,0.036,0.581,0.074,0.87,0.105c0.409,0.043,0.485,0.253,0.38,0.826
		c-0.093,0.491-0.243,1.022,0.136,1.468C-54.13-28.76-54.154-28.727-54.185-28.699 M-48.045-26.524
		c-1.021-0.239-1.408-0.905-1.631-1.7c-0.004-0.01-0.009-0.016-0.009-0.026c-0.246-0.672-0.066-1.352,0.399-1.524
		c0.463-0.165,1.036,0.247,1.279,0.921c0.242,0.677,0.063,1.355-0.4,1.525c-0.003,0.002-0.013,0.002-0.017,0.002
		C-48.339-27.05-48.118-26.893-48.045-26.524 M-92.423,85.059c-0.138,0.075-0.261-0.099-0.246-0.243
		c0.031-0.383,0.253-0.576,0.685-0.604C-91.993,84.604-92.126,84.897-92.423,85.059 M-21.623,70.068
		c-0.179-0.411-0.34-0.695-0.437-1.005c-0.124-0.376-0.223-0.774-0.285-1.173c-0.031-0.208,0.115-0.321,0.323-0.208
		c0.854,0.454,1.598,1.005,1.851,2.013c0.047,0.196,0.187,0.367,0.301,0.578C-20.51,70.214-21.188,70.485-21.623,70.068"/>
	<g>
		<path fill="#FFFFFF" d="M48.492,50.678V25.699h5.702v25.029c0,3.139,0.529,9.566,8.359,9.566c7.876,0,8.406-6.428,8.406-9.566
			V25.699h5.702v24.979c0,9.037-5.362,15.028-14.058,15.028C53.856,65.704,48.492,59.715,48.492,50.678z"/>
		<path fill="#FFFFFF" d="M104.489,32.655l-5.313,2.076c-0.678-2.994-2.271-4.155-4.493-4.155c-3.381,0-4.977,1.453-4.977,4.35
			c0,3.479,3.622,4.158,7.971,5.652c5.653,1.933,9.472,5.072,9.472,11.791c0,7.1-6.041,13.334-13.384,13.334
			S80.432,60.292,80.432,52.37h5.701c0,4.78,3.428,7.922,7.632,7.922c4.252,0,7.683-3.188,7.683-7.922
			c0-3.723-1.692-5.027-5.652-6.426c-5.604-1.933-11.789-3.576-11.789-11.018c0-5.942,4.783-9.663,10.678-9.76
			C99.948,25.168,103.235,27.97,104.489,32.655z"/>
		<path fill="#FFFFFF" d="M128.312,41.692v5.412h-10.439v12.657h11.837v5.409h-17.585V25.699h17.585v5.41h-11.837v10.583H128.312z"
			/>
		<path fill="#FFFFFF" d="M134.205,50.678V25.699h5.701v25.029c0,3.139,0.533,9.566,8.359,9.566c7.874,0,8.407-6.428,8.407-9.566
			V25.699h5.698v24.979c0,9.037-5.359,15.028-14.057,15.028C139.568,65.704,134.205,59.715,134.205,50.678z"/>
		<path fill="#FFFFFF" d="M202.088,41.305l-12.563,24.929l-12.611-25.073l-5.65,24.01h-5.847l9.663-40.294l14.447,28.94
			l14.592-29.181l9.665,40.534h-5.799L202.088,41.305z"/>
	</g>
	<path fill="#FFFFFF" d="M1.507,65.173l13.784-27.711l3.318,5.881L7.753,65.173h29.958L25.294,43.167l2.836-5.706l15.641,27.71
		h6.847L27.801,24.863l-6.016,12.093l-6.824-12.093L-5.155,65.173H1.507z M22.117,49.554l5.481,9.716H17.284L22.117,49.554z"/>
	<g>
		<path fill="#FFFFFF" d="M5.433,19.453H3.546l-3.225-4.155c-0.431,0.072-0.86,0.094-1.339,0.094H-3v4.061h-1.552V3.209h3.535
			c4.419,0,6.713,2.604,6.713,6.116c0,2.602-1.289,4.729-3.798,5.613L5.433,19.453z M-1.113,14.029c3.702,0,5.182-1.982,5.182-4.706
			c0-2.723-1.504-4.729-5.182-4.729H-3v9.435H-1.113z"/>
		<path fill="#FFFFFF" d="M9.206,19.453H7.654l6.83-16.625h0.12l6.854,16.625H19.86l-1.123-2.819h-8.385L9.206,19.453z
			 M14.557,6.243l-3.655,9.005h7.263C18.188,15.249,14.557,6.243,14.557,6.243z"/>
		<path fill="#FFFFFF" d="M24.446,3.209h9.698v1.387h-8.146v8.122h7.406v1.386h-7.406v5.351h-1.552V3.209z"/>
		<path fill="#FFFFFF" d="M36.39,19.453h-1.554l6.83-16.625h0.12l6.855,16.625h-1.601l-1.122-2.819h-8.385L36.39,19.453z
			 M41.738,6.243l-3.654,9.005h7.262C45.37,15.249,41.738,6.243,41.738,6.243z"/>
		<path fill="#FFFFFF" d="M58.579,6.673v12.78h-1.458V2.875h0.144l10.941,13.114V3.209h1.458v16.576h-0.146L58.579,6.673z"/>
		<path fill="#FFFFFF" d="M74.199,19.453h-1.553l6.829-16.625h0.122l6.855,16.625H84.85l-1.121-2.819h-8.384L74.199,19.453z
			 M79.551,6.243l-3.654,9.005h7.259C83.18,15.249,79.551,6.243,79.551,6.243z"/>
		<path fill="#FFFFFF" d="M89.438,3.209H93.5c5.374,0,8.574,3.321,8.574,8.122c0,4.8-3.176,8.122-8.574,8.122h-4.062V3.209z
			 M93.354,18.042c4.802,0,7.095-2.771,7.095-6.711c0-3.942-2.293-6.713-7.095-6.713H90.99v13.424H93.354z"/>
		<path fill="#FFFFFF" d="M104.654,19.453h-1.553l6.83-16.625h0.121l6.854,16.625h-1.601l-1.121-2.819h-8.387L104.654,19.453z
			 M110.005,6.243l-3.654,9.005h7.26C113.636,15.249,110.005,6.243,110.005,6.243z"/>
		<path fill="#FFFFFF" d="M119.894,3.209h1.552v14.857h7.549v1.385h-9.101V3.209z"/>
	</g>
	<g>
		<path fill="#FFFFFF" d="M90.987,72.488h1.766l3.895,6.067l3.892-6.067h1.671l-4.727,7.356l5.71,8.886h-1.767l-4.826-7.5
			c0-0.026-4.824,7.5-4.824,7.5h-1.673c0,0,5.661-8.814,5.661-8.791L90.987,72.488z"/>
		<path fill="#FFFFFF" d="M108.375,88.73h-1.55V72.488h3.487c4.394,0,6.688,2.604,6.688,6.113c0,3.49-2.295,6.069-6.688,6.069
			h-1.938V88.73z M110.216,83.284c3.701,0,5.184-1.983,5.184-4.683c0-2.722-1.482-4.729-5.184-4.729h-1.841v9.411H110.216
			L110.216,83.284z"/>
		<path fill="#FFFFFF" d="M120.867,72.488h9.796v1.385h-8.241v8.123h7.356v1.361h-7.356v3.989h8.572v1.385h-10.127V72.488
			L120.867,72.488z"/>
		<path fill="#FFFFFF" d="M144.947,88.73h-1.887l-3.227-4.158c-0.428,0.073-0.859,0.096-1.337,0.096h-1.981v4.061h-1.554v-16.24
			h3.535c4.418,0,6.712,2.604,6.712,6.113c0,2.604-1.289,4.729-3.796,5.614L144.947,88.73z M138.404,83.305
			c3.699,0,5.18-1.981,5.18-4.705s-1.506-4.728-5.18-4.728h-1.889v9.433H138.404z"/>
		<path fill="#FFFFFF" d="M149.339,72.488h1.578V88.73h-1.578V72.488z"/>
		<path fill="#FFFFFF" d="M155.838,72.488h9.793v1.385h-8.243v8.123h7.358v1.361h-7.358v3.989h8.576v1.385h-10.129V72.488H155.838z"
			/>
		<path fill="#FFFFFF" d="M171.388,75.949v12.779h-1.457V72.153h0.143l10.939,13.111V72.488h1.46v16.575h-0.145L171.388,75.949z"/>
		<path fill="#FFFFFF" d="M186.219,80.609c0-4.828,3.608-8.314,8.219-8.314c2.748,0,4.923,1.125,6.377,3.035l-1.196,0.859
			c-1.216-1.574-2.936-2.484-5.205-2.484c-3.774,0-6.57,2.962-6.57,6.904c0,3.988,2.844,6.899,6.687,6.899
			c2.344,0,4.231-0.976,5.52-2.695l1.22,0.859c-1.602,2.099-3.868,3.248-6.784,3.248C189.827,88.921,186.197,85.432,186.219,80.609z
			"/>
		<path fill="#FFFFFF" d="M204.875,72.488h9.794v1.385h-8.242v8.123h7.357v1.361h-7.357v3.989H215v1.385h-10.125V72.488
			L204.875,72.488z"/>
	</g>
</g>
</svg>
