<?xml version="1.0" encoding="utf-8"?>
<!-- Generator: Adobe Illustrator 16.0.0, SVG Export Plug-In . SVG Version: 6.00 Build 0)  -->
<!DOCTYPE svg PUBLIC "-//W3C//DTD SVG 1.1//EN" "http://www.w3.org/Graphics/SVG/1.1/DTD/svg11.dtd">
<svg version="1.1" id="Layer_1" xmlns="http://www.w3.org/2000/svg" xmlns:xlink="http://www.w3.org/1999/xlink" x="0px" y="0px"
	 width="209.878px" height="92.362px" viewBox="0 0 209.878 92.362" enable-background="new 0 0 209.878 92.362"
	 xml:space="preserve">
<g>
	<path fill-rule="evenodd" clip-rule="evenodd" fill="#FFFFFF" d="M60.274,84.323c-0.019,0.03-0.051,0.066-0.051,0.096
		c-0.025,0.84-0.078,1.672-0.382,2.469c-0.04,0.098,0.035,0.237-0.146,0.221c-0.253-0.026-0.419,0.17-0.636,0.236
		c-0.653,0.195-1.301,0.559-2.064,0.145c0.32-0.156,0.615,0.085,0.879-0.094c-0.622-0.482-1.149-1.102-2.077-1.004
		c0.387-0.282,0.675-0.664,1.159-0.639c0.176,0.009,0.186-0.011,0.176-0.156c-0.018-0.345,0.16-0.326,0.401-0.221
		c0.35,0.154,0.705,0.305,1.062,0.435c0.297,0.11,0.618,0.146,0.87-0.088c0.271-0.255,0.243-0.612,0.139-0.918
		c-0.358-1.04-0.729-2.077-1.137-3.099c-0.28-0.699-0.525-1.413-1.057-2.001c-0.253-0.28-0.434-0.401-0.69-0.12
		c-0.187,0.202-0.199,0.854-0.591,0.511c-0.357-0.313,0.238-0.552,0.446-0.76c0.371-0.366,0.401-0.659,0.163-1.14
		c-0.537-1.088-1.441-1.606-2.227-2.494l0.001-0.006c-0.232-0.134-0.456-0.289-0.681-0.44c-0.303-0.21-0.632-0.306-0.998-0.269
		c-0.184,0.019-0.329-0.028-0.438-0.197c-0.42-0.654-1.073-0.977-1.772-1.234c-0.316-0.12-0.611-0.126-0.873,0.129
		c-0.052,0.05-0.124,0.076-0.261,0.159c0.023-0.308,0.053-0.547,0.056-0.788c0.012-1.252,0.027-2.508,0.029-3.76l0.281,0.086
		L50.4,69.03c0.294-0.055,0.135-0.272,0.05-0.45c-0.4-0.84-0.418-1.321-0.519-2.279c-0.114-1.144-0.667-2.178-0.634-3.272
		c0.016-0.481-0.07-0.944-0.239-1.398c-0.305-0.799-0.339-1.348-0.539-2.025c-0.118-0.41-0.024-0.871-0.213-1.271
		c-0.204-0.446-0.142-0.92-0.264-1.396c-0.189-0.728-0.158-1.276-0.312-1.934c-0.051-0.215-0.051-0.397-0.017-0.607
		c0.236-1.458-0.072-2.931-0.863-3.915c-0.192-0.235,0.713-0.428,0.667-0.744c-0.153-1.073-0.995-5.473-0.804-7.031
		c0.216-1.789,0.313-3.618,0.489-4.784c0.107-0.707,0.069-1.406,0.015-2.116c-0.106-1.394-0.533-2.801,0.293-4.146
		c0.465-0.761,0.447-1.602,0.183-2.447c-0.481-1.556-0.974-3.098-0.959-4.763c0.007-1.016-0.102-2.015,0.361-2.986
		c0.334-0.695,0.466-1.46,0.429-2.244c-0.037-0.766,0.059-1.524,0.176-2.287c0.166-1.082,0.057-2.141-0.451-3.135
		c-0.153-0.297-0.339-0.554-0.69-0.647c-0.526-0.142-0.999-0.4-1.429-0.73c-1.473-1.126-3.191-1.764-4.897-2.403
		c-0.079,0.025-0.155,0.054-0.225,0.093c-0.402,0.218-0.909,0.823-1.109,1.247c-0.203,0.422-0.288,1.319-0.326,1.484
		c-0.04,0.166-0.058,0.322-0.175,0.354c-0.12,0.03-0.3-0.019-0.401-0.111c-0.101-0.092-2.639-1.648-2.91-1.689
		c-0.271-0.039-0.542-0.078-0.542-0.078s-0.315-0.198-0.582-0.266c-0.268-0.065-0.274,0.288-0.355,0.05
		c-0.079-0.24,0.137-1.543,0.287-2.098c0.154-0.557,0.371-0.623,0.689-0.754c0.031-0.012,0.06-0.022,0.087-0.031
		c-0.128-0.033-0.256-0.052-0.382,0.001c-0.334,0.141-0.592-0.001-0.853-0.177c-0.796-0.535-1.597-1.064-2.394-1.599
		c-0.339-0.233-0.733-0.355-1.069-0.104c-0.334,0.251-0.706,0.367-1.073,0.526c-1.182,0.505-1.182,0.509-2.006-0.469
		c-0.049-0.059-0.096-0.123-0.143-0.181c-1.229-1.526-2.17-3.252-3.336-4.825c-0.45-0.605-1.013-1.043-1.717-1.297
		c-0.885-0.317-1.728,0.187-1.855,1.109c-0.047,0.322-0.077,0.64-0.047,0.97c0.271,2.744,1.09,5.331,2.271,7.803
		c0.609,1.279,1.228,2.565,2.189,3.635c0.764,0.848,1.701,0.873,2.581,0.152c0.484-0.399,0.614-0.908,0.632-1.479
		c0.021-0.802,0.021-1.609,0.03-2.415c0.002-0.195,0.061-0.343,0.285-0.349c0.142-0.006,0.272,0.004,0.329,0.163
		c0.07,0.191-0.069,0.263-0.188,0.371c-0.374,0.329-0.113,0.637,0.086,0.9c0.111,0.152,0.373,0.137,0.543,0.177
		c0.701,0.165,1.41,0.089,2.12,0.117c0.792,0.032,1.15,0.574,0.869,1.379c-0.146-0.214-0.269-0.395-0.204-0.652
		c0.037-0.162,0.051-0.33-0.169-0.346c-0.218-0.017-0.422,0.097-0.384,0.321c0.063,0.355-0.086,0.619-0.228,0.914
		c-0.245,0.506-0.095,0.93,0.334,1.268c0.036,0.028,0.073,0.059,0.108,0.088c0.001-0.131,0.005-0.256,0.012-0.364
		c0.026-0.371,1.295-0.745,1.295-0.745l-0.28-0.12c0,0,1.408,0.023,2.075,0c0.668-0.024,1.629-0.024,1.9,0
		c0.271,0.027,0.494-0.269,0.988,0c0.494,0.272,0.791,0.89,0.791,0.89l0.224,0.125c0,0,0.565,0.494,0.591,0.666
		c0.026,0.173,0.206,0.663,0.206,0.663s0.189,0.229,0.016,0.328c-0.175,0.096-2.815,0.121-3.162,0.145
		c-0.346,0.026-0.049,0.198-0.049,0.198l-1.481-0.023l0.084-0.125c0,0-1.565,0.098-2.061-0.023
		c-0.447-0.114-0.875-0.205-1.022-0.536c-0.006,0.111-0.009,0.216-0.018,0.321C31.103,15.77,31.12,15.976,30.933,16
		c-0.447,0.052-0.884,0.076-0.745,0.723c0.001,0.017-0.06,0.073-0.083,0.07c-0.537-0.143-0.497,0.383-0.721,0.609
		c-0.337,0.34-0.148,0.645,0.145,0.729c0.682,0.187,0.907,0.906,1.404,1.169c0.927,0.493,0.877,1.264,0.95,2.056
		c0.024,0.268,0.038,0.538,0.09,0.797c0.051,0.27-0.031,0.472-0.257,0.583c-0.174,0.089-0.343,0.187-0.504,0.291
		c0.005,0.231,0.02,0.851-0.004,1.181c-0.034,0.412-0.193,0.601,0.348,1.08c0.539,0.477,1.737,0.881,1.737,0.881
		s-0.12,0.357,0.04,0.388c0.161,0.034,0.699-0.063,0.699-0.063l0.348,0.317l-1.236,1.368l0.119,0.23l2.102-1.787l1.145-1.458
		l0.196,0.093l-1.919,3.686l0.32-0.036l2.11-3.238c0,0,0.561,0.003,1.038-0.032c0.475-0.029,0.443-0.634,0.475-1.3
		c0.033-0.667-0.22-1.173-0.22-1.173l1.336-1.569c-0.131,0.062-0.243,0.112-0.453-0.008c0.066-0.18-0.009-0.25,0.07-0.433
		c0.255-0.469,0.044-0.966,0.117-1.447c-0.028-0.488,0.077-0.927,0.399-1.343c0.303-0.392,0.382-0.86,0.045-1.28
		c-0.275-0.342-0.399-1.997-0.562-2.336c0.037-0.081,0.104-0.121,0.201-0.115c0.235,0.02,0.744,1.483,0.923,1.583
		c1.296,0.716,1.299,0.812,0.389,1.921c-0.27,0.228-0.975,1.205-0.897,2.727c-0.154,0.362-0.165,0.44-0.154,0.639l0.046-0.053
		l0.244,0.001v2.248l0.144-1.013c0,0,0.437,0.891,0.5,1.21c0.062,0.315,0.571,1.649,0.794,1.808
		c0.221,0.163,0.705,1.956,0.705,1.956l0.049,0.601l-0.945-1.288l-0.317,0.159l-1.158-1.419l-0.187,0.125
		c0,0,0.201,2.026,0.201,2.598s-0.316,1.142-0.413,1.525c-0.097,0.382,0.118,0.774,0.118,0.774s-1.484,3.875-1.914,5.042
		c-0.047,0.146-0.085,0.254-0.111,0.307c-0.025,0.064,0.02-0.064,0.111-0.307c0.242-0.784,0.715-2.611,0.715-2.611
		s-0.125,0.097-0.377,0.286c-0.258,0.191-0.225,0.538-0.191,0.922c0.031,0.379-0.467,0.476-0.467,0.476l-0.137-0.255l1.346-3.876
		l-0.396-0.092l-2.446,7.714c0,0-0.219-0.286-0.287-0.562c-0.068-0.278,0.813-2.708,0.813-2.708l0.077-0.696l2.436-7.269
		l-0.159-0.057L33.934,40.88c0,0-0.097,0.821-0.255-0.829c-0.157-1.649,3.909-11.998,3.909-11.998s-2.256,4.92-2.637,6
		c-0.381,1.081-2.095,6.125-2.095,6.125l-0.352,0.191l-0.114-0.496l2.498-7.646l-0.166-0.066c0,0-1.995,5.415-2.599,5.668
		s-0.729,0.042-0.729,0.042l-1.145,1.514l0.605-1.556l-0.097-0.125l-0.649,0.627l0.304-1.385c0,0-0.511,0.469-0.511,0.25
		c0-0.223,0.254-0.573,0.316-0.73c0.065-0.159-0.009-0.336-0.009-0.336l-1.327,0.957l0.845-1.212l-0.138-0.136l-1.312,0.732
		l-0.104-0.144l2.489-2.409l-0.104-0.113l-1.164,1.198l-1.271,0.413l-0.178-0.179l3.164-3.057l-0.159-0.158l-2.965,2.603
		c0,0-0.845-1.62-1.067-1.907c-0.222-0.286-0.889-0.667-0.889-0.667s-0.062-0.571-0.095-0.857c-0.03-0.283-0.704-3.842-0.704-3.842
		v-0.408c-0.071,0.498-0.248,0.952-0.396,1.422c-0.131,0.403-0.238,0.809-0.302,1.226c-0.209,1.37-0.409,2.743-0.744,4.086
		l0.013,0.043c-0.053,0.187-0.095,0.314-0.095,0.314l-0.349,0.231v0.92c0,0-0.29,0.219-0.344,0.231
		c-0.052,0.01-0.115,0.574-0.115,0.574l0.115,0.346v0.458c0,0-0.167,0.182-0.345,0.233c-0.179,0.051-0.476,0.708-0.577,0.918
		c-0.098,0.212-0.279,0.569-0.344,0.577c-0.064,0.007-0.212,0.152-0.574,0.113c-0.363-0.036-0.46-0.229-0.46-0.229
		s-0.264-0.17-0.347-0.347c-0.084-0.177-0.345-0.344-0.345-0.344s-0.22-0.137-0.347-0.344c-0.127-0.214-0.566-0.592-0.688-0.691
		c-0.125-0.103-0.65-0.595-0.807-0.693c-0.158-0.096-0.346,0-0.346,0l-0.116,0.231c0,0-0.039,0.212,0,0.344
		c0.04,0.135,0.191,0.516,0.346,0.691c0.155,0.178,0.292,0.108,0.346,0.345c0.055,0.239,0.338,0.438,0.46,0.576
		c0.125,0.137,0.086,0.061,0.229,0.345c0.145,0.282,0.231,0.46,0.231,0.46s-0.298,0.437-0.46,0.461
		c-0.163,0.023-0.903-0.281-1.035-0.345c-0.134-0.063-0.732-0.078-1.036-0.117c-0.304-0.036-0.433,0.095-0.461,0.117
		c-0.029,0.021-0.392,0.12-0.461,0.229c-0.044,0.074,0,0.345,0,0.345h-0.23c0,0-0.354,0.071-0.459,0.117
		c-0.104,0.046-0.019,0.392,0.114,0.573c0.134,0.184,0.58,0.389,0.807,0.461c0.224,0.073,0.83,0.129,1.034,0.233
		c0.206,0.101,0.975,0.209,1.038,0.229c0.06,0.018,0.229,0.343,0.229,0.343v0.461c0,0-1.195,0.003-1.382,0
		c-0.186-0.002-0.539,0.175-0.691,0.229c-0.152,0.058-0.38,0.165-0.46,0.233c-0.079,0.066-0.032,0.321,0,0.458
		c0.035,0.137,0.396,0.215,0.46,0.231c0.065,0.012,0.46,0,0.46,0s0.436-0.062,0.577-0.116c0.141-0.052,0.638-0.158,0.804-0.115
		c0.167,0.041,0.595,0.08,0.692,0.115c0.096,0.033,1.39,0.34,1.609,0.344c0.222,0.008,0.863-0.098,1.037-0.113
		c0.174-0.012,0.342,0,0.342,0s0.194,0.027,0.376,0.054c0.18-0.068,0.403-0.164,0.549-0.26c0.27-0.179,0.841-0.631,0.929-0.812
		c0.091-0.18,0.047-0.795,0.062-1.17c0.016-0.378-0.075-1.382-0.104-1.641c-0.029-0.251-0.449-0.704-0.542-0.704
		c-0.089,0-0.539-0.076-0.539-0.076l0.706-0.061c0,0,0.257-0.164,0.721,0c0.465,0.166,1.035,0.771,1.292,1.113
		c0.28,0.377,0.521,1.056,0.555,1.307c0.046,0.331-0.097,1.327-0.358,1.676v0.011c0.121-0.086,0.24-0.165,0.374-0.228
		c1.128-0.54,1.722-1.46,1.941-2.668c0.126-0.698,0.29-1.389,0.437-2.079c0.041-0.193,0.062-0.428,0.314-0.415
		c0.317,0.018,0.223,0.298,0.243,0.493c0.007,0.095,0.003,0.193-0.006,0.289c-0.051,0.658,0.046,1.262,0.614,1.706
		c0.078,0.061,0.163,0.197,0.15,0.289c-0.123,0.811,0.105,1.596,0.162,2.39c0.106,1.557-0.539,1.901-0.266,2.652
		c0.213,0.582,1.035,2.096,1.108,2.696c0.06,0.473-0.542,0.396-0.769,0.663c-1.059,1.245-3.115,1.927-3.936,3.384
		c-0.456,0.812,0.113,2.125-0.217,2.719c-0.263,0.477-0.19,0.367-0.597,0.669c-0.218,0.161-0.38,0.445-0.556,0.784
		c-0.241,0.467-0.439,0.878-0.769,1.256c-0.519,0.59-1.036,1.187-1.553,1.773c-0.129,0.15-0.272,0.318-0.199,0.514
		c0.144,0.385-0.085,0.618-0.295,0.865c-0.323,0.377-0.66,0.749-0.986,1.125c-0.099,0.114-0.25,0.24-0.143,0.4
		c0.198,0.292,0.024,0.47-0.163,0.637c-1.341,1.188-2.066,2.739-2.607,4.397c-0.164,0.497-0.38,0.963-0.721,1.364
		c-0.701,0.842-1.4,1.679-2.107,2.513c-0.314,0.375-0.706,0.636-1.18,0.783c-1.656,0.513-2.952,1.502-3.914,2.947
		c-1.047,1.573-1.883,3.278-3.16,4.704c-0.884,0.984-1.233,2.348-2.518,3.107c-0.688,0.406-1.268,1.097-2.019,1.506
		c-0.426,0.233-0.419,0.597-0.011,0.869c0.285,0.19,0.048,0.307-0.064,0.438c-0.488,0.611-1.007,1.2-1.286,1.951
		c0.371-0.141,0.762-0.235,1.007-0.516c0.109-0.303-0.492-0.011-0.231-0.338c0.147-0.188,0.296-0.559,0.68-0.331
		c0.204,0.122,0.271,0.216,0.137,0.491c-0.211,0.436-0.522,0.852-0.503,1.378c0.004,0.112-0.025,0.245,0.023,0.333
		c0.19,0.352,1.555,0.34,1.812,0.045c0.33-0.381,0.387-1.024,1.034-1.117c0.026-0.004,0.067-0.101,0.055-0.139
		c-0.133-0.409,0.2-0.619,0.439-0.684c0.22-0.059,0.333,0.299,0.549,0.574c-0.466-0.148-0.754-0.148-0.423,0.346
		c0.021,0.036,0.029,0.072,0.043,0.109c-0.637,0.113-0.099,0.673-0.361,0.947c-0.342,0.357-0.318,0.757-0.022,1.142
		c0.255,0.337,0.208,0.521-0.241,0.528c-0.221,0.003-0.404,0.076-0.562,0.242c-0.241,0.253-0.486,0.289-0.703-0.05
		c-0.141-0.21-0.343-0.2-0.49-0.04c-0.368,0.41-0.879,0.311-1.335,0.406c-0.106,0.021-0.303,0.012-0.327-0.042
		c-0.194-0.448-0.438-0.37-0.736-0.121c-0.026,0.026-0.155-0.022-0.194-0.07c-0.09-0.116-0.014-0.21,0.083-0.29
		c0.401-0.32,0.779-0.678,1.267-0.883c0.161-0.07,0.385-0.076,0.446-0.307c-1.396-0.078-1.396-0.078-1.45-1.609
		c-0.485,0.48-0.697,1.072-0.725,1.745C0.065,89.418,0.169,89.806,0,90.173v0.922c0.229,0.739,0.714,1.18,1.495,1.268h2.303
		c0.76-0.287,1.608-0.343,2.25-0.953c0.371-0.35,0.729-0.692,0.854-1.191c0.147-0.582,0.491-1.018,1.001-1.273
		c0.801-0.398,0.932-1.065,0.713-1.787c-0.256-0.85,0.336-1.604,0.161-2.423c0.737-1.492,1.287-3.105,3.034-3.824
		c0.848-0.347,1.613-0.881,2.442-1.28c0.811-0.392,1.429-0.941,1.839-1.746c0.207-0.409,0.461-0.793,0.684-1.197
		c0.177-0.32,0.43-0.527,0.782-0.628c0.349-0.103,0.724-0.177,0.994-0.434c1.62-1.546,3.613-2.653,5.11-4.344
		c0.976-1.103,2.137-2.021,3.099-3.126c0.356-0.411,0.717-0.533,1.181-0.703c1.609-0.587,3.166-1.26,4.332-2.629
		c0.729-0.855,1.619-1.575,2.422-2.373c0.256-0.257,0.457-0.302,0.795-0.137c0.774,0.379,1.574,0.707,2.368,1.041
		c0.324,0.141,0.461,0.352,0.451,0.713c-0.028,1.018,0.099,2.023,0.224,3.031c0.042,0.314,0.102,0.67,0.116,0.967
		c0.003,0.059-0.002,0.116-0.002,0.174c-0.013,0.39,0.071,0.665,0.24,0.824l1.216-0.537c0.441,0.791,0.883,1.584,1.058,2.438
		c0.18,0.888,0.479,1.745,0.738,2.614c0.147,0.49,0.302,0.986,0.483,1.465c0.606,1.577,1.326,1.598,1.572,2.449
		c0.068,0.238,0.207,0.48,0.379,0.655c0.5,0.511,1.022,1.001,1.556,1.478c0.241,0.209,0.515,0.464,0.806,0.522
		c0.579,0.113,1.193,0.198,1.77,0.118c0.816-0.11,1.612-0.071,2.419-0.002c0.411,0.031,0.967,0.646,0.916,1.062
		c-0.091,0.776,0.311,1.315,0.781,1.847c0.197,0.227,0.392,0.463,0.558,0.711c0,0,0.403,0.825,0.503,1.101
		c0.433,1.198,1.388,2.014,2.197,2.908c1.163,1.296,3.736,1.123,4.311-0.921c0.152-0.541,0.039-1.102,0.238-1.622
		C60.351,85.008,60.313,84.663,60.274,84.323 M23.794,3.497c0.319,0.257,0.454,0.623,0.674,0.92
		c0.228,0.298,0.439,0.606,0.732,1.014c0.125-0.585-0.27-0.795-0.428-1.1c-0.176-0.339-0.398-0.649-0.6-0.973
		c0.762,0.339,1.056,1.038,1.374,1.703c0.134,0.273-0.024,0.463-0.38,0.438C24.294,5.439,23.573,4.428,23.794,3.497 M25.329,13.362
		c-0.782,0-2.12-1.944-3.257-4.609c-0.515-0.244-0.701-0.707-0.821-1.23c-0.024-0.1-0.032-0.193,0.063-0.252
		c0.057-0.032,0.111-0.044,0.162-0.036C21.44,7.13,21.4,7.021,21.366,6.914c-1.237-3.561-1.461-6.447-0.504-6.447
		c0.344,0,0.799,0.38,1.295,1.029c0.026-0.011,0.056-0.016,0.087-0.016c0.171-0.008,0.267,0.103,0.299,0.274
		c-0.02,0.061-0.048,0.119-0.083,0.166c0.225,0.335,0.459,0.716,0.689,1.141c0.077,0.097,0.156,0.191,0.234,0.292
		c0.043,0.052,0.062,0.163,0.051,0.253c0.492,0.968,0.975,2.099,1.392,3.31C26.06,10.477,26.286,13.362,25.329,13.362 M27.12,7.708
		c-0.181,0.12-0.181-0.125-0.271-0.2c-0.587-0.492-1.073-1.078-1.596-1.642c0.609-0.377,0.829,0.099,1.117,0.464
		c0.25,0.318,0.347,0.737,0.715,0.98C27.186,7.375,27.285,7.599,27.12,7.708 M28.313,9.187c-0.245-0.113-0.491-0.222-0.733-0.343
		c-0.037-0.021-0.078-0.1-0.09-0.16c-0.007-0.021-0.01-0.037-0.012-0.054c-0.12-0.014-0.219-0.173-0.188-0.321
		c0.016-0.08,0.033-0.164,0.062-0.24C27.347,7.952,27.364,7.83,27.427,7.7c0.025-0.051,0.004-0.147,0.004-0.194
		c0.198,0.024,0.392,0.05,0.587,0.07c0.276,0.03,0.328,0.171,0.256,0.558c-0.062,0.331-0.163,0.689,0.092,0.99
		C28.35,9.146,28.334,9.168,28.313,9.187 M32.454,10.653c-0.688-0.161-0.949-0.61-1.1-1.146c-0.002-0.007-0.006-0.011-0.006-0.018
		c-0.166-0.454-0.044-0.912,0.269-1.028c0.313-0.111,0.699,0.167,0.863,0.621c0.163,0.457,0.043,0.914-0.27,1.029
		c-0.002,0.001-0.009,0.001-0.012,0.001C32.256,10.299,32.405,10.405,32.454,10.653 M2.522,85.915
		c-0.093,0.051-0.176-0.066-0.166-0.164c0.021-0.257,0.171-0.389,0.462-0.405C2.812,85.609,2.722,85.807,2.522,85.915
		 M50.276,75.804c-0.121-0.277-0.229-0.469-0.294-0.677c-0.084-0.255-0.15-0.523-0.192-0.791c-0.021-0.142,0.077-0.218,0.218-0.142
		c0.575,0.307,1.077,0.678,1.248,1.359c0.032,0.132,0.126,0.247,0.203,0.39C51.027,75.903,50.57,76.085,50.276,75.804"/>
	<g>
		<path fill="#FFFFFF" d="M97.568,62.726V45.878h3.846v16.881c0,2.118,0.357,6.453,5.638,6.453c5.312,0,5.67-4.335,5.67-6.453
			V45.878h3.846v16.848c0,6.096-3.617,10.136-9.483,10.136C101.186,72.861,97.568,68.821,97.568,62.726z"/>
		<path fill="#FFFFFF" d="M135.337,50.57l-3.584,1.401c-0.456-2.02-1.531-2.803-3.03-2.803c-2.28,0-3.356,0.979-3.356,2.934
			c0,2.347,2.443,2.803,5.377,3.812c3.812,1.305,6.388,3.422,6.388,7.952c0,4.79-4.074,8.994-9.027,8.994
			c-4.954,0-8.994-3.649-8.994-8.994h3.845c0,3.226,2.313,5.345,5.149,5.345c2.868,0,5.182-2.151,5.182-5.345
			c0-2.51-1.141-3.39-3.813-4.334c-3.779-1.304-7.951-2.412-7.951-7.431c0-4.008,3.227-6.518,7.202-6.583
			C132.274,45.52,134.491,47.41,135.337,50.57z"/>
		<path fill="#FFFFFF" d="M151.405,56.665v3.65h-7.041v8.538h7.985v3.649h-11.862V45.878h11.862v3.649h-7.985v7.138H151.405z"/>
		<path fill="#FFFFFF" d="M155.38,62.726V45.878h3.846v16.881c0,2.118,0.359,6.453,5.638,6.453c5.312,0,5.67-4.335,5.67-6.453
			V45.878h3.845v16.848c0,6.096-3.616,10.136-9.482,10.136C158.997,72.861,155.38,68.821,155.38,62.726z"/>
		<path fill="#FFFFFF" d="M201.167,56.404l-8.473,16.815l-8.506-16.913l-3.812,16.196h-3.943l6.518-27.179l9.744,19.521
			l9.841-19.683l6.52,27.341h-3.911L201.167,56.404z"/>
	</g>
	<path fill="#FFFFFF" d="M65.877,72.503l9.298-18.691l2.238,3.967L70.09,72.503h20.207l-8.376-14.844l1.913-3.848l10.55,18.691
		h4.618l-15.39-27.188l-4.057,8.156l-4.603-8.156L61.384,72.503H65.877z M79.778,61.968l3.697,6.553h-6.957L79.778,61.968z"/>
	<g>
		<path fill="#FFFFFF" d="M68.525,41.665h-1.272l-2.176-2.803c-0.29,0.049-0.58,0.064-0.902,0.064h-1.338v2.739H61.79V30.709h2.385
			c2.98,0,4.527,1.756,4.527,4.125c0,1.755-0.869,3.19-2.562,3.786L68.525,41.665z M64.11,38.007c2.497,0,3.495-1.337,3.495-3.174
			c0-1.837-1.014-3.19-3.495-3.19h-1.273v6.364H64.11z"/>
		<path fill="#FFFFFF" d="M71.07,41.665h-1.047l4.607-11.213h0.081l4.623,11.213h-1.078l-0.758-1.901h-5.655L71.07,41.665z
			 M74.679,32.755l-2.465,6.074h4.898C77.128,38.829,74.679,32.755,74.679,32.755z"/>
		<path fill="#FFFFFF" d="M81.349,30.709h6.541v0.935h-5.494v5.478h4.995v0.935h-4.995v3.609h-1.047V30.709z"/>
		<path fill="#FFFFFF" d="M89.405,41.665h-1.048l4.607-11.213h0.081l4.624,11.213h-1.08l-0.757-1.901h-5.655L89.405,41.665z
			 M93.013,32.755l-2.465,6.074h4.898C95.462,38.829,93.013,32.755,93.013,32.755z"/>
		<path fill="#FFFFFF" d="M104.371,33.045v8.62h-0.983V30.483h0.097l7.379,8.845v-8.619h0.984V41.89h-0.099L104.371,33.045z"/>
		<path fill="#FFFFFF" d="M114.907,41.665h-1.047l4.607-11.213h0.081l4.624,11.213h-1.08l-0.757-1.901h-5.655L114.907,41.665z
			 M118.517,32.755l-2.465,6.074h4.897C120.965,38.829,118.517,32.755,118.517,32.755z"/>
		<path fill="#FFFFFF" d="M125.186,30.709h2.739c3.625,0,5.783,2.24,5.783,5.478c0,3.238-2.142,5.478-5.783,5.478h-2.739V30.709z
			 M127.827,40.714c3.239,0,4.786-1.869,4.786-4.527c0-2.659-1.547-4.528-4.786-4.528h-1.595v9.055H127.827z"/>
		<path fill="#FFFFFF" d="M135.449,41.665h-1.048l4.607-11.213h0.081l4.624,11.213h-1.08l-0.757-1.901h-5.655L135.449,41.665z
			 M139.058,32.755l-2.465,6.074h4.897C141.507,38.829,139.058,32.755,139.058,32.755z"/>
		<path fill="#FFFFFF" d="M145.728,30.709h1.047V40.73h5.091v0.934h-6.138V30.709z"/>
	</g>
	<g>
		<path fill="#FFFFFF" d="M126.23,77.436h1.192l2.626,4.093l2.626-4.093h1.127l-3.189,4.962l3.852,5.993h-1.192l-3.255-5.058
			c0-0.018-3.254,5.058-3.254,5.058h-1.128c0,0,3.818-5.944,3.818-5.929L126.23,77.436z"/>
		<path fill="#FFFFFF" d="M137.959,88.391h-1.046V77.436h2.353c2.964,0,4.511,1.756,4.511,4.124c0,2.353-1.547,4.093-4.511,4.093
			h-1.307V88.391z M139.2,84.718c2.497,0,3.496-1.338,3.496-3.158c0-1.836-0.999-3.189-3.496-3.189h-1.241v6.348H139.2z"/>
		<path fill="#FFFFFF" d="M146.385,77.436h6.606v0.935h-5.559v5.478h4.962v0.919h-4.962v2.69h5.783v0.934h-6.831V77.436z"/>
		<path fill="#FFFFFF" d="M162.626,88.391h-1.273l-2.175-2.804c-0.29,0.049-0.581,0.065-0.903,0.065h-1.336v2.738h-1.048V77.436
			h2.384c2.981,0,4.527,1.756,4.527,4.124c0,1.756-0.869,3.19-2.561,3.787L162.626,88.391z M158.212,84.733
			c2.497,0,3.495-1.337,3.495-3.174c0-1.836-1.016-3.189-3.495-3.189h-1.273v6.363H158.212z"/>
		<path fill="#FFFFFF" d="M165.589,77.436h1.064v10.955h-1.064V77.436z"/>
		<path fill="#FFFFFF" d="M169.972,77.436h6.605v0.935h-5.559v5.478h4.963v0.919h-4.963v2.69h5.784v0.934h-6.831V77.436z"/>
		<path fill="#FFFFFF" d="M180.46,79.771v8.619h-0.983V77.21h0.097l7.379,8.845v-8.619h0.984v11.181h-0.098L180.46,79.771z"/>
		<path fill="#FFFFFF" d="M190.464,82.913c0-3.255,2.434-5.606,5.543-5.606c1.854,0,3.32,0.758,4.302,2.046l-0.807,0.58
			c-0.821-1.063-1.981-1.676-3.511-1.676c-2.546,0-4.432,1.998-4.432,4.656c0,2.691,1.918,4.655,4.511,4.655
			c1.58,0,2.853-0.659,3.723-1.819l0.821,0.58c-1.08,1.417-2.609,2.191-4.576,2.191C192.897,88.521,190.449,86.168,190.464,82.913z"
			/>
		<path fill="#FFFFFF" d="M203.047,77.436h6.606v0.935h-5.56v5.478h4.963v0.919h-4.963v2.69h5.784v0.934h-6.831V77.436z"/>
	</g>
</g>
</svg>
