<?xml version="1.0" encoding="utf-8"?>
<!-- Generator: Adobe Illustrator 16.0.0, SVG Export Plug-In . SVG Version: 6.00 Build 0)  -->
<!DOCTYPE svg PUBLIC "-//W3C//DTD SVG 1.1//EN" "http://www.w3.org/Graphics/SVG/1.1/DTD/svg11.dtd">
<svg version="1.1" id="Layer_5" xmlns="http://www.w3.org/2000/svg" xmlns:xlink="http://www.w3.org/1999/xlink" x="0px" y="0px"
	 width="134.817px" height="86.351px" viewBox="0 0 134.817 86.351" enable-background="new 0 0 134.817 86.351"
	 xml:space="preserve">
<g>
	<g>
		<path fill="#A067AB" d="M9.346,58.938C4.178,58.95-0.006,61.491,0,64.616c0.007,3.124,4.198,5.65,9.366,5.639
			c4.069-0.007,7.516-1.587,8.803-3.78l-0.009-3.789C16.868,60.499,13.413,58.931,9.346,58.938z"/>
	</g>
	<g>
		<path fill="#4764AE" d="M125.45,58.938c-4.066,0.009-7.516,1.589-8.801,3.783l0.008,3.785c1.293,2.189,4.746,3.757,8.816,3.749
			c5.164-0.008,9.35-2.549,9.344-5.676C134.812,61.454,130.618,58.929,125.45,58.938z"/>
	</g>
	<path fill="#A067AB" d="M9.346,58.938C4.178,58.95-0.006,61.491,0,64.616c0.007,3.124,4.198,5.65,9.366,5.639
		c4.069-0.007,7.516-1.587,8.803-3.78l-0.009-3.789C16.868,60.499,13.413,58.931,9.346,58.938z"/>
	<path fill="#4764AE" d="M125.45,58.938c-4.066,0.009-7.516,1.589-8.801,3.783l0.008,3.785c1.293,2.189,4.746,3.757,8.816,3.749
		c5.164-0.008,9.35-2.549,9.344-5.676C134.812,61.454,130.618,58.929,125.45,58.938z"/>
	<g>
		<path fill="#33477B" d="M49.193,70.954v14.87h-5.939V72.141c0-6.643,3.344-9.941,9.987-9.941c2.99,0,5.277,0.66,6.95,1.98
			c1.671-1.276,3.958-1.893,6.95-1.893c6.643,0,9.941,3.3,9.896,9.941v13.683h-3.034c-1.937-0.133-2.903-1.056-2.903-2.905V71.041
			c-0.133-2.419-1.453-3.607-4.046-3.607c-2.597,0-3.916,1.188-3.96,3.607v14.783h-5.896v-14.87
			c-0.131-2.42-1.451-3.607-4.048-3.607C50.558,67.346,49.237,68.534,49.193,70.954z"/>
		<path fill="#33477B" d="M30.631,62.199c-5.367,0-8.401,2.111-9.106,6.422h5.851c0.309-1.099,1.452-1.627,3.52-1.627
			c2.42,0,3.651,0.66,3.783,1.98c0,1.274-1.275,2.023-3.783,2.331c-5.894,0.573-9.941,2.069-10.074,7.654
			c0,5.149,3.873,7.743,9.458,7.303c6.292-0.438,10.163-3.3,10.163-9.721v-7.919C40.309,64.31,37.055,62.199,30.631,62.199z
			 M34.768,76.275c0,3.3-1.98,5.236-5.236,5.236c-1.848,0-2.816-0.88-2.947-2.728c0-1.716,1.188-2.816,3.52-3.254
			c1.715-0.353,3.299-0.838,4.664-1.409V76.275z"/>
		<path fill="#33477B" d="M102.726,62.199c-7.08,0.044-10.645,4.003-10.645,11.921c0,7.917,3.52,12.01,10.559,12.23
			c5.719,0,8.887-2.729,10.16-7.654h-4.311c-0.791,0-1.451,0.262-1.98,0.834c-1.143,1.1-2.418,1.672-3.783,1.672
			c-2.857,0-4.398-1.805-4.617-5.367h15.045C113.593,66.73,110.116,62.199,102.726,62.199z M98.196,71.657
			c0.439-3.08,1.936-4.664,4.443-4.664c2.506,0,3.959,1.583,4.311,4.664H98.196z"/>
		<g>
			<path fill="#33477B" d="M86.89,66.73c1.629,0,2.904-1.232,2.904-2.903V62.55h-3.52v-3.694c0-1.542-1.277-2.947-2.814-2.947
				h-3.037v6.615H78.36V63.8c0,1.367,0.861,2.429,2.062,2.774v14.76c-0.043,2.595,1.012,3.96,3.211,4.178
				c2.201,0.222,4.268,0.222,6.16,0.045v-4.443h-1.803c-1.145,0-1.717-0.527-1.717-1.496V66.73H86.89z"/>
			<g>
				<g>
					<path fill="#4764AE" d="M92.108,60.235v2.315v1.276c0,0.473-0.062,0.929-0.176,1.363c2.127-3.431,5.771-5.274,10.779-5.306
						h0.008h0.006c3.959,0,7.074,1.161,9.258,3.455c1.107,1.161,1.953,2.605,2.539,4.321c-0.113-5.569-1.209-11.04-3.201-16.159
						l-21.086,8.733H92.108z"/>
				</g>
			</g>
		</g>
	</g>
	<g>
		<path fill="#34B06E" d="M71.677,60.562c1.73,0.494,3.197,1.289,4.368,2.399v-0.437v-2.315h2.063v-4.3v-2.317h2.314h3.037
			c2.486,0,4.623,1.929,5.047,4.377l21.738-9.004c-1.918-4.194-4.461-8.102-7.543-11.595l0.463,0.458
			c-0.043-0.059-0.094-0.122-0.139-0.182c0.463-0.706,0.5-1.613,0.035-2.318l1.195-1.213c2.465,0.634,6.014-0.7,8.883-3.583
			c3.65-3.66,4.811-8.415,2.598-10.621c-2.217-2.203-6.965-1.026-10.613,2.635c-2.871,2.882-4.191,6.438-3.549,8.899l-1.193,1.212
			c-0.723-0.47-1.648-0.432-2.357,0.064l0.006,0.005c-0.002,0.001-0.006,0.003-0.01,0.006L98.29,33
			c-3.523-3.057-7.553-5.646-12.047-7.604L71.677,60.562z"/>
	</g>
	<g>
		<path fill="#FFDE17" d="M64.991,60.082c0.683-0.072,1.396-0.11,2.15-0.11c0.611,0,1.192,0.035,1.761,0.087l14.782-35.69
			c-4.271-1.576-8.639-2.489-12.984-2.792h0.109c-0.154-0.852-0.783-1.537-1.626-1.714l-0.015-1.702
			c2.189-1.292,3.756-4.748,3.747-8.814C72.907,4.178,70.367-0.005,67.243,0c-3.125,0.007-5.649,4.2-5.642,9.368
			c0.009,4.069,1.588,7.516,3.782,8.799l0.012,1.707c-0.843,0.175-1.47,0.862-1.62,1.714l0.25-0.001
			c-4.718,0.343-9.337,1.386-13.7,3.086L64.991,60.082z"/>
	</g>
	<g>
		<path fill="#ED1652" d="M30.398,34.302l1.216,1.198c-0.472,0.721-0.43,1.65,0.066,2.358l0.007-0.006c0,0.002,0,0.002,0.002,0.002
			c-2.896,3.366-5.364,7.19-7.267,11.434L50.48,60.082c0.866-0.129,1.784-0.197,2.761-0.197c2.791,0,5.091,0.506,6.977,1.543
			c0.621-0.327,1.295-0.594,2.015-0.809L47.788,25.748c-4.026,1.843-7.79,4.261-11.177,7.181l0.047-0.047
			c-0.354-0.247-0.767-0.38-1.179-0.393c-0.415-0.016-0.833,0.089-1.194,0.328l-1.213-1.196c0.634-2.463-0.7-6.013-3.583-8.885
			c-3.661-3.646-8.417-4.807-10.622-2.594c-2.205,2.214-1.025,6.965,2.635,10.613C24.384,33.624,27.938,34.945,30.398,34.302z"/>
	</g>
	<g>
		<path fill="#A067AB" d="M30.631,59.884c7.49,0,10.539,2.751,11.616,5.814c0.92-1.893,2.314-3.343,4.153-4.325l-23.03-9.54
			c-1.611,4.23-2.568,8.557-2.927,12.866C21.921,62.079,24.875,59.884,30.631,59.884z"/>
	</g>
</g>
</svg>
